<?xml version="1.0" encoding="UTF-8"?>
<svg width="200px" height="200px" viewBox="0 0 200 200" version="1.1" xmlns="http://www.w3.org/2000/svg" xmlns:xlink="http://www.w3.org/1999/xlink">
    <!-- Generator: Sketch 57.1 (83088) - https://sketch.com -->
    <title>Canada</title>
    <desc>Created with Sketch.</desc>
    <defs>
        <path d="M25.0672317,85.5137496 C24.6588942,85.068457 23.589583,85.1638768 23.432064,84.7510025 C23.2751509,84.3387398 22.2997452,82.8474988 21.7653925,82.8774704 C21.230434,82.9098887 20.5391682,82.9410836 19.9096983,82.4652077 C19.2808342,81.9881084 18.8724967,81.9575252 18.4320495,82.2431731 C17.9916023,82.5294326 18.9033946,82.5918225 18.8724967,82.9098887 C18.8409929,83.2267315 19.1548191,83.4181829 19.5328645,83.3545697 C19.9096983,83.2915681 20.1296189,84.0855102 20.5076644,84.1167051 C20.885104,84.1491234 21.0105133,84.7510025 21.4509605,84.7510025 C21.8914077,84.7510025 21.9853132,85.2599084 22.2058397,85.5455563 C22.4263662,85.8324275 22.9292151,85.5773629 22.9292151,85.8636224 C22.9292151,86.1192987 23.432064,86.3505083 23.5592908,86.6716328 C24.4201924,86.7750043 25.158108,86.8569676 25.7996948,86.6777495 C25.806359,86.4783465 25.8566439,86.2575351 25.9487319,86.0850454 C26.1680468,85.6727827 25.4761751,85.9584306 25.0672317,85.5137496 Z M23.8693446,35.4671121 C24.9950079,35.7249297 25.1166687,37.7831325 25.8701223,37.7831325 C26.3712201,37.7831325 25.9953968,37.139828 26.8084762,37.139828 C27.6215557,37.139828 27.433644,36.6892669 28.1840862,36.7537213 C28.9351307,36.8181757 29.5602984,36.560358 29.5602984,35.6598556 C29.5602984,34.7587334 30.1234312,34.4370811 30.8732712,34.2437179 C31.6237134,34.0515942 30.9353061,33.0860175 31.9989345,32.8281999 C33.0619606,32.571002 36.0016945,31.2843929 36.5009855,30.8982862 C37.0014811,30.5121795 35.8758178,29.9977837 34.7501544,29.289405 C33.6244911,28.581646 32.7493767,28.3882828 31.87366,28.9677527 C30.9979434,29.5472226 31.6857483,28.3244481 30.9979434,28.6461004 C30.3101384,28.9677527 28.4340328,28.1310849 28.1840862,27.8094326 C27.9341395,27.4871606 24.5571496,28.5171916 23.7440701,28.5171916 C22.9309907,28.5171916 23.8067073,29.4183138 24.3698401,29.8682552 C24.9323707,30.319436 22.9942302,31.7343342 23.3694513,32.0566063 C23.7446724,32.3782586 22.9942302,33.2143066 22.1185135,34.2437179 C21.2427968,35.2743686 22.7442835,35.2099142 23.8693446,35.4671121 Z M55.858103,40.3989421 C56.2390501,39.9655371 57.823277,41.2663491 57.8867681,40.3374535 C57.9502593,39.407364 56.1120677,38.973362 55.3513946,38.4778714 C54.591332,37.9811869 54.2744866,38.2295291 53.0693753,37.3615252 C51.8648745,36.4941182 53.3862207,36.0601162 52.4985652,35.3783689 C51.6115203,34.6966216 51.2946749,32.8370395 51.9277552,32.2179748 C52.5614459,31.5971191 53.2592383,30.6682235 52.1182287,30.2342215 C50.977219,29.8008165 49.1390274,30.6067349 49.329501,30.8538832 C49.519364,31.1022255 51.1035909,31.9696325 51.1035909,32.3421459 C51.1035909,32.7134654 49.6457359,31.2884822 49.138417,31.5977161 C48.6317085,31.9081439 48.061509,30.9786514 47.6170707,31.5977161 C47.1738535,32.2185718 48.1878808,34.3873877 48.5676069,35.0064525 C48.9485539,35.6267112 48.1878808,35.6267112 47.6805619,35.7502853 C47.1738535,35.8750534 47.1103623,34.0148743 46.6030434,33.333724 C46.0957245,32.6519768 44.0676699,31.8454614 43.9406876,32.3421459 C43.8137052,32.8376365 45.2080691,32.8376365 45.0182061,33.5193838 C44.828343,34.201728 44.0676699,33.0853818 43.3698775,33.6435549 C42.6726956,34.201728 42.7996779,33.8298116 42.9260498,33.2716385 C43.0530321,32.7134654 41.9120225,32.0944006 40.644641,32.2179748 C39.376649,32.3421459 40.0738309,33.2095529 39.6941048,33.5193838 C39.3137683,33.8298116 37.4120855,33.333724 38.6159759,33.0853818 C39.8204767,32.8370395 39.3137683,32.1558892 38.8699406,31.4741419 C38.4261128,30.7923947 37.2222225,31.5977161 35.2570486,32.2794634 C33.2924851,32.9618076 32.4048297,33.7050435 32.6581839,33.767129 C32.9121486,33.8292146 32.9750293,34.1384485 32.2143562,34.7587072 C31.4536831,35.3783689 32.2143562,35.936542 32.9121486,35.936542 C33.6093305,35.936542 32.9951755,36.4827756 33.4823482,36.6182893 C33.9261759,36.7424604 36.2081952,35.7502853 36.8418859,36.1842873 C37.4761872,36.6182893 33.1026221,36.8660346 33.1026221,37.6098674 C33.1026221,38.3537003 35.5110133,38.7877022 37.2863242,38.4778714 C39.0610246,38.1674436 42.1665977,38.7256167 42.1665977,39.1596187 C42.1665977,39.5936207 40.0750519,39.4694495 38.490825,39.407364 C36.9065981,39.3458754 34.1807511,39.8413659 34.3071229,40.3374535 C34.4487571,40.8920448 34.6239683,40.8956266 36.2716864,41.6382655 C37.9200149,42.3826953 39.6306137,41.2657521 39.567733,42.3206098 C39.5042418,43.3748704 40.4553884,43.6226157 42.6733061,43.6841043 C44.8918342,43.7461899 45.9058615,42.6931232 46.9839905,42.7552087 C48.061509,42.8166973 48.5682174,42.6310376 49.0755363,41.8878017 C49.5822447,41.1433719 50.0266829,41.5773739 50.1530548,41.9492903 C50.2800371,42.3212067 51.674401,42.2585242 51.9912463,42.568355 C52.7995378,43.359349 55.477156,43.1271251 56.4911833,42.6304406 C57.5052106,42.13495 56.0473556,40.7708585 55.5400367,41.3905202 C55.0333283,42.0107789 54.590111,41.6382655 54.4631287,41.3290316 C54.3373673,41.0186038 55.478377,40.8335411 55.858103,40.3989421 Z M31.3865281,25.3732758 C32.5601073,25.5163214 33.7324313,24.3740194 33.6671627,23.7310017 C33.6025217,23.0893595 30.8047592,25.3031284 31.3865281,25.3732758 Z M26.6661012,23.1332172 C27.1097813,23.3227523 26.6661012,24.2054268 27.172641,23.9533208 C27.6797911,23.7006074 27.8067312,23.6380366 28.1869412,23.7637858 C28.8716854,23.9915923 29.010221,23.3853231 29.3275712,23.0700389 C29.6443111,22.7541471 29.5179813,24.2048193 30.3412611,24.2048193 C31.038211,24.2048193 30.9118812,22.6909687 31.5453611,23.1326097 C32.1794513,23.5742507 32.3692511,22.9436822 32.4961912,22.5020412 C32.6231313,22.0604002 32.6231313,21.3040824 33.3200813,21.1777257 C34.0170312,21.051369 33.4470214,21.8714726 33.7637613,22.4394703 C34.2245294,23.2662562 35.0307211,22.5026487 35.0948014,22.1235785 C35.1582715,21.7457234 36.2989015,21.9978293 36.2348211,21.5561883 C36.1713511,21.1145473 36.5521714,20.9881906 36.2348211,20.4833713 C35.9186915,19.9791594 36.7425815,20.1049087 37.1221812,19.726446 C37.5030015,19.3479834 36.6156414,19.6632677 35.9815512,19.0958775 C35.3480713,18.5278798 35.0948014,19.284805 35.0948014,19.6632677 C35.0948014,20.0417303 33.8900911,19.726446 33.1937515,19.4737326 C32.4968015,19.2216267 31.6094414,20.2938362 30.5957516,20.7986556 C29.5820617,21.3034749 29.5192019,22.1861494 28.5683718,22.1229711 C27.6163211,22.0610077 26.2230315,22.9442896 26.6661012,23.1332172 Z M36.4053957,22.8304376 C35.508138,22.8932476 35.5717426,23.7713796 36.5986797,23.7713796 C37.6237642,23.7713796 37.944875,24.0848256 36.4702354,24.0220156 C34.9955957,23.9592056 34.3539916,25.2135936 35.3796937,24.9629576 C36.4053957,24.7117176 37.6237642,24.7117176 36.8543333,24.9629576 C36.0842849,25.2135936 33.9890369,25.3863211 34.2897695,25.7776757 C34.482436,26.0283117 35.3154715,25.9661056 36.1491246,26.2795517 C36.9821601,26.5936016 37.4953199,26.7808237 38.136924,26.0911217 C38.777293,25.4014197 39.6115636,24.7123216 39.2910703,25.6526596 C38.9699595,26.5936016 40.3167723,25.9038996 42.0476831,25.8404857 C43.7792114,25.7776757 41.7271898,26.8442376 39.9320569,26.9692537 C38.136924,27.0948737 38.4574173,27.9724017 39.8678347,28.2858477 C41.2782522,28.5992938 44.2923712,27.4077157 44.9969624,26.7180137 C45.7021711,26.0283117 46.3431577,27.0942697 47.0483664,26.5929977 C47.7541927,26.0905177 49.1010055,26.6558077 50.3187565,26.4045677 C51.537125,26.1539317 51.729174,23.8963956 50.8319163,23.5201396 C49.9346586,23.1438836 49.9346586,23.9592056 49.2294498,24.0848256 C48.5242411,24.2104456 48.1389081,23.3323136 47.5627612,22.7682315 C46.9853793,22.2035455 47.3694772,21.1375875 46.5364417,21.2632075 C45.7095814,21.3876196 43.9076557,22.7054215 44.9975799,22.8304376 C46.0875041,22.9560576 45.7027886,23.5207436 45.1260242,23.7713796 C44.5492598,24.0220156 46.4728371,24.4604777 46.2159484,24.8373376 C45.9596773,25.2141976 43.010398,24.9001476 42.8825712,24.2732556 C42.7541269,23.6457596 40.4464517,22.5169916 39.4849718,22.7682315 C38.5228745,23.0188676 38.9075899,22.0157195 37.9461101,21.9529095 C36.9827776,21.8900995 37.3032709,22.7682315 36.4053957,22.8304376 Z M39.5505561,18.4327988 C39.8397752,17.4811463 37.6341316,17.6384821 37.8152418,17.9569725 C38.2203714,18.6710938 39.2607798,19.3844514 39.5505561,18.4327988 Z M44.4776828,18.2941072 C45.2669971,18.1718496 44.9027432,17.5611492 43.627562,17.7451234 C42.3529656,17.9279221 40.1674419,17.9267465 40.1674419,18.8436788 C40.1674419,19.576049 40.5925022,19.9422341 41.9881269,20.0644918 C43.3843363,20.1861616 44.598711,18.8436788 43.9310095,18.8436788 C43.2633081,18.8436788 43.6883685,18.4163648 44.4776828,18.2941072 Z M42.0026862,16.9319714 C42.6296171,17.2062884 43.2559447,16.3160769 43.6940119,16.726893 C44.1326825,17.1377091 46.0744186,17.479946 46.0744186,16.3839967 C46.0744186,15.2887069 43.6312585,15.1515484 43.0049309,15.5623645 C42.378,15.9731806 39.4967726,16.1103391 40.3113604,16.7948129 C40.8109743,17.2161796 41.3763586,16.6589732 42.0026862,16.9319714 Z M52.0699411,15.1918913 C52.8380433,14.7097001 54.2466416,15.4930432 53.9901966,16.0350006 C53.7337515,16.5775382 51.5188309,15.9259128 51.68589,16.3970792 C51.7500013,16.5775382 52.0064463,17.3011151 53.5420342,16.8792704 C55.0782386,16.4574256 56.3586143,16.7585775 57.3819286,17.5419206 C58.4064758,18.3252637 59.3662953,18.6264156 60.0702862,17.8430725 C60.7742771,17.0597294 59.1739615,16.9396168 59.4939014,16.337313 C59.8144577,15.7350092 58.4699706,15.3729306 57.7659797,15.3729306 C57.0619888,15.3729306 56.8061602,14.1683229 56.2297754,14.4091284 C55.654007,14.6505141 55.2699559,15.0717787 55.2699559,14.2884356 C55.2699559,13.5056727 51.9417186,13.444746 51.1095052,13.7464782 C50.2779082,14.0470498 51.301839,15.6735022 52.0699411,15.1918913 Z M53.0917402,20.470002 C53.629595,19.768369 50.9416153,17.5257096 50.8069898,18.5771461 C50.6723642,19.6292579 52.5202289,21.2155292 53.0917402,20.470002 Z M60.8045833,12.1466098 C61.1849036,11.4255451 58.5142911,10.8610578 59.1755358,11.4862116 C59.555333,11.846744 60.4242629,12.8659411 60.8045833,12.1466098 Z M54.2414445,26.3399375 C54.7700446,25.8728552 53.109353,24.880797 52.656371,25.6974885 C52.2026619,26.5147421 53.703392,26.8148889 54.2414445,26.3399375 Z M60.7045947,21.9451395 C60.6426396,22.6105754 59.2200559,21.8117958 58.1066518,21.3457343 C56.9932477,20.8803138 57.6741578,22.2778574 58.5403373,23.0759959 C59.4059211,23.8747755 58.1066518,23.4760268 56.9318884,22.6105754 C55.7565292,21.745124 55.8798436,23.2099806 56.4368435,23.6754011 C56.9938434,24.1414627 56.3135291,24.8062576 55.570664,23.7414319 C54.8283946,22.6772472 54.4578556,21.5451086 53.2824965,21.4790779 C52.107733,21.4124061 52.6426912,22.7080188 53.097227,23.3426831 C53.7155862,24.2074934 54.3345412,24.4075089 55.3240352,25.006273 C56.3141248,25.6056782 57.921978,24.7395858 58.6636517,24.9396012 C59.4053254,25.1396166 57.8588315,26.1377705 58.3544721,26.8032065 C58.8495169,27.4686424 60.2101456,27.0025808 61.2609988,26.935909 C62.3130436,26.8692372 61.8179988,26.2038012 62.436358,25.7377397 C63.055313,25.2716781 61.8179988,25.338991 62.3130436,24.2068524 C62.8074927,23.0759959 60.765954,21.2790625 60.7045947,21.9451395 Z M63.9288424,18.3012048 C64.8789715,18.3012048 65.638221,18.1824482 66.4615037,17.8861275 C67.2847863,17.5898069 66.0181507,17.5898069 66.5877403,16.8789799 C67.1579398,16.1675819 65.1948681,16.1076327 65.0680216,16.3451459 C64.9411751,16.5826592 62.4725469,14.9223501 62.0920074,15.455613 C61.7132974,15.988876 62.9793231,18.3012048 63.9288424,18.3012048 Z M68.5171582,18.4194752 C68.3940851,18.0510808 63.7368345,18.6122465 64.4628472,19.1568552 C65.6912111,20.0775454 68.6408229,18.7878695 68.5171582,18.4194752 Z M67.9377607,27.7421894 C69.0197146,27.6720295 68.4784482,26.1305371 67.2766632,25.0801634 C66.0742993,24.0297898 63.3737564,26.1892285 63.8513444,26.6209813 C64.3908741,27.1114255 66.855228,27.8116746 67.9377607,27.7421894 Z M60.0240709,36.3223892 C61.3860496,37.2462143 60.9525301,35.5830917 62.5005584,35.6442054 C64.0485867,35.7065058 64.1100069,33.1806718 64.358073,32.2568467 C64.6055429,31.3324282 63.1195312,31.3941353 63.4916304,32.0717257 C63.862537,32.7493161 63.4296139,33.4269065 63.3049845,32.6259021 C63.1809514,31.825491 62.0050224,32.5647884 61.5715029,31.948905 C61.1379834,31.3324282 62.9334815,31.2713146 63.3675973,30.4703101 C63.8011168,29.6698991 61.9430058,29.7927197 62.3771216,29.176243 C62.8106411,28.5603596 59.652568,29.23795 60.5810272,29.6075987 C61.5100827,29.9778408 60.6430437,30.4703101 59.7760048,29.8538334 C58.9095621,29.23795 56.5088064,30.2685757 57.3615339,30.9633729 C58.0425232,31.5169559 60.0854912,30.5931308 58.9095621,32.1951397 C57.7330368,33.7971485 57.2375008,31.763784 56.1235883,31.948905 C55.0090795,32.134026 55.5046155,33.4886135 57.1760805,33.9816762 C58.8475456,34.4741456 58.6620923,35.3985641 60.0240709,36.3223892 Z M70.4109845,26.6407276 C70.8594143,27.944606 71.3726105,27.0318283 72.0764047,27.5528775 C72.7808158,28.0745543 73.8695072,28.400367 74.446236,27.8786901 C75.0223481,27.357641 75.2789461,26.9665402 75.4707779,27.4223013 C75.7835068,28.1636977 77.2003476,28.2697908 80.2739732,28.3350789 C83.3475988,28.400367 82.579655,27.0318283 83.4758978,27.5528775 C84.3721406,28.0745543 86.422458,28.0745543 87.318084,27.8786901 C88.2149436,27.6834536 88.6627566,26.2496269 88.5986071,25.5327135 C88.5344576,24.8151723 81.6821785,24.2288351 80.4651881,24.9457485 C79.2481977,25.6626619 77.3267962,24.6193081 76.3664039,25.140985 C75.4053947,25.6626619 75.7261423,24.4893597 73.9965726,24.4234438 C72.2676196,24.3587835 74.1248716,23.4460059 74.4450024,23.0549052 C74.76575,22.6644322 71.8191898,21.6217062 70.6028162,21.8822308 C69.3864426,22.1427553 68.6814147,21.49113 67.5285738,20.9694531 C66.3757329,20.4477762 63.2465934,20.5720747 63.8788362,21.49113 C64.3272661,22.1427553 68.0411532,23.511294 68.4254335,22.8602965 C68.8097138,22.2080434 69.7707229,23.6418702 70.346835,24.3587835 C70.9235638,25.0763247 69.9625547,25.3368492 70.4109845,26.6407276 Z M73.4089601,19.0261208 C72.2060265,18.5153539 70.6973715,19.5953392 71.9389225,19.9902959 C73.0086258,20.3300789 74.6118936,19.5363415 73.4089601,19.0261208 Z M64.3892129,11.8043052 C65.3330462,12.2604042 64.773281,12.8544628 65.7972568,13.286181 C66.8218492,13.7184939 69.7661652,12.7301802 70.022005,13.4098689 C70.2778449,14.0889629 67.013575,14.1508068 67.4617571,14.5831197 C67.9099392,15.0154326 69.7661652,15.6945266 69.5097089,16.0649955 C69.253869,16.4354645 72.5816365,17.4844328 72.9015905,16.9908706 C73.2221609,16.4967138 74.1179086,16.619807 74.9495422,16.9290267 C75.7817923,17.2376517 75.8459064,15.0148379 76.4223167,15.3853069 C76.998727,15.7563705 76.9339964,14.582525 77.8944747,14.2120561 C78.8543365,13.8415871 80.2377211,13.8374245 80.327111,13.4092742 C80.391225,13.1006492 80.0706546,12.6677416 78.9184506,12.7920242 C77.766863,12.9151174 76.9993435,12.4828045 77.5110232,11.8661491 C78.0233193,11.2483044 76.2305909,11.0627726 76.8704988,10.5692104 C77.5110232,10.0750536 75.6547971,9.58149139 75.8459064,10.3218347 C76.0382487,11.0627726 74.6943189,10.3836786 74.5019766,9.70458461 C74.3102508,9.02549062 71.6858888,8.77811488 69.957891,7.29683368 C68.2298931,5.81495784 66.4377812,6.80267685 67.4617571,6.98761401 C68.4863494,7.17314581 68.4216189,7.66730265 67.5899852,7.60545871 C66.7577351,7.54361477 65.2855771,7.66730265 66.6301234,8.16086483 C67.9734368,8.65502166 66.5018953,8.83995881 65.4138053,8.83995881 C64.3250989,8.83995881 64.2616012,10.1987414 65.6696452,10.3836786 C67.0783055,10.5692104 66.0537132,11.3713976 64.9015091,11.0627726 C63.7493051,10.7547422 63.365237,11.310743 64.3892129,11.8043052 Z M71.9034399,5.38555177 C72.796166,4.8115707 73.4973304,5.194634 72.7329261,5.57708342 C71.9672938,5.95891895 72.2220952,6.21429448 73.3063828,6.1504506 C74.3900565,6.0872206 72.8600198,6.46967002 72.8600198,7.10688108 C72.8600198,7.74470603 74.134641,7.36225662 74.1984949,7.99946768 C74.2617348,8.63667875 77.0025387,8.89205428 77.8320249,8.12715545 C78.6602831,7.36225662 78.3416278,8.31807322 78.2783879,8.8282104 C78.214534,9.3377337 82.1667193,9.784027 82.3582809,9.14742982 C82.5498425,8.50960487 83.1232992,8.7649804 83.8883175,8.95589817 C84.6533359,9.14742982 88.4145736,8.25484322 88.4778134,7.48994438 C88.5416673,6.72504555 89.6891948,7.8723938 88.4778134,8.70113652 C87.2664321,9.52987923 84.8442834,9.40280535 83.7606098,9.72141088 C82.6769362,10.0400164 84.4617743,10.8049153 85.5454479,11.633658 C86.6291215,12.4624007 84.143119,12.0161074 83.1232992,10.9319891 C82.1034795,9.84909865 79.8084245,9.84909865 78.5970432,9.91232865 C77.3862759,9.97617253 77.768785,12.2070252 78.6608971,12.2070252 C79.5536231,12.2070252 80.4463491,12.5256307 81.3384612,13.9271267 C82.2311872,15.3298505 84.143733,15.0106311 84.143733,15.6478421 C84.143733,16.2850532 81.6571165,15.1383188 80.2547875,14.8829433 C78.8530726,14.6275678 76.6218715,15.5201544 76.5580177,16.5404287 C76.4941638,17.5600892 78.5976572,17.4330153 79.9999861,16.6042726 C81.402929,15.7761438 80.3831092,16.8596482 79.6813308,17.4968592 C78.9795524,18.1346842 81.3384612,18.6442075 81.3384612,19.4091063 C81.3384612,20.1740051 79.6174769,19.9186296 79.4259154,19.2175747 C79.2343538,18.5165197 78.5970432,17.8154648 76.9399128,17.9425386 C75.2821685,18.0702264 75.7285315,19.2175747 76.7489652,19.3452624 C77.768785,19.4723363 77.8326389,20.2372351 76.6844974,20.2372351 C75.5369699,20.2372351 72.9484329,20.9573205 73.7527458,21.7038028 C74.6448579,22.5325455 77.8958787,21.7038028 78.4699495,22.21394 C79.0434062,22.7240772 80.6372967,22.9149949 81.0191919,22.3416278 C81.402315,21.7676467 82.6769362,22.0230222 83.9515574,22.0230222 C85.2261786,22.0230222 85.5454479,22.21394 86.1189046,22.7240772 C86.6923614,23.2342144 87.7127951,23.0426827 88.4139596,22.5325455 C89.1151241,22.0230222 89.1151241,22.0230222 90.0072361,22.0230222 C90.8993481,22.0230222 91.0909097,21.4490412 90.6451607,20.7486001 C90.1987977,20.0469313 89.0512702,21.2581234 88.9235625,20.7486001 C88.7657698,20.1175279 87.7127951,19.9192435 85.9273431,20.1740051 C84.143119,20.4293807 84.9075233,19.0266569 85.9911969,19.3458763 C87.0748706,19.6644818 88.5410533,19.537408 89.7524347,19.2181885 C90.963816,18.899583 90.0072361,18.3256019 90.0072361,17.8160786 C90.0072361,17.3059415 91.5372727,17.624547 92.6848002,17.624547 C93.8317137,17.624547 95.489458,15.7767577 95.5533119,14.6932533 C95.6171657,13.6091351 93.0034555,13.8645106 91.7288343,13.8645106 C90.4535991,13.8645106 92.5570925,12.9074662 94.9798551,13.0357679 C97.4026178,13.1634556 96.3183302,12.0799513 96.7646932,11.696888 C97.2110562,11.3144386 98.3585837,12.1431813 99.569351,11.8884196 C100.780732,11.6330441 99.9518602,10.6133836 100.780732,10.6133836 C101.368311,10.6133836 102.693278,9.72141088 105.306988,8.2554571 C107.920085,6.7901172 109.960338,7.04426497 110.087432,6.21613613 C110.21514,5.38739342 106.453902,6.21613613 105.815977,5.9607606 C105.178667,5.70599895 108.429688,5.004944 109.19532,5.19647565 C109.959724,5.38739342 110.980158,5.19647565 113.593868,3.92082575 C116.207578,2.64640362 115.060051,2.32779808 113.976991,2.51932973 C112.892704,2.7102475 111.681322,2.3271842 111.74579,1.62674313 C111.80903,0.925074301 110.151286,1.56289925 110.087432,1.18044983 C110.023578,0.797386534 108.493541,0.988918184 106.836411,1.62674313 C105.178667,2.2639542 106.708703,0.988918184 107.410482,0.734156534 C108.111646,0.479394884 103.202881,0.734156534 102.374623,0.160789351 C101.545751,-0.413191716 100.589171,1.11660595 99.8247665,0.351707117 C99.0597482,-0.413191716 97.0839625,0.224633234 97.3387639,0.798000417 C97.5941794,1.37198148 97.0201086,1.37198148 96.2550903,0.734156534 C95.490072,0.0969454674 94.0238892,0.798000417 92.6854142,0.606468767 C91.3469391,0.414937117 91.9197819,1.68997313 90.4542131,1.05276207 C88.9886443,0.414937117 87.3953678,0.733542651 87.8411168,0.925074301 C88.2874798,1.11660595 87.7134091,1.49905537 87.0760985,1.3081376 C86.4381739,1.11660595 85.8647172,1.37198148 86.1833725,2.00857867 C86.5026418,2.64640362 83.8244637,1.8176609 83.8244637,2.51932973 C83.8244637,3.2197708 82.8684978,3.60222022 82.1034795,2.96500915 C81.3384612,2.3271842 78.9163125,2.13626643 79.6174769,2.70963362 C80.3186414,3.28361468 77.4495157,2.96500915 78.214534,3.53837633 C78.9795524,4.11174352 77.2585681,4.55803682 77.2585681,4.23943128 C77.2585681,3.92082575 75.6646777,3.34684468 75.0273671,3.92021187 C74.3900565,4.49419293 74.1991089,5.19586177 73.8798396,4.81279847 C73.5611843,4.43096293 72.1588554,4.55803682 70.8197663,5.06756012 C69.4812913,5.57708342 71.0107139,5.95830507 71.9034399,5.38555177 Z M87.9444482,60.212025 C88.335462,60.1427069 89.1174897,58.3778133 88.1122561,58.447811 C87.1070225,58.5191679 87.3366826,60.3221185 87.9444482,60.212025 Z M82.3932882,58.9020204 C83.5128045,59.5137905 85.192416,57.8621877 85.0522237,57.3734781 C84.9127054,56.8847685 81.0405674,58.1642455 82.3932882,58.9020204 Z M86.8274496,55.2875964 C86.9509405,54.6284605 84.7934109,54.3636632 84.9163082,53.6397567 C85.0397991,52.9133102 82.8822695,52.32085 82.2042566,51.9252415 C81.5262437,51.5289979 80.4783517,51.3315112 80.4783517,50.5409291 C80.4783517,49.7503471 78.9988349,50.3421724 78.9370894,51.5289979 C78.875344,52.7170935 78.2590766,52.4522961 78.5672103,53.5724461 C78.875344,54.6938661 77.2105908,54.9580285 77.3958272,55.5517587 C77.5810637,56.144854 78.3819738,55.4850831 79.1217322,55.4850831 C79.8620843,55.4850831 78.9216531,56.588723 79.8620843,56.6712737 C80.6018426,56.7379493 81.8961229,55.8152861 82.2042566,55.2875964 C82.5123903,54.7592717 83.1292514,54.5617849 83.9919071,55.2209208 C84.8545627,55.8806917 86.7039586,55.9473673 86.8274496,55.2875964 Z M107.491355,49.7793969 C108.249635,49.8422435 108.376218,50.7843375 109.576321,51.7874652 C110.776425,52.7905929 110.903008,52.1016979 111.092274,51.4115944 C111.282148,50.7202824 112.608226,51.285297 112.545543,50.5951935 C112.482251,49.90509 113.620281,49.0898977 114.377952,48.7762693 C115.136233,48.4620365 113.746255,47.7090864 112.735417,47.7713287 C111.723971,47.8347796 111.534705,47.1440718 111.534705,46.7047502 C111.534705,46.2660329 109.639004,45.1994544 109.007307,45.387994 C108.375609,45.5759294 107.30148,44.5721974 106.479908,44.5093509 C105.658336,44.4471086 104.457624,43.8192474 104.584207,42.9406042 C104.71079,42.0625654 106.226742,43.1919904 106.542591,42.5012826 C106.85844,41.8117834 104.962739,42.1882585 104.899447,41.685486 C104.836156,41.1839222 105.342488,41.3718576 105.721019,41.0582291 C106.10016,40.7446006 105.405171,40.1167394 104.962739,39.8665618 C104.520307,39.6157798 104.393724,40.3681256 103.951293,40.3681256 C103.50947,40.3681256 103.888001,39.6780221 104.204459,39.2387005 C104.520307,38.7999832 102.751189,38.2978151 101.992909,38.548597 C101.234628,38.7999832 100.981463,38.3606616 100.981463,37.8584935 C100.981463,37.3563254 99.6547762,37.8584935 99.149053,38.2349685 C98.6433299,38.6120479 98.0116325,37.8584935 98.6433299,37.795647 C99.2750274,37.7328004 100.033308,37.2312366 99.844042,36.6662219 C99.6541676,36.1018115 98.0116325,36.0389649 97.6957837,36.7290684 C97.379935,37.4197762 96.0532486,35.9755141 96.0532486,35.411708 C96.0532486,34.8466933 94.0309647,35.3488614 94.2841305,34.407976 C94.5372964,33.4664863 91.9466064,33.2157044 91.2516175,33.2157044 C90.55602,33.2157044 89.5457909,33.7801148 89.6717653,34.407976 C89.7977396,35.035233 88.9134849,34.7838468 88.7869019,34.0943475 C88.660319,33.4042441 86.9544924,34.8472976 86.4493779,34.8472976 C85.9442633,34.8472976 86.7652266,33.027769 86.5126693,32.4627543 C86.2601121,31.8983439 85.8809719,31.7098043 85.5018317,30.7695232 C85.1226915,29.8280335 83.2269905,30.2045085 82.7218759,30.7695232 C82.2167614,31.3339336 80.5736177,31.0831516 79.6893629,31.9611905 C78.8044996,32.8398337 79.7520458,33.7178725 80.1317946,34.031501 C80.5109348,34.3445252 78.8051082,34.8472976 79.3735142,35.3488614 C79.9419202,35.8504253 80.8267835,35.5996434 80.890075,36.41544 C80.9533664,37.2312366 78.8051082,36.1640538 78.4892594,35.4739503 C78.1734107,34.7832425 78.6152338,34.1565898 78.1734107,33.6544217 C77.730979,33.1528578 78.1101192,32.5256009 78.9316911,31.6469577 C79.7532629,30.7689189 80.3849604,30.8940077 80.3849604,30.3918396 C80.3849604,29.8902757 76.8467243,29.8902757 74.7617575,31.7720465 C72.6761821,33.6544217 73.3084882,36.164658 73.4350711,36.6662219 C73.561654,37.1677857 75.3940635,36.9170038 76.4675841,37.2312366 C77.5423218,37.544865 76.9733072,37.9841866 76.1517354,37.8584935 C75.3301635,37.7328004 73.9401856,37.4820185 74.0034771,38.0470332 C74.0667686,38.6120479 75.7725952,39.6780221 76.7840414,39.4272402 C77.7948791,39.1764583 77.7948791,39.1764583 78.2373107,39.7408686 C78.6797424,40.3058833 79.8798459,40.1173437 81.0805579,40.1807945 C82.28127,40.2430368 83.6712478,40.6817541 84.2396539,40.7446006 C84.8080599,40.8074472 85.5030488,40.4309721 85.6929232,40.1167394 C85.882189,39.8031109 88.2203216,40.6195118 88.914702,40.556061 C89.6102995,40.4938187 89.1678679,39.8665618 88.7254362,39.6780221 C88.2830045,39.4894824 88.4722703,38.6742901 89.0412849,38.9879186 C89.6102995,39.3015471 90.5572371,39.4894824 90.7471115,40.0544971 C90.908383,40.5343064 91.4414919,40.305279 91.5060005,40.7446006 C91.569292,41.1845265 93.5903587,41.685486 93.6536502,42.1882585 C93.7169416,42.6898223 91.6952663,42.9406042 92.2642809,43.3799258 C92.8326869,43.8192474 93.7169416,42.8143068 94.4758306,42.7526689 C95.234111,42.6898223 95.234111,44.3830535 95.802517,44.1334801 C96.5772288,43.7908456 97.1931035,44.4471086 97.9501667,45.5130828 C98.7084471,46.5802657 97.8874838,47.5839976 97.9501667,47.9598684 C98.0134582,48.3363434 99.4667275,48.2106503 100.288299,47.7713287 C101.109871,47.3320071 101.868152,48.2734968 102.499241,48.8379072 C103.131547,49.4035262 100.161108,50.3438073 100.414274,49.8422435 C100.666831,49.3400754 98.6451556,47.8353838 96.8127461,48.5242788 C94.9803366,49.2149866 96.2437315,50.2821694 96.4342145,50.9094263 C96.6228717,51.5366833 94.7910708,52.1633359 93.0846356,51.5995298 C91.378809,51.0339108 91.8839235,51.9747963 91.1895432,51.9747963 C90.4945543,51.9747963 89.7362739,53.0413748 90.3679713,53.7326869 C90.9990602,54.4215818 92.3896467,53.7955334 93.5270673,53.8577757 C94.6644879,53.9206222 94.7910708,54.2342507 94.9170451,53.6069938 C95.0436281,52.9791325 96.2437315,53.292761 97.0646948,53.4813006 C97.8868752,53.6686317 97.6970009,54.7980568 98.70723,54.9243542 C99.7186762,55.0488387 98.8977129,56.0537793 99.5294104,56.7444871 C100.160499,57.4339863 102.182783,57.0575112 102.940455,57.8110656 C103.698735,58.5628071 106.913211,60.0638728 107.364163,59.5042968 C107.869278,58.8776441 104.584207,55.9903284 103.636053,55.7401508 C102.688506,55.4893689 104.584207,55.1763447 105.784311,56.1172301 C106.985023,57.0581155 108.753532,57.4980414 109.638396,56.368012 C110.523259,55.238587 108.880724,55.5528197 108.880724,54.7370231 C108.880724,53.9212265 108.311101,52.7918014 107.426846,52.7918014 C106.542591,52.7918014 104.268359,51.0351194 105.089322,50.659853 C105.910894,50.2827737 104.836156,49.7800012 105.469071,49.090502 C106.101377,48.3991899 106.732466,49.7165504 107.491355,49.7793969 Z M94.5744664,46.7839056 C95.3159195,46.6494012 95.1784591,45.4071756 94.7595322,44.7695731 C94.4500975,44.2994544 93.6473525,44.2315556 92.9677864,44.2994544 C92.2882202,44.3660599 91.1147487,45.5074073 91.7318328,46.6487546 C92.3501071,47.7907485 93.8330133,46.9177633 94.5744664,46.7839056 Z M86.3154861,30.4005862 C85.9375651,31.1954503 87.1344158,31.1954503 87.1968971,32.1134622 C87.259985,33.030885 88.4568357,33.3366926 89.3388533,32.7857675 C90.2202644,32.2354317 92.7395349,32.949572 92.7395349,32.2354317 C92.7395349,31.5625372 90.0940885,30.3387177 89.1495896,30.5219665 C88.2050906,30.7063938 86.693407,29.605133 86.3154861,30.4005862 Z M109.871988,83.9420223 C110.005432,84.5004898 113.868887,86.1698586 114.001689,85.4055693 C114.134491,84.6392687 109.75715,83.4646767 109.871988,83.9420223 Z M126.257722,88.0705876 C126.003907,88.5476206 125.621958,87.7237684 126.17373,87.2905574 C126.724889,86.8579724 126.087899,86.6851888 125.579042,86.9449902 C125.069573,87.2029135 125.19648,85.7743188 125.66426,85.5145174 C126.131427,85.25409 124.518414,84.7338612 124.518414,85.2102681 C124.518414,85.6891791 123.371954,85.3836777 123.245047,84.9504667 C123.118139,84.5178817 122.312552,84.38892 122.60867,84.0846707 C122.9054,83.7822994 121.632646,83.6076378 121.505126,84.1272406 C121.378218,84.6468434 120.996269,83.7810474 121.632646,83.0874089 C122.269636,82.3937705 122.056898,81.7890279 122.650972,81.4403306 C123.245047,81.0935114 122.60867,80.7047484 121.972292,80.9639237 C121.334689,81.2243512 119.638297,83.6076378 119.638297,84.2580803 C119.638297,84.9078968 119.594768,85.6885531 119.001307,85.6434791 C118.406619,85.6015353 117.72794,86.164334 118.194494,86.5111532 C118.661047,86.8579724 116.962203,87.8420876 117.770242,88.2884452 C118.322014,88.5908165 119.213432,88.1582315 119.97733,88.2446233 C120.740615,88.3316411 121.378218,88.374211 122.013982,87.8984301 C122.650359,87.4207711 122.650359,88.330389 123.329652,88.2446233 C124.008944,88.1582315 122.947703,88.808048 122.990005,89.2838289 C123.032921,89.7614878 123.7116,89.0240275 124.22107,88.7642261 C124.729926,88.5050507 125.366303,88.7642261 125.111875,89.1980631 C124.857447,89.6300221 126.512763,90.0644851 126.894712,89.3708467 C127.277274,88.6778343 126.513376,87.5954328 126.257722,88.0705876 Z M12.0702193,76.3825203 C11.0068356,77.0176222 13.5625978,80.0455378 14.0962811,79.6660101 C14.4615525,79.4040465 13.4647369,78.1357594 13.4647369,77.3537023 C13.4647369,76.5697284 13.1330341,75.7486962 12.0702193,76.3825203 Z M116.192483,90.9220241 C115.748784,90.9862803 116.097884,90.2868054 116.160137,89.9379859 C116.22422,89.5885545 115.209875,90.0964846 115.17936,90.5095603 C115.147623,90.922636 114.450643,91.0817467 114.450643,91.3357118 C114.450643,92.0774122 114.354823,91.6851432 113.848261,91.9391083 C113.341089,92.1924614 111.376483,91.9391083 111.314231,91.4935985 C111.250758,91.0493126 109.824451,90.8277816 109.761588,90.2225492 C109.698116,89.6203766 109.000525,89.4294438 109.57056,88.762403 C110.141815,88.0941383 109.475961,87.776529 108.937663,88.2850711 C108.398754,88.7936132 108.082,87.9998959 108.810717,87.7141087 C109.540044,87.4277095 110.902268,87.1419223 110.205288,85.870873 C109.508308,84.6016596 105.136007,86.2521266 104.027064,86.8867333 C102.91812,87.5225639 101.523549,89.5561204 100.921778,89.5561204 C100.320007,89.5561204 101.967249,88.4753919 102.22053,88.0629282 C102.474421,87.6492405 102.157057,87.2361648 102.505547,87.3958874 C102.854647,87.554386 103.836035,86.0299837 104.501889,85.5208296 C105.166523,85.0135114 105.89585,85.4908434 105.990449,85.0765437 C106.086268,84.663468 106.402412,84.3776808 107.035919,83.8061064 C107.669427,83.2333081 115.241612,83.3293864 115.970329,83.3605966 C116.699045,83.3924187 118.125353,82.4077686 118.536705,81.771938 C118.949279,81.1367193 119.487577,81.1367193 120.501311,81.2003636 C121.515045,81.2633959 121.990481,80.3436139 122.497043,79.9929585 C123.003605,79.6435271 122.813797,79.4844164 122.370708,79.390174 C121.926398,79.2940956 121.515045,79.0083084 121.958134,78.9764863 C122.402444,78.9452761 122.623378,78.6900871 122.813186,78.1191247 C123.002995,77.5463264 122.655115,77.8009034 122.052733,77.0065741 C121.451572,76.2134687 121.134208,77.2617631 120.532437,77.1975069 C119.930056,77.1344746 120.94379,76.3725794 120.436618,76.0543581 C119.930056,75.7361368 118.979184,75.9595037 118.218731,76.5947223 C117.458888,77.229941 117.521751,76.5622882 116.856507,77.1975069 C116.191263,77.8327255 116.191263,76.8805095 116.508627,76.6265444 C116.825991,76.3725794 117.047535,76.6577546 117.332553,76.277113 C117.61818,75.8952474 117.903198,76.277113 118.631304,75.799781 C119.360021,75.324897 119.993529,75.5464279 120.215683,75.1969965 C120.436618,74.847565 119.865973,74.370845 119.169603,74.5299557 C118.472622,74.6896783 117.997797,73.5765157 117.554097,73.8941251 C117.109788,74.2123464 117.205607,73.4180171 116.698435,73.7356264 C116.191263,74.0532357 115.906856,73.640772 115.684701,73.0355395 C115.462546,72.4333669 114.100322,71.4474929 113.277006,71.1935278 C112.45308,70.9383388 112.991989,70.4946649 113.435078,70.8116623 C113.879387,71.1298836 114.385949,70.4940529 114.576368,70.1758316 C114.766176,69.8576104 114.259614,69.5730471 114.005723,69.541225 C113.752442,69.5081789 113.752442,69.0944912 113.815304,68.7774939 C113.879387,68.4592726 112.928516,68.0455849 112.896169,67.7291995 C112.864433,67.4103662 112.326134,67.1888352 112.358481,66.9024361 C112.390218,66.6166489 111.820183,66.2041851 111.820183,65.8235435 C111.820183,65.4416779 110.869311,64.6791708 110.837575,64.2348849 C110.806449,63.7893751 110.299276,63.4723777 110.108858,62.9320135 C109.91844,62.3916492 109.665159,62.6462263 109.47474,63.4075095 C109.284932,64.1706287 108.619688,64.1394185 108.809496,64.3927716 C109.199488,64.9153889 108.904705,64.9325239 108.619688,65.2507452 C108.334671,65.5689665 108.809496,66.0450745 108.334671,66.0450745 C107.859235,66.0450745 108.080779,67.0297246 107.827499,66.5854387 C107.574218,66.1405409 106.972446,66.2666055 106.972446,66.7121153 C106.972446,67.1564011 105.958712,67.5694769 105.546749,67.5382667 C105.134786,67.5058326 105.134786,66.648471 104.786296,66.9018241 C104.437806,67.1557892 104.501279,66.171751 103.96237,66.2035732 C103.424072,66.2347833 103.043845,66.171751 103.201917,65.6950311 C103.360599,65.218923 102.282782,64.9967801 102.631882,64.7103809 C102.979762,64.4245937 102.536673,63.9172756 102.4732,63.0911241 C102.409727,62.2649727 102.948636,62.2019404 102.948636,61.8843311 C102.948636,61.5673337 102.567799,61.5673337 102.188183,61.8212988 C101.807956,62.0740399 101.807956,61.4712553 101.395993,61.5024655 C100.984641,61.5336757 99.7487517,61.4712553 99.6852789,60.898457 C99.6218061,60.3268826 99.2098431,60.6132818 99.0200349,60.0729176 C98.8296165,59.5337772 98.3230546,59.945629 98.3230546,59.5649874 C98.3230546,59.1831219 98.1008997,59.0246232 97.7206731,58.9921891 C97.3404466,58.960367 97.2141112,58.5485152 96.706939,58.4842589 C96.2003771,58.4206147 95.5662593,58.8343024 95.2812419,58.960367 C94.9962246,59.0876555 94.2668975,58.5160811 93.9824904,58.738224 C93.6974731,58.960367 93.6340003,58.5797253 92.8418107,58.3569704 C92.0496211,58.1342155 91.0035403,58.0705713 90.9406778,58.3569704 C90.877205,58.6427576 90.2430871,58.738224 90.3382963,59.4046528 C90.4335056,60.0716936 91.0993598,59.9444051 91.2574315,60.3899149 C91.4161136,60.8342008 90.9406778,60.6757021 90.9089414,61.0887778 C90.877205,61.5018536 90.465242,61.4706434 90.465242,61.7558186 C90.465242,62.0428297 90.7508696,61.9785735 90.9089414,62.5507599 C91.0676234,63.1217223 91.3843772,63.0905122 91.4795864,63.8524074 C91.5747956,64.6149145 91.2256951,64.4558039 90.9089414,64.5518823 C90.5921876,64.6467367 90.9406778,65.0273783 90.4969784,65.5359204 C90.053279,66.0450745 89.6730524,66.5848267 90.0215426,66.9018241 C90.3706431,67.2206574 91.6687842,67.7597977 92.1765668,68.6183832 C92.683739,69.4763568 92.6520026,70.8110503 92.4939308,71.7644903 C92.3352488,72.7179302 91.2580419,72.9394612 90.4658523,73.7656126 C89.674273,74.592376 88.850347,74.4650875 88.4701205,74.4962977 C88.0898939,74.5287318 88.3114384,75.2912389 88.850347,75.8940235 C89.3892557,76.498032 88.9461666,76.6877408 89.2311839,77.3235715 C89.5162013,77.9587901 89.2311839,78.4667203 89.6425366,79.0389066 C90.0544996,79.611705 89.8006083,79.8338479 89.3257829,80.2469236 C88.850347,80.6606113 89.5162013,80.4384684 89.5473274,80.9776087 C89.5790638,81.5179729 89.3257829,81.1997516 88.9138199,80.9139644 C88.5024672,80.6281772 88.1216303,81.4531047 88.1216303,81.8031481 C88.1216303,82.1525796 87.1396326,81.3270401 86.9174777,81.3576383 C86.6959332,81.3900724 86.9809505,80.8172741 86.4103055,80.3729882 C85.8396605,79.9287023 85.3959611,79.8332359 85.3959611,79.389562 C85.3959611,78.9446642 84.4139634,78.6264429 84.4139634,78.1185127 C84.4139634,77.6099706 84.540909,76.3077112 84.3193645,75.9258456 C84.0978199,75.545204 84.287628,75.1321283 84.4780465,74.7826968 C84.6678546,74.4326534 84.256502,73.8929011 83.6858569,73.8929011 C83.1152119,73.8929011 82.3242429,73.7019684 81.5314431,73.7656126 C80.7392535,73.8292569 80.2955541,73.7019684 80.0422731,73.4792135 C79.7889922,73.2576825 79.0602754,72.7809625 78.0776674,72.5263855 C77.0956697,72.2724204 76.6519703,71.7644903 76.5567611,71.4787031 C76.4615518,71.1923039 75.4795541,70.970161 75.2580096,70.6837618 C75.036465,70.3973626 74.0855934,70.2394759 73.7059772,70.3025082 C73.3251403,70.3661525 72.374879,69.5075669 71.8054546,69.540613 C71.2341992,69.5718232 69.9043216,70.1440095 69.6821668,70.1752197 C69.4600119,70.2076538 69.7139032,69.6997236 69.8719749,69.4763568 C70.030657,69.2536019 69.3965391,68.3007739 69.2384674,67.6649433 C69.0797853,67.0297246 68.8582408,66.3308617 68.1929969,66.4257161 C67.5277529,66.5205705 66.7990362,66.171751 66.609228,66.0450745 C66.4188096,65.917174 66.3876835,64.1069844 66.5457552,63.3450892 C66.7038269,62.5819701 67.5277529,61.4375973 67.5277529,60.9621013 C67.5277529,60.4859933 68.0666615,60.2626264 68.5420974,60.1365618 C69.0169228,60.0092733 68.6366963,59.0876555 69.1121321,59.0246232 C69.5875679,58.960367 69.618694,58.7700461 69.7145135,58.3894045 C69.8097227,58.006927 70.3803678,58.262116 70.0630037,57.9445067 C69.7462499,57.6268973 69.9995309,57.530819 70.7282476,57.530819 C71.4569644,57.530819 72.5341713,57.276242 72.3760996,56.5461689 C72.2174176,55.8167078 70.3162846,56.3558481 70.3162846,55.7518396 C70.3162846,55.1478311 67.9085898,55.1166209 68.0666615,54.7678014 C68.2253436,54.41837 70.4749667,55.0217665 71.2982823,55.3387638 C72.1222083,55.6575971 72.3443632,55.625163 73.0089968,55.5933409 C73.6748511,55.5615188 73.2311517,54.7041572 73.357487,54.3547257 C73.4844326,54.0052942 74.7514477,54.893866 75.4801644,54.7041572 C76.2088812,54.5126124 76.9064719,53.0200322 77.508243,52.6081804 C78.1106244,52.1944927 77.5717158,51.8132391 76.3992997,51.9087055 C75.2274938,52.0035599 74.5622499,51.559274 73.9287423,51.0819421 C73.2946245,50.6058341 73.3580973,50.2245805 74.0233412,50.2882247 C74.6885852,50.3506451 76.2729643,51.6547404 76.8747355,51.6853386 C77.4765066,51.7177727 78.5219771,50.5103677 79.028539,50.1285021 C79.5363215,49.7472485 78.5543238,49.5881379 78.2052233,49.3029627 C77.8567332,49.0171755 78.8063842,48.8262427 79.3141667,48.8262427 C79.8207286,48.8262427 80.0422731,49.2711405 80.2326916,49.4926715 C80.4224997,49.7154264 81.3098985,49.3347848 81.7535979,49.3347848 C82.1972973,49.3347848 81.6901251,48.6034878 80.9614083,48.3177006 C80.2333019,48.0319134 80.9931447,47.4921611 81.2152996,47.937059 C81.4368441,48.3819568 81.943406,48.2858785 82.1972973,48.7950325 C82.5659279,49.535509 82.7990684,49.0483856 83.432576,48.8262427 C84.0666938,48.6040997 84.3834476,48.2222342 84.7319378,47.8422045 C85.0804279,47.4609509 85.1439008,47.9046249 85.5552534,47.3018403 C85.9672164,46.6972198 85.3654453,46.1262574 84.8582731,45.7443919 C84.3511009,45.3637502 84.8900095,44.9824966 84.3828373,44.7291435 C83.8762754,44.4739545 83.7810661,43.9972346 84.4145737,44.1245231 C85.0480812,44.2518116 85.5552534,44.0608788 85.8402708,43.6165929 C86.1252881,43.1716951 84.8893992,43.0762287 85.4600442,42.7580074 C86.0300789,42.4403981 85.5546431,42.1240127 84.9846084,42.1240127 C84.4139634,42.1240127 83.9385276,41.8382255 83.9067911,41.3608935 C83.8756651,40.8841736 82.893057,41.2023949 82.2912859,40.9153837 C81.6895148,40.6302085 80.3584166,40.6932408 80.0416628,40.7250629 C79.7242987,40.756885 79.6931726,42.0597565 80.1679981,42.0915786 C80.6434339,42.1234007 81.0236605,42.6313309 80.6116975,42.7910535 C80.2003449,42.9495522 80.6757807,43.4568703 80.3584166,43.4250482 C80.0416628,43.39445 79.5351009,43.2347274 79.4398917,44.0602669 C79.3446825,44.8870303 79.2812096,45.2046396 78.742301,45.4904268 C78.2040027,45.7774379 78.6159657,44.5700329 78.1094038,44.6012431 C77.6016213,44.6330652 77.5387588,45.6183273 77.9189854,45.7125697 C78.2992119,45.8080361 78.3626848,46.1256454 78.4572837,46.6023654 C78.5524929,47.0784734 77.7603033,46.7296539 77.4435495,47.3018403 C77.1267958,47.8728027 77.0950594,47.0472633 76.65136,46.6660097 C76.2082709,46.2841441 75.6693623,45.6483135 75.7010987,45.1728175 C75.7291732,44.755458 75.9549899,44.6012431 76.3028698,44.5369868 C76.65136,44.4733426 76.3028698,44.1557332 76.2717437,43.5835469 C76.2400073,43.0119725 75.8280443,43.2022933 75.3208721,42.5988968 C74.8143102,41.9955002 74.2754016,41.9955002 73.9903842,42.2812874 C73.7053668,42.5670746 73.8957853,43.1074389 73.4520859,43.2977597 C73.0077762,43.4886925 73.1981946,44.3778762 72.817968,44.4409085 C72.4371311,44.5045527 72.659286,42.884684 72.3431426,42.7261853 C72.0263888,42.5664627 72.0575149,42.185821 72.5329507,42.1227888 C73.0083865,42.0591445 73.2934039,41.5506024 72.8814409,41.5506024 C72.4700882,41.5506024 71.7407611,41.1057045 71.4557438,40.978416 C71.1707264,40.8511275 70.6959009,41.5187803 70.3791471,41.2642032 C70.0617831,41.0102382 70.4102732,40.3750195 70.4420096,40.025588 C70.473746,39.6767685 70.9491819,40.1853106 71.2665459,39.7398008 C71.5832997,39.294903 70.3791471,39.294903 70.3791471,38.818183 C70.3791471,38.341463 69.4282755,38.2147865 69.1109114,38.0556758 C68.7941577,37.8965652 69.332456,37.1028479 69.1743843,36.7846266 C69.0163125,36.4670172 67.8438964,35.4193348 67.3373345,35.5141892 C66.8301623,35.6090437 66.7032166,34.8465365 66.988234,34.8783586 C67.2732513,34.9101807 67.4954062,34.7198599 68.0343148,34.1158514 C68.5720028,33.5124549 68.6354756,33.3215221 68.2552491,33.1948456 C67.8756328,33.0675571 67.6852143,32.6863035 68.3504583,32.7181256 C69.0157022,32.7505597 70.1881184,33.1948456 70.5677346,32.9090584 C70.9485715,32.6232712 72.1521138,30.7488254 72.6275496,30.0817846 C73.1023751,29.4147438 72.2796697,29.3510995 71.13899,29.445954 C69.9983102,29.5414204 69.744419,29.0010561 68.7941577,28.9374119 C67.8438964,28.8743796 66.0697091,29.1283446 65.8158178,29.4141318 C65.5625369,29.699919 66.2912536,29.9538841 66.1966547,30.2714934 C66.1014455,30.5891028 65.5314108,30.0493505 65.2781298,30.176027 C65.0242386,30.3033156 65.3727287,30.7163913 65.2781298,31.827718 C65.1829206,32.9396566 65.4996744,33.0033008 65.8164281,33.4163766 C66.1331819,33.8294523 66.0703194,34.3698165 66.0703194,35.0680675 C66.0703194,35.7675423 65.4050755,35.7357202 65.1835309,35.8948309 C64.9619864,36.0533295 65.754176,36.3072946 65.6272303,36.7521925 C65.5002847,37.1977023 64.8350407,36.4982274 64.4548142,36.6249039 C64.0745876,36.7521925 63.7578338,37.832309 64.1697968,38.1817404 C64.5817598,38.5317839 64.7404418,38.4681396 64.4236881,38.8812153 C64.1069343,39.294291 63.7584441,39.8976876 64.5188973,40.5010841 C65.2793505,41.1050926 66.6727008,41.0414483 67.4020279,41.5181683 C68.1307447,41.9942763 67.0852742,41.7084891 67.3696812,42.2482414 C67.6553089,42.7892176 66.8948557,42.9789264 66.9259818,43.3926141 C66.9577182,43.8044659 67.2433459,43.5829349 67.6235725,42.88346 C68.003799,42.1845971 68.2888164,43.0743928 68.25708,43.6784013 C68.2259539,44.2817978 67.6870453,43.9323664 67.2750823,44.5357629 C66.8637296,45.1391594 66.4828927,45.2334019 65.8811216,45.1073373 C65.2793505,44.9806608 65.6278406,45.9653109 65.8811216,46.5056751 C66.1344025,47.0454274 65.8176488,47.2351362 65.1206684,47.0454274 C64.4236881,46.8551066 64.0117251,46.4095968 64.3596049,45.8704564 C64.7080951,45.3294802 64.9619864,44.6942616 64.5500234,44.7579058 C64.1380604,44.8221621 63.1877991,44.7273076 62.9021714,44.2817978 C62.6171541,43.836288 63.0932002,44.0272208 63.9476419,44.1226872 C64.802694,44.2181536 64.0745876,43.5511128 64.7080951,43.5511128 C65.342213,43.5511128 65.8170385,43.9005442 66.3559471,43.4238243 C66.8942454,42.9483282 66.0074569,42.0260984 65.5637575,42.185821 C65.1200581,42.3449317 64.4230778,42.5346405 64.4230778,42.0909666 C64.4230778,41.6454568 65.1835309,41.9636781 65.5948836,41.8675998 C66.0068466,41.7727453 65.3733391,41.2017829 64.7398315,41.3596696 C64.1057137,41.5187803 63.6620143,41.5506024 63.1554524,41.0096262 C62.6488905,40.469262 61.7297553,40.1522646 61.5082107,41.3908798 C61.2860559,42.6301069 60.3992674,41.9630661 60.0507772,42.3761419 C59.702287,42.7898295 60.4627402,43.0750048 61.3184026,43.1068269 C62.1734547,43.138649 62.8069622,43.9329783 62.3962198,43.9329783 C61.9842568,43.9329783 62.174065,44.5363749 61.7303656,44.3142319 C61.2866662,44.092089 60.8429668,44.3142319 61.1597205,44.6948736 C61.4770846,45.0773511 61.0333852,45.2340139 61.0645113,45.6171033 C61.0962477,45.9983569 60.3992674,45.6477015 59.7340234,45.5846692 C59.0687795,45.521025 57.8328905,45.7431679 56.946102,45.9341007 C56.0580929,46.1250335 55.0767055,45.8074242 54.696479,45.3937365 C54.3156421,44.9818847 53.8090802,45.044917 53.1755726,45.044917 C52.5414548,45.044917 52.7318732,44.4409085 51.9079472,44.4096983 C51.0840213,44.3778762 51.2738294,43.6790133 51.1792305,43.2659376 C51.0840213,42.8528618 49.4367796,42.9801504 48.8350085,43.360792 C48.2332374,43.7426575 47.0608212,43.5835469 46.7434571,44.2824098 C46.4267033,44.9818847 47.0284745,44.8858063 47.377575,44.8858063 C47.8621655,44.8858063 47.8212744,44.3142319 48.7086732,44.4402965 C49.5954616,44.568197 50.2289692,43.5192907 50.6091958,43.9005442 C50.9894223,44.2817978 49.0882894,45.011259 48.2649738,45.1391594 C47.4410478,45.266448 47.6314662,45.9328768 48.4230455,47.1090716 C49.2152351,48.2840426 48.0745553,47.6170018 48.0745553,48.1891881 C48.0745553,48.7601506 46.5847751,47.9982554 47.1877668,47.8073226 C47.789538,47.6163898 47.5039103,47.0129933 47.0284745,46.6323517 C46.553649,46.2510981 46.2368952,46.6323517 46.300368,46.2198879 C46.3638408,45.8068122 45.7931958,46.2510981 45.3494964,45.9022786 C44.905797,45.5522352 44.6836422,45.266448 44.0824813,45.5840573 C43.4800999,45.9022786 42.7831196,45.8068122 41.4526317,46.0289551 C40.1215335,46.25171 37.6827126,46.1874538 37.2390132,45.7431679 C36.7953138,45.298882 38.3796929,44.5045527 38.8545184,44.6324532 C39.3153066,44.754846 39.0449369,44.1232992 38.3162201,43.5517248 C37.586893,42.9801504 35.9707775,42.6307189 36.0031242,42.9801504 C36.0348606,43.3295818 35.083989,43.0119725 33.9121831,42.7898295 C32.739767,42.5664627 32.5810849,42.152775 31.8206318,42.1227888 C31.0858119,42.0909666 29.9201092,41.8675998 29.0327104,41.1693488 C28.1453116,40.469262 26.0543705,40.6601947 25.8010896,41.2960254 C25.5478086,41.931856 24.850218,41.8994219 24.1532376,41.8994219 C23.4562573,41.8994219 24.4681604,41.114272 24.2167104,40.978416 C23.8828678,40.7991106 24.2484468,39.9301216 23.7412746,39.8670894 C23.2347127,39.8028331 22.7592769,41.9636781 21.8084053,41.8994219 C20.858144,41.8370016 20.446181,39.6131243 19.6539914,39.0409379 C18.8624122,38.4693635 18.1330851,38.4369294 18.798329,39.295515 C19.463573,40.1534885 18.2282943,39.54948 18.2917671,40.1216664 C18.35524,40.6932408 17.2151705,41.3608935 17.2462966,41.0432842 C17.278033,40.7250629 16.6121788,40.3756315 15.8523359,41.2648152 C15.0924931,42.1539989 14.5529741,42.0273224 14.4901116,41.710325 C14.4266388,41.3921037 12.177626,42.5358645 12.2722249,42.91773 C12.3674342,43.2989836 11.9237348,43.5847708 11.3219636,43.5529487 C10.7201925,43.5211266 11.195018,43.0131964 11.6698435,42.7580074 C12.2044799,42.4734441 13.6661856,41.2972493 14.4266388,41.1705727 C15.187092,41.0432842 16.6451358,40.4398877 16.6762619,40.0904562 C16.7086086,39.7404128 15.9481555,40.0262 15.4409832,39.9307336 C14.9344213,39.8352672 14.0470225,40.4074536 13.1913601,40.7887072 C12.3363081,41.1705727 11.3537,41.0432842 11.6075913,41.5512144 C11.8608723,42.0597565 10.8154017,41.4869581 10.5932469,41.8376135 C10.3717023,42.186433 9.95973934,41.8051794 10.2764931,41.6142466 C10.5932469,41.4239258 9.51603994,41.0751063 9.51603994,41.2966373 C9.51603994,41.5193922 9.32562149,41.8051794 8.56516833,41.8051794 C7.80532548,41.8051794 7.044262,42.3455437 7.55143421,42.7267972 C8.05860643,43.1074389 8.37536019,43.2983716 8.12146893,43.5523367 C7.86818798,43.8063018 7.07660872,42.8852959 5.96705506,42.9807623 C4.85811172,43.0756167 2.64022504,41.7421471 2.64022504,41.4245378 C2.64022504,41.1669009 1.08086883,41.3266236 0,41.2103504 L0,63.1676196 C0,63.1676196 0.548673673,63.5776355 0.759842851,63.3230585 C0.971622344,63.0690934 1.35184893,63.4081215 2.06958001,63.0690934 C2.78731108,62.7300654 3.04059203,63.450959 3.04059203,63.7881512 C3.04059203,64.1277912 4.05432615,64.6791708 4.47666451,65.2287145 C4.89961318,65.7788701 5.11078236,66.2451867 5.57523248,65.9483842 C6.03968261,65.6528055 6.88496964,65.4826795 6.88496964,64.930688 C6.88496964,64.3817563 8.82821433,64.2966933 8.82821433,65.0169749 C8.82821433,65.7366446 10.8135708,66.5842148 11.9121388,68.5314843 C13.0107067,70.4812017 12.841039,70.9040688 14.4467792,71.5392875 C16.0519091,72.1757301 16.0104076,72.5141462 15.7986281,73.0655258 C15.587459,73.6138455 16.7702505,73.912484 16.0946312,74.3775766 C15.8352471,74.5562701 15.471499,74.8163549 15.1199573,75.068484 C15.1510834,75.3481516 15.4025334,75.528069 15.72478,75.7967212 C16.1050065,76.1149425 15.0271893,76.1149425 15.3445534,76.4001178 C15.6613071,76.685905 15.2810806,77.1314148 15.5978343,77.4808462 C15.9145881,77.8296657 16.4852331,77.7029892 16.833113,77.417202 C17.1816032,77.1314148 17.4354944,77.7672454 17.1498668,78.2427414 C16.8654597,78.7200734 17.4672308,79.0701168 17.7522482,78.7200734 C18.0366552,78.369418 18.6390367,79.2916478 18.924054,79.4501465 C19.2096817,79.6092571 19.4946991,80.0853651 19.0192633,80.0853651 C18.5438275,80.0853651 18.6079106,80.9121285 18.9557904,80.9427267 C19.3048909,80.9751608 19.2725442,81.4194467 19.2725442,81.7052339 C19.2725442,81.9904091 20.3814876,82.4047088 20.7940609,82.2780322 C21.2060239,82.1507437 21.5856401,82.5313853 21.7760586,82.8814287 C21.966477,83.2296363 22.7263199,83.4842133 23.0119475,83.2620704 C23.2969649,83.0399274 23.486773,83.6745341 23.5502459,84.11882 C23.6137187,84.5643298 24.2472262,84.3097528 24.6274528,84.2791546 C25.0076794,84.2461085 25.2292239,84.7864728 25.4831152,84.6916183 C26.0409436,84.4817147 26.2093907,85.4590212 26.5786316,86.0318196 L65.957411,85.8188561 C65.957411,85.8188561 65.9836546,84.8384897 66.448715,85.1775178 C66.9137755,85.5165458 66.4908268,86.0667015 67.0401108,86.279665 C67.5893948,86.4907926 67.9696214,86.8298206 68.2656244,86.7019202 C68.5610171,86.5758556 69.0681894,86.1517645 69.5753616,86.7459816 C70.0825338,87.3377508 70.4627604,86.8298206 70.7581531,87.2110742 C71.0541561,87.5911039 71.6028298,87.8885184 71.9830564,87.4234257 C72.2912657,87.045232 73.46002,87.5029811 74.0263928,87.7110488 C74.7203216,87.1529376 75.2702159,85.9626676 75.8909068,85.9626676 C76.7148328,85.9626676 78.8051635,86.1523765 78.9327195,87.232493 C79.0596651,88.3138334 80.3266802,87.2967492 80.4536258,88.3138334 C80.5610413,89.1760907 81.3983943,89.8572067 81.2580217,90.3149558 C81.4997066,90.4654989 81.8012025,90.6668351 82.0721826,90.8822464 C82.4743806,90.7463904 83.5460947,90.9189643 84.2558916,91.1729293 C85.1432904,91.4905387 86.473168,90.7922877 86.9168674,91.8730162 C87.3605668,92.9531327 88.3907794,93.7670448 87.4240396,93.8423164 C86.600724,93.9059607 85.523517,92.7615879 85.5863795,93.3974186 C85.6498523,94.0320253 85.1432904,93.7156399 85.1432904,94.666632 C85.1432904,95.6212958 84.5091726,96.9547654 84.128946,96.8911212 C84.1155191,96.8880614 84.1045334,96.8807178 84.0923271,96.876434 C84.0276336,97.2368809 84.0227511,97.7056453 84.3236367,98 C84.8063963,97.6487326 85.4984941,97.0428883 86.0929414,97.0826659 C87.043813,97.1463102 87.297094,97.7178846 87.9306015,97.2742107 C88.5641091,96.8287009 88.6910547,96.638992 88.8180003,96.9553774 C88.8344788,96.995767 88.8216622,97.0459481 88.796029,97.098577 C89.0377139,96.9694526 89.2073816,96.844 89.2195879,96.7424139 C89.2366768,96.5826913 89.1939547,96.3691159 89.138416,96.1738993 C88.5030775,96.2675298 88.2961805,96.315263 88.1204097,95.8746489 C87.8671287,95.2400422 90.0209323,94.6048236 91.0352767,94.7321121 C91.9965237,94.8514451 92.672143,94.1758368 93.0090372,94.5901364 C93.6187424,94.0418167 94.6574994,93.1434535 94.9211557,93.1434535 C95.3013823,93.1434535 99.8219896,93.101228 99.8219896,93.101228 C99.8219896,93.101228 101.384397,92.1269812 101.596177,91.2377975 C101.806736,90.3486138 102.82108,88.2287704 103.412476,88.6963109 C104.003872,89.1620155 105.271497,88.8235994 105.312998,89.2470785 C105.352059,89.6387355 104.892491,91.0774629 106.517761,93.2309643 C107.089017,92.8680697 107.680412,92.5847303 108.016696,92.6043132 C108.586731,92.6361353 109.442393,91.8742401 109.696285,91.3962962 C109.949566,90.9201882 110.298056,91.841806 109.790273,92.0003047 C109.283711,92.1600273 110.202847,92.539445 111.089635,92.5088468 C111.976424,92.4770247 110.677672,92.8258442 110.012428,92.794022 C109.346574,92.7621999 109.061557,92.8576663 108.174768,93.748074 C107.28798,94.6378696 107.510134,94.8912228 108.016086,95.3355086 C108.523258,95.7816304 109.188502,95.5906976 109.885483,94.9866891 C110.582463,94.3826806 110.551337,93.7792841 111.247707,93.8117182 C111.944077,93.8435403 113.750611,93.1758876 114.54219,92.9225345 C115.33438,92.6679574 114.827207,92.540057 114.827207,92.1906255 C114.827207,91.842418 116.221168,91.842418 116.72834,91.4917626 C117.237954,91.144167 116.636183,90.8571559 116.192483,90.9220241 Z M33.4007338,49.5074034 C32.5785983,50.4924865 32.3045531,50.6374545 31.4570655,50.4924865 C30.6101815,50.3498474 30.0874433,50.7579699 30.5099799,51.0467414 C30.934931,51.3349306 30.9596796,51.5753794 30.0874433,51.7675055 C29.2146035,51.9596317 28.6417646,52.6087852 28.2928701,52.5365923 C27.9439756,52.4643995 29.788046,51.1899627 29.3142014,50.854033 C28.8409604,50.5181034 27.6699305,51.4315759 27.6451819,51.8396984 C27.6204333,52.2472387 26.847795,52.2722733 26.3751577,52.2472387 C25.9007095,52.2233685 25.2783734,51.7902113 25.7510108,51.7430531 C26.2248554,51.6953127 25.9007095,51.1899627 26.5490013,50.9506783 C27.1960859,50.7096473 26.4234476,50.3504296 26.6238506,50.0861106 C26.8236501,49.8212094 28.1437751,50.3504296 28.1685236,49.8701143 C28.1932722,49.3886345 26.847795,48.9799298 26.3993026,49.2692834 C25.9508102,49.5568904 24.9041267,50.2299141 23.6582475,49.7006939 C23.2658921,49.5347668 26.7976943,49.1738025 27.3964889,48.6451645 C27.9940764,48.1159443 30.6844272,47.5145312 30.8842266,47.9948466 C31.0834224,48.4757442 29.4391515,48.788968 30.2359348,49.221543 C31.032718,49.6541179 32.3293017,49.3659287 32.6274918,48.9089013 C32.9262855,48.4512918 34.2228692,48.5229024 33.4007338,49.5074034 Z M41.548527,60.1131694 C40.5890404,60.9482717 40.6629388,60.7268476 39.8268148,60.8738684 C38.9900948,61.0214845 39.653988,61.857182 38.6456331,61.9297996 C37.6372783,62.0047981 35.2016126,62.1036057 34.8577469,61.5375456 C34.7421318,61.3488589 36.1861293,61.4875466 36.2844618,61.0714835 C36.3833902,60.6524443 36.7767201,59.9893624 37.3911491,59.9893624 C38.0055781,59.9893624 37.9567098,59.18045 36.947759,58.6870075 C35.9400001,58.195946 38.399504,57.8757143 38.9650647,58.6626033 C39.5306254,59.448897 40.5401722,60.0149571 41.105137,59.448897 C41.6706977,58.8834322 44.8930231,57.3114399 44.8930231,58.0483299 C44.8936191,58.7858151 42.5074177,59.2780671 41.548527,60.1131694 Z M63.3812367,82.6484192 C62.7350866,82.7235691 63.4403913,80.8382084 62.2584372,80.1510377 C60.8700108,79.3448295 60.2511628,77.8418315 60.2511628,77.0308138 C60.2511628,76.2197961 61.4319794,75.8446478 61.9046473,76.4692937 C62.3767464,77.0933385 63.0854638,79.6526435 63.4989771,80.4636613 C63.9119216,81.2752802 63.9119216,82.5858944 63.3812367,82.6484192 Z" id="path-1"></path>
        <filter x="-5.5%" y="-5.1%" width="111.0%" height="114.3%" filterUnits="objectBoundingBox" id="filter-2">
            <feOffset dx="0" dy="2" in="SourceAlpha" result="shadowOffsetOuter1"></feOffset>
            <feGaussianBlur stdDeviation="2" in="shadowOffsetOuter1" result="shadowBlurOuter1"></feGaussianBlur>
            <feColorMatrix values="0 0 0 0 0   0 0 0 0 0   0 0 0 0 0  0 0 0 0.00993546196 0" type="matrix" in="shadowBlurOuter1"></feColorMatrix>
        </filter>
    </defs>
    <g id="Canada" stroke="none" stroke-width="1" fill="none" fill-rule="evenodd">
        <g id="Group-21" transform="translate(35.000000, 51.000000)">
            <g id="Group-17" transform="translate(2.000000, 0.000000)">
                <g id="canada">
                    <use fill="black" fill-opacity="1" filter="url(#filter-2)" xlink:href="#path-1"></use>
                    <use fill="#999999" fill-rule="evenodd" xlink:href="#path-1"></use>
                </g>
            </g>
            <path d="M6.156,83.216 C5.36399604,83.216 4.64400324,83.0660015 3.996,82.766 C3.34799676,82.4659985 2.79600228,82.0340028 2.34,81.47 C1.88399772,80.9059972 1.53000126,80.222004 1.278,79.418 C1.02599874,78.613996 0.9,77.714005 0.9,76.718 C0.9,75.6739948 1.02599874,74.750004 1.278,73.946 C1.53000126,73.141996 1.88099775,72.4640028 2.331,71.912 C2.78100225,71.3599972 3.32399682,70.9400014 3.96,70.652 C4.59600318,70.3639986 5.29799616,70.22 6.066,70.22 C6.8460039,70.22 7.49699739,70.3489987 8.019,70.607 C8.54100261,70.8650013 8.88599916,71.1859981 9.054,71.57 L9.126,71.57 L9.126,70.436 L10.422,70.436 L10.422,74.108 L9.126,74.108 L9.126,73.172 C9.126,72.571997 8.86200264,72.0890018 8.334,71.723 C7.80599736,71.3569982 7.11600426,71.174 6.264,71.174 C5.62799682,71.174 5.07900231,71.2909988 4.617,71.525 C4.15499769,71.7590012 3.77700147,72.076998 3.483,72.479 C3.18899853,72.881002 2.97300069,73.3489973 2.835,73.883 C2.69699931,74.4170027 2.628,74.9779971 2.628,75.566 L2.628,77.744 C2.628,78.4040033 2.71499913,78.9979974 2.889,79.526 C3.06300087,80.0540026 3.31499835,80.5069981 3.645,80.885 C3.97500165,81.2630019 4.3799976,81.553999 4.86,81.758 C5.3400024,81.962001 5.88599694,82.064 6.498,82.064 C7.35000426,82.064 8.06399712,81.8420022 8.64,81.398 C9.21600288,80.9539978 9.63599868,80.3900034 9.9,79.706 L10.602,80.048 C10.4939995,80.3960017 10.3200012,80.7559981 10.08,81.128 C9.8399988,81.5000019 9.53700183,81.8419984 9.171,82.154 C8.80499817,82.4660016 8.37000252,82.720999 7.866,82.919 C7.36199748,83.117001 6.79200318,83.216 6.156,83.216 Z M15.336,83.216 C14.4719957,83.216 13.7970024,82.9910023 13.311,82.541 C12.8249976,82.0909977 12.582,81.4760039 12.582,80.696 C12.582,80.2519978 12.6539993,79.8590017 12.798,79.517 C12.9420007,79.1749983 13.1789984,78.8900011 13.509,78.662 C13.8390017,78.4339989 14.2679974,78.2600006 14.796,78.14 C15.3240026,78.0199994 15.9659962,77.96 16.722,77.96 L18.054,77.96 L18.054,76.592 C18.054,75.8599963 17.8770018,75.299002 17.523,74.909 C17.1689982,74.518998 16.6380035,74.324 15.93,74.324 C15.6179984,74.324 15.3300013,74.3509997 15.066,74.405 C14.8019987,74.4590003 14.5860008,74.5339995 14.418,74.63 L14.418,74.666 C14.5500007,74.7380004 14.6789994,74.8459993 14.805,74.99 C14.9310006,75.1340007 14.994,75.3379987 14.994,75.602 C14.994,75.9140016 14.9040009,76.1569991 14.724,76.331 C14.5439991,76.5050009 14.3040015,76.592 14.004,76.592 C13.7159986,76.592 13.4790009,76.5050009 13.293,76.331 C13.1069991,76.1569991 13.014,75.8960017 13.014,75.548 C13.014,75.2839987 13.0919992,75.0290012 13.248,74.783 C13.4040008,74.5369988 13.6259986,74.318001 13.914,74.126 C14.2020014,73.933999 14.5589979,73.7810006 14.985,73.667 C15.4110021,73.5529994 15.8939973,73.496 16.434,73.496 C17.4060049,73.496 18.1649973,73.7479975 18.711,74.252 C19.2570027,74.7560025 19.53,75.4639954 19.53,76.376 L19.53,82.226 L20.88,82.226 L20.88,82.856 C20.7479993,82.9520005 20.5710011,83.0359996 20.349,83.108 C20.1269989,83.1800004 19.8780014,83.216 19.602,83.216 C19.1339977,83.216 18.7740013,83.0840013 18.522,82.82 C18.2699987,82.5559987 18.144,82.2020022 18.144,81.758 L18.144,81.632 L18.054,81.632 C17.9699996,81.836001 17.8590007,82.033999 17.721,82.226 C17.5829993,82.418001 17.4060011,82.5859993 17.19,82.73 C16.9739989,82.8740007 16.7130015,82.9909995 16.407,83.081 C16.1009985,83.1710005 15.744002,83.216 15.336,83.216 Z M15.966,82.226 C16.5420029,82.226 17.033998,82.0790015 17.442,81.785 C17.850002,81.4909985 18.054,81.0380031 18.054,80.426 L18.054,78.68 L16.884,78.68 C16.3679974,78.68 15.9360017,78.7189996 15.588,78.797 C15.2399983,78.8750004 14.964001,78.9889993 14.76,79.139 C14.555999,79.2890007 14.4090005,79.4719989 14.319,79.688 C14.2289996,79.9040011 14.184,80.1559986 14.184,80.444 L14.184,80.822 C14.184,81.2780023 14.3399984,81.6259988 14.652,81.866 C14.9640016,82.1060012 15.4019972,82.226 15.966,82.226 Z M22.41,82.172 L23.742,82.172 L23.742,74.882 L22.41,74.648 L22.41,74.036 L25.182,73.496 L25.182,75.116 L25.254,75.116 C25.3260004,74.9359991 25.4369993,74.750001 25.587,74.558 C25.7370008,74.365999 25.9229989,74.1920008 26.145,74.036 C26.3670011,73.8799992 26.6279985,73.7510005 26.928,73.649 C27.2280015,73.5469995 27.5579982,73.496 27.918,73.496 C29.0340056,73.496 29.8349976,73.7869971 30.321,74.369 C30.8070024,74.9510029 31.05,75.8239942 31.05,76.988 L31.05,82.172 L32.382,82.172 L32.382,83 L28.242,83 L28.242,82.172 L29.574,82.172 L29.574,77.114 C29.574,75.3859914 28.8480073,74.522 27.396,74.522 C27.1319987,74.522 26.8710013,74.5579996 26.613,74.63 C26.3549987,74.7020004 26.1210011,74.8159992 25.911,74.972 C25.700999,75.1280008 25.5330006,75.3199989 25.407,75.548 C25.2809994,75.7760011 25.218,76.0459984 25.218,76.358 L25.218,82.172 L26.55,82.172 L26.55,83 L22.41,83 L22.41,82.172 Z M36.666,83.216 C35.8019957,83.216 35.1270024,82.9910023 34.641,82.541 C34.1549976,82.0909977 33.912,81.4760039 33.912,80.696 C33.912,80.2519978 33.9839993,79.8590017 34.128,79.517 C34.2720007,79.1749983 34.5089984,78.8900011 34.839,78.662 C35.1690017,78.4339989 35.5979974,78.2600006 36.126,78.14 C36.6540026,78.0199994 37.2959962,77.96 38.052,77.96 L39.384,77.96 L39.384,76.592 C39.384,75.8599963 39.2070018,75.299002 38.853,74.909 C38.4989982,74.518998 37.9680035,74.324 37.26,74.324 C36.9479984,74.324 36.6600013,74.3509997 36.396,74.405 C36.1319987,74.4590003 35.9160008,74.5339995 35.748,74.63 L35.748,74.666 C35.8800007,74.7380004 36.0089994,74.8459993 36.135,74.99 C36.2610006,75.1340007 36.324,75.3379987 36.324,75.602 C36.324,75.9140016 36.2340009,76.1569991 36.054,76.331 C35.8739991,76.5050009 35.6340015,76.592 35.334,76.592 C35.0459986,76.592 34.8090009,76.5050009 34.623,76.331 C34.4369991,76.1569991 34.344,75.8960017 34.344,75.548 C34.344,75.2839987 34.4219992,75.0290012 34.578,74.783 C34.7340008,74.5369988 34.9559986,74.318001 35.244,74.126 C35.5320014,73.933999 35.8889979,73.7810006 36.315,73.667 C36.7410021,73.5529994 37.2239973,73.496 37.764,73.496 C38.7360049,73.496 39.4949973,73.7479975 40.041,74.252 C40.5870027,74.7560025 40.86,75.4639954 40.86,76.376 L40.86,82.226 L42.21,82.226 L42.21,82.856 C42.0779993,82.9520005 41.9010011,83.0359996 41.679,83.108 C41.4569989,83.1800004 41.2080014,83.216 40.932,83.216 C40.4639977,83.216 40.1040013,83.0840013 39.852,82.82 C39.5999987,82.5559987 39.474,82.2020022 39.474,81.758 L39.474,81.632 L39.384,81.632 C39.2999996,81.836001 39.1890007,82.033999 39.051,82.226 C38.9129993,82.418001 38.7360011,82.5859993 38.52,82.73 C38.3039989,82.8740007 38.0430015,82.9909995 37.737,83.081 C37.4309985,83.1710005 37.074002,83.216 36.666,83.216 Z M37.296,82.226 C37.8720029,82.226 38.363998,82.0790015 38.772,81.785 C39.180002,81.4909985 39.384,81.0380031 39.384,80.426 L39.384,78.68 L38.214,78.68 C37.6979974,78.68 37.2660017,78.7189996 36.918,78.797 C36.5699983,78.8750004 36.294001,78.9889993 36.09,79.139 C35.885999,79.2890007 35.7390004,79.4719989 35.649,79.688 C35.5589996,79.9040011 35.514,80.1559986 35.514,80.444 L35.514,80.822 C35.514,81.2780023 35.6699984,81.6259988 35.982,81.866 C36.2940016,82.1060012 36.7319972,82.226 37.296,82.226 Z M47.538,83.216 C46.3859942,83.216 45.4650035,82.7990042 44.775,81.965 C44.0849966,81.1309958 43.74,79.9280079 43.74,78.356 C43.74,76.7839921 44.0849966,75.5810042 44.775,74.747 C45.4650035,73.9129958 46.3859942,73.496 47.538,73.496 C48.2580036,73.496 48.8429978,73.6519984 49.293,73.964 C49.7430023,74.2760016 50.069999,74.6539978 50.274,75.098 L50.346,75.098 L50.346,70.706 L48.996,70.472 L48.996,69.842 L51.822,69.32 L51.822,81.83 L53.154,82.064 L53.154,82.676 L50.346,83.216 L50.346,81.596 L50.274,81.596 C50.069999,82.0400022 49.7460022,82.4209984 49.302,82.739 C48.8579978,83.0570016 48.2700037,83.216 47.538,83.216 Z M47.97,82.19 C48.2580014,82.19 48.5459986,82.1480004 48.834,82.064 C49.1220014,81.9799996 49.3769989,81.8600008 49.599,81.704 C49.8210011,81.5479992 50.0009993,81.3530012 50.139,81.119 C50.2770007,80.8849988 50.346,80.6240014 50.346,80.336 L50.346,76.376 C50.346,76.0879986 50.2770007,75.8270012 50.139,75.593 C50.0009993,75.3589988 49.8210011,75.1640008 49.599,75.008 C49.3769989,74.8519992 49.1220014,74.7320004 48.834,74.648 C48.5459986,74.5639996 48.2580014,74.522 47.97,74.522 C47.1419959,74.522 46.4970023,74.8009972 46.035,75.359 C45.5729977,75.9170028 45.342,76.6639953 45.342,77.6 L45.342,79.112 C45.342,80.0480047 45.5729977,80.7949972 46.035,81.353 C46.4970023,81.9110028 47.1419959,82.19 47.97,82.19 Z M57.438,83.216 C56.5739957,83.216 55.8990024,82.9910023 55.413,82.541 C54.9269976,82.0909977 54.684,81.4760039 54.684,80.696 C54.684,80.2519978 54.7559993,79.8590017 54.9,79.517 C55.0440007,79.1749983 55.2809984,78.8900011 55.611,78.662 C55.9410017,78.4339989 56.3699974,78.2600006 56.898,78.14 C57.4260026,78.0199994 58.0679962,77.96 58.824,77.96 L60.156,77.96 L60.156,76.592 C60.156,75.8599963 59.9790018,75.299002 59.625,74.909 C59.2709982,74.518998 58.7400035,74.324 58.032,74.324 C57.7199984,74.324 57.4320013,74.3509997 57.168,74.405 C56.9039987,74.4590003 56.6880008,74.5339995 56.52,74.63 L56.52,74.666 C56.6520007,74.7380004 56.7809994,74.8459993 56.907,74.99 C57.0330006,75.1340007 57.096,75.3379987 57.096,75.602 C57.096,75.9140016 57.0060009,76.1569991 56.826,76.331 C56.6459991,76.5050009 56.4060015,76.592 56.106,76.592 C55.8179986,76.592 55.5810009,76.5050009 55.395,76.331 C55.2089991,76.1569991 55.116,75.8960017 55.116,75.548 C55.116,75.2839987 55.1939992,75.0290012 55.35,74.783 C55.5060008,74.5369988 55.7279986,74.318001 56.016,74.126 C56.3040014,73.933999 56.6609979,73.7810006 57.087,73.667 C57.5130021,73.5529994 57.9959973,73.496 58.536,73.496 C59.5080049,73.496 60.2669973,73.7479975 60.813,74.252 C61.3590027,74.7560025 61.632,75.4639954 61.632,76.376 L61.632,82.226 L62.982,82.226 L62.982,82.856 C62.8499993,82.9520005 62.6730011,83.0359996 62.451,83.108 C62.2289989,83.1800004 61.9800014,83.216 61.704,83.216 C61.2359977,83.216 60.8760013,83.0840013 60.624,82.82 C60.3719987,82.5559987 60.246,82.2020022 60.246,81.758 L60.246,81.632 L60.156,81.632 C60.0719996,81.836001 59.9610007,82.033999 59.823,82.226 C59.6849993,82.418001 59.5080011,82.5859993 59.292,82.73 C59.0759989,82.8740007 58.8150015,82.9909995 58.509,83.081 C58.2029985,83.1710005 57.846002,83.216 57.438,83.216 Z M58.068,82.226 C58.6440029,82.226 59.135998,82.0790015 59.544,81.785 C59.952002,81.4909985 60.156,81.0380031 60.156,80.426 L60.156,78.68 L58.986,78.68 C58.4699974,78.68 58.0380017,78.7189996 57.69,78.797 C57.3419983,78.8750004 57.066001,78.9889993 56.862,79.139 C56.657999,79.2890007 56.5110005,79.4719989 56.421,79.688 C56.3309996,79.9040011 56.286,80.1559986 56.286,80.444 L56.286,80.822 C56.286,81.2780023 56.4419984,81.6259988 56.754,81.866 C57.0660016,82.1060012 57.5039972,82.226 58.068,82.226 Z" id="Canada" fill="#222222" fill-rule="nonzero"></path>
        </g>
    </g>
</svg>