<?xml version="1.0" encoding="UTF-8"?>
<svg width="200px" height="200px" viewBox="0 0 200 200" version="1.1" xmlns="http://www.w3.org/2000/svg" xmlns:xlink="http://www.w3.org/1999/xlink">
    <!-- Generator: Sketch 57.1 (83088) - https://sketch.com -->
    <title>Indonesia</title>
    <desc>Created with Sketch.</desc>
    <defs>
        <path d="M14.5696029,29.7792387 C14.3671994,30.5080337 15.4833519,33.4422811 16.1917641,32.5651848 C16.9045763,31.6817327 15.2105472,27.4572638 14.5696029,29.7792387 Z M56.3636364,37.0673158 C56.3636364,35.7368195 52.7494389,36.3828778 53.8421973,38.2506899 C54.9632866,40.1632783 56.3636364,38.3935477 56.3636364,37.0673158 Z M7.30935836,19.3457277 C7.00276624,20.4783041 8.66931337,23.7598295 10.4913465,22.4046659 C12.3133796,21.0445922 7.60281081,18.2327914 7.30935836,19.3457277 Z M104.515708,41.1493977 C106.488335,41.2764356 106.226078,44.1217106 105.830793,45.8012261 C105.433607,47.4826099 104.637335,51.4749623 106.357207,50.8416411 C108.459062,50.0663363 109.776047,47.4826099 108.59209,46.5783991 C107.406234,45.6741882 107.541163,39.98177 108.065677,38.5638031 C108.59209,37.1364951 112.145859,38.1733484 110.960003,40.3722247 C109.776047,42.5729693 113.194886,42.3058161 113.194886,44.7699774 C113.194886,47.2229295 115.167513,45.9338686 117.273169,45.28747 C119.380725,44.6410713 118.98734,43.4715755 117.539226,41.9228342 C116.091113,40.3722247 118.592054,38.1733484 116.621328,36.8786829 C114.6468,35.589622 113.329815,33.6485578 115.169414,33.2599713 C117.014713,32.8713849 122.535407,29.7664295 121.879765,28.4755004 C121.222223,27.1789667 113.460944,28.7333126 112.801501,31.0592268 C112.14776,33.385141 106.623264,30.7976782 107.280807,26.7941166 C107.940249,22.7849504 118.854311,22.1385517 122.010894,23.5602551 C125.169377,24.9856949 128.588217,21.2324727 129.770273,19.0354645 C130.956129,16.8328518 127.275033,19.424051 125.036348,20.8457544 C122.801465,22.2711942 116.883584,20.7149801 113.856229,19.6818632 C110.830775,18.6506145 110.963804,21.4921531 108.462862,21.8788713 C105.963822,22.2711942 106.490236,27.7001956 105.306279,28.3465943 C104.120423,28.9967293 104.120423,33.0021592 101.756311,36.7535132 C99.3845982,40.4992626 102.541181,41.0186234 104.515708,41.1493977 Z M46.668571,44.2458546 C46.5364183,42.4349474 47.319895,40.6221694 47.319895,39.7129742 C47.319895,38.8112621 47.9731068,38.4221416 49.1473778,38.6784373 C50.3254245,38.9366038 50.1989356,36.2165014 49.2795305,35.9583349 C48.3657891,35.7039099 47.8447299,32.4637329 45.6189012,32.4637329 C43.400624,32.4637329 43.7914183,34.2746402 45.1016178,34.407465 C46.4099294,34.5346775 47.1877423,35.5729559 46.7988358,36.4784095 C46.4061536,37.3838631 45.8869823,35.5729559 44.0557237,35.7039099 C42.2225772,35.8292517 43.400624,33.496399 41.3107237,33.3691866 C39.2208234,33.2401033 39.6153936,29.4835932 37.3876769,29.4835932 C35.165624,29.4835932 35.039135,27.672686 36.4758234,26.3799826 C37.910624,25.0816669 34.2537705,23.9161759 34.2537705,22.365306 C34.2537705,20.806953 31.9033406,21.7180189 31.9033406,20.4197032 C31.9033406,19.1288706 30.8593344,19.7761576 29.6793997,18.2196754 C28.5070167,16.6669347 27.9821817,18.0905921 26.9362876,16.9288428 C25.8941693,15.7614811 24.455593,15.114194 23.5399637,15.5014438 C22.6262223,15.8943059 20.5325462,13.817749 19.7490696,11.7468045 C19.127952,10.0949129 13.0866865,7.34300735 12.2994341,5.14297955 C11.5178454,2.94295175 9.4260572,2.03375659 5.89946847,2.16471062 C2.37287974,2.29005234 0.979612887,-1.25880202 0.145163091,0.48101588 C-0.896955205,2.686656 3.93794508,7.60304465 6.15999804,8.8994896 C8.38016311,10.1903222 9.55443409,14.8522859 12.1691693,15.114194 C14.7876803,15.3723605 15.0425462,23.5289262 17.0040696,23.9161759 C18.965593,24.3090381 23.1529451,30.6528257 23.8042691,34.0164736 C24.4574809,37.3857339 28.7656583,39.0694286 30.2080105,41.5294937 C31.642811,43.9876881 37.3914527,47.3588191 38.1768172,48.3914852 C38.958406,49.4260221 39.7456584,51.7570039 40.402646,50.5896422 C41.0558578,49.4260221 43.797082,50.5896422 45.1053936,50.722467 C46.4080415,50.8552919 46.7969479,46.0605034 46.668571,44.2458546 Z M144.586332,23.683111 C147.330106,23.9509828 146.079003,22.2251232 146.079003,20.3729813 C146.079003,18.5208393 143.587612,20.1089362 143.587612,19.1828653 C143.587612,18.2548809 142.715085,14.5486837 140.717646,17.4589191 C138.720207,20.3729813 141.359422,27.5729918 142.960258,27.2630259 C144.339356,26.9951541 141.838952,23.4171526 144.586332,23.683111 Z M134.582144,40.2600152 C135.100518,42.4638837 138.856391,43.6959834 139.895011,41.7762926 C140.928016,39.8466656 133.983301,37.7103638 134.582144,40.2600152 Z M123.759701,61.8931482 C120.290464,61.3300992 117.976401,64.1700036 114.50345,62.7438866 C111.034213,61.3300992 105.841501,62.7726555 106.406088,64.024104 C106.922387,65.1645866 110.005328,65.3063763 113.476422,65.4481661 C116.947516,65.585846 120.032314,63.4507803 122.346377,63.3131004 C124.658582,63.1713107 127.232652,62.4623621 123.759701,61.8931482 Z M151.051434,37.6896608 C147.786239,36.716284 142.215452,37.5476004 142.765093,39.1453416 C143.265757,40.6027761 145.901495,39.9959502 148.54449,39.9959502 C151.180228,39.9959502 152.558866,41.8181818 153.942946,41.8181818 C155.323398,41.8181818 154.320258,38.6577762 151.051434,37.6896608 Z M84.0710831,60.2349207 C83.9429902,58.6519082 78.8513,60.1034792 76.377978,59.0500425 C73.9027723,57.9908909 79.1150205,57.0727055 80.8103669,56.011649 C82.5038295,54.9563073 79.766787,54.5638878 75.596235,55.8859224 C71.4181481,57.202242 66.599597,52.9846852 66.4677367,54.8267708 C66.3396438,56.6745712 58.9027245,54.036217 57.081169,52.7198973 C55.2558461,51.4035776 48.2145075,49.6834088 46.7772306,52.1903215 C45.3456048,54.7010441 44.1061182,52.4532044 44.695722,54.8286757 C45.0856517,56.4116883 46.7772306,55.489693 47.9526707,55.489693 C49.1262271,55.489693 48.6044372,57.7337228 50.2960161,57.9927958 C51.9932462,58.2613936 57.6029589,59.8425012 58.1228652,58.6538131 C58.6427714,57.4708398 63.8606707,58.6538131 66.4677367,60.7644965 C69.0748026,62.87137 75.0706776,63.0047164 77.4196742,62.610392 C79.7649033,62.2160675 82.373853,64.1914995 83.2855726,62.8732749 C84.2010596,61.5588602 85.8926385,64.9839583 88.5034719,63.0047164 C91.1105379,61.0292844 84.2029433,61.8160283 84.0710831,60.2349207 Z M184.95278,31.5860182 C183.008845,31.7190627 182.746405,35.0920222 181.061161,35.0920222 C179.375917,35.0920222 177.038321,38.5924047 173.924651,39.6342744 C170.809106,40.6705225 170.67976,30.6865623 169.251334,28.7396151 C167.824781,26.7926679 160.043417,25.2373587 159.265468,27.4391518 C158.485645,29.6484403 155.780632,28.4791476 155.497571,30.2949242 C155.240754,31.981404 156.148049,31.462343 157.833293,31.462343 C159.516662,31.462343 159.516662,32.7553108 160.29836,34.4436644 C161.078183,36.1320181 165.749626,34.9645993 167.305524,34.8353025 C168.861422,34.7060057 169.120113,36.9077988 166.915612,36.1320181 C164.711111,35.3562374 164.711111,37.1663923 163.153339,36.7803759 C161.597441,36.3887378 159.516662,36.5180346 160.555177,37.4287336 C161.597441,38.335685 163.277061,39.2426363 163.277061,41.3188803 C163.277061,43.3932504 166.267009,43.0053601 166.267009,41.3188803 C166.267009,39.6361483 167.822907,41.8360675 170.807231,42.6118481 C173.793431,43.3932504 171.718275,44.5587954 174.700725,44.6918399 C177.683175,44.8230105 184.429774,47.0285513 187.024187,48.968003 C189.626098,50.9149502 187.802135,52.2116658 189.491128,54.0311901 C191.176372,55.8432189 191.693755,57.9213368 189.358033,57.9213368 C187.024187,57.9213368 184.560994,60.2524266 185.207723,61.4198454 C185.856326,62.5872641 193.515842,60.9007844 195.326683,60.9007844 C196.518913,60.9007844 197.714892,63.0145057 200,64.5454545 L200,36.862826 C194.38752,34.9720948 186.553668,31.4810816 184.95278,31.5860182 Z M129.453633,64.5454545 C129.032992,64.8210674 128.543232,65.031605 127.952754,65.1617556 C127.769094,65.655562 127.587409,66.2048738 127.271434,66.4422071 C126.888315,66.7331318 126.228718,66.1493684 125.760681,65.6345082 C123.118344,66.6986802 121.728056,69.7610455 123.562683,70.7103788 C125.326216,71.6214325 127.895484,69.2002499 129.364765,67.4948952 C129.603721,67.2154543 129.815029,66.9589812 129.98684,66.7369598 C130.087557,66.6068092 130.251469,66.4709168 130.448953,66.3331103 C130.583242,66.2316695 130.73728,66.1340566 130.909091,66.0383577 C130.482525,65.4603362 129.935494,64.8918846 129.453633,64.5454545 Z M93.3628921,31.5601413 C95.6825743,30.1608702 96.1968171,27.4871973 95.9378325,24.9494116 C95.6825743,22.4042806 101.611272,22.2812476 102.516787,21.2602571 C103.420438,20.2447756 101.223727,18.5920931 99.5487113,17.8281866 C97.8718326,17.0679527 99.2878635,15.4152702 98.128954,14.3997887 C96.9681813,13.3861435 95.0360444,10.7106342 96.7129231,10.5894375 C98.3860754,10.4590592 95.548424,8.17101221 96.9681813,7.41077829 C97.1600907,7.3061084 97.3818114,7.19776589 97.6147112,7.08575074 C96.7669558,6.67074382 96.027266,6.39162412 95.5502872,6.39162412 C93.4914528,6.39162412 88.5893774,5.88480151 88.8427724,9.18465744 C89.1054834,12.4918586 86.0088474,11.2174568 86.2641056,13.0005176 C86.5230902,14.781742 84.7157876,14.781742 84.9747722,17.0679527 C85.2374832,19.357836 83.6910284,18.3386818 81.106772,19.6130836 C78.5281052,20.8801401 79.5603172,18.8473407 76.9816504,18.8473407 C74.4029836,18.8473407 74.143999,20.1199062 72.595681,20.6267288 C71.0454998,21.1317151 67.9544534,20.3733175 66.9222414,21.1317151 C65.8918926,21.8956217 64.3435746,19.357836 63.3113626,19.357836 C62.7859406,19.357836 62.3294569,17.9659101 62.0052604,16.6033653 C61.8208037,16.5703116 61.6531159,16.5482758 61.5059232,16.5592937 C59.8327709,16.689672 57.0547418,21.0527536 58.6682718,22.5346589 C60.6041351,24.314047 60.0898923,27.1070803 60.987954,28.5081877 C61.8934685,29.9074589 64.7367095,30.1571976 64.7367095,32.8308705 C64.7367095,35.4990344 67.181226,39.6913389 68.8599679,38.5491517 C70.5349834,37.4069645 71.8243168,39.0596469 72.3404228,40.1981615 C72.8565288,41.3440213 76.8530897,39.3093856 78.1461495,39.5627969 C79.4336197,39.8198809 83.4283174,40.5837874 83.6928916,42.1060916 C83.9481498,43.6320683 87.5590286,41.9757133 90.0091347,41.09061 C92.4573776,40.1981615 91.0376203,32.9520672 93.3628921,31.5601413 Z M102.786866,67.7657358 C103.572216,68.8785165 105.797691,68.8785165 106.717402,69.6215611 C107.635221,70.3610334 110.909091,71.9685817 110.909091,69.869838 C110.909091,67.7657358 101.914465,66.5279235 102.786866,67.7657358 Z M96.250985,61.2873447 C95.7432984,62.3798069 93.5587638,62.6214091 92.2765772,61.7705491 C90.9943907,60.9284429 89.4046276,62.9207857 90.2254493,63.9519719 C90.6108464,64.4386778 93.3030676,66.3767476 96.508534,64.923633 C99.7177062,63.472269 101.894829,64.8010811 102.665624,63.2271653 C103.434565,61.6514988 96.7660831,60.1983841 96.250985,61.2873447 Z" id="path-1"></path>
        <filter x="-3.5%" y="-7.1%" width="107.0%" height="119.7%" filterUnits="objectBoundingBox" id="filter-2">
            <feOffset dx="0" dy="2" in="SourceAlpha" result="shadowOffsetOuter1"></feOffset>
            <feGaussianBlur stdDeviation="2" in="shadowOffsetOuter1" result="shadowBlurOuter1"></feGaussianBlur>
            <feColorMatrix values="0 0 0 0 0   0 0 0 0 0   0 0 0 0 0  0 0 0 0.00993546196 0" type="matrix" in="shadowBlurOuter1"></feColorMatrix>
        </filter>
    </defs>
    <g id="Indonesia" stroke="none" stroke-width="1" fill="none" fill-rule="evenodd">
        <g id="Group-18" transform="translate(0.000000, 65.000000)">
            <g id="indonesia">
                <use fill="black" fill-opacity="1" filter="url(#filter-2)" xlink:href="#path-1"></use>
                <use fill="#999999" fill-rule="evenodd" xlink:href="#path-1"></use>
            </g>
            <path d="M14.99,68.172 L16.34,68.172 L16.34,57.264 L14.99,57.264 L14.99,56.436 L19.238,56.436 L19.238,57.264 L17.888,57.264 L17.888,68.172 L19.238,68.172 L19.238,69 L14.99,69 L14.99,68.172 Z M21.128,68.172 L22.46,68.172 L22.46,60.882 L21.128,60.648 L21.128,60.036 L23.9,59.496 L23.9,61.116 L23.972,61.116 C24.0440004,60.9359991 24.1549992,60.750001 24.305,60.558 C24.4550007,60.365999 24.6409989,60.1920008 24.863,60.036 C25.0850011,59.8799992 25.3459985,59.7510005 25.646,59.649 C25.9460015,59.5469995 26.2759982,59.496 26.636,59.496 C27.7520056,59.496 28.5529976,59.7869971 29.039,60.369 C29.5250024,60.9510029 29.768,61.8239942 29.768,62.988 L29.768,68.172 L31.1,68.172 L31.1,69 L26.96,69 L26.96,68.172 L28.292,68.172 L28.292,63.114 C28.292,61.3859914 27.5660073,60.522 26.114,60.522 C25.8499987,60.522 25.5890013,60.5579996 25.331,60.63 C25.0729987,60.7020004 24.839001,60.8159992 24.629,60.972 C24.4189989,61.1280008 24.2510006,61.3199989 24.125,61.548 C23.9989994,61.7760011 23.936,62.0459984 23.936,62.358 L23.936,68.172 L25.268,68.172 L25.268,69 L21.128,69 L21.128,68.172 Z M36.428,69.216 C35.2759942,69.216 34.3550034,68.7990042 33.665,67.965 C32.9749965,67.1309958 32.63,65.9280079 32.63,64.356 C32.63,62.7839921 32.9749965,61.5810042 33.665,60.747 C34.3550034,59.9129958 35.2759942,59.496 36.428,59.496 C37.1480036,59.496 37.7329977,59.6519984 38.183,59.964 C38.6330022,60.2760016 38.959999,60.6539978 39.164,61.098 L39.236,61.098 L39.236,56.706 L37.886,56.472 L37.886,55.842 L40.712,55.32 L40.712,67.83 L42.044,68.064 L42.044,68.676 L39.236,69.216 L39.236,67.596 L39.164,67.596 C38.959999,68.0400022 38.6360022,68.4209984 38.192,68.739 C37.7479978,69.0570016 37.1600037,69.216 36.428,69.216 Z M36.86,68.19 C37.1480014,68.19 37.4359986,68.1480004 37.724,68.064 C38.0120014,67.9799996 38.2669989,67.8600008 38.489,67.704 C38.7110011,67.5479992 38.8909993,67.3530012 39.029,67.119 C39.1670007,66.8849988 39.236,66.6240014 39.236,66.336 L39.236,62.376 C39.236,62.0879986 39.1670007,61.8270012 39.029,61.593 C38.8909993,61.3589988 38.7110011,61.1640008 38.489,61.008 C38.2669989,60.8519992 38.0120014,60.7320004 37.724,60.648 C37.4359986,60.5639996 37.1480014,60.522 36.86,60.522 C36.0319959,60.522 35.3870023,60.8009972 34.925,61.359 C34.4629977,61.9170028 34.232,62.6639953 34.232,63.6 L34.232,65.112 C34.232,66.0480047 34.4629977,66.7949972 34.925,67.353 C35.3870023,67.9110028 36.0319959,68.19 36.86,68.19 Z M47.75,68.334 C48.1940022,68.334 48.5809983,68.2590007 48.911,68.109 C49.2410016,67.9589993 49.5109989,67.7490014 49.721,67.479 C49.931001,67.2089986 50.0869995,66.8910018 50.189,66.525 C50.2910005,66.1589982 50.342,65.7600022 50.342,65.328 L50.342,63.384 C50.342,62.9519978 50.2910005,62.5530018 50.189,62.187 C50.0869995,61.8209982 49.931001,61.5030014 49.721,61.233 C49.5109989,60.9629987 49.2410016,60.7530007 48.911,60.603 C48.5809983,60.4529993 48.1940022,60.378 47.75,60.378 C47.2939977,60.378 46.9040016,60.4529993 46.58,60.603 C46.2559984,60.7530007 45.989001,60.9629987 45.779,61.233 C45.5689989,61.5030014 45.4130005,61.8209982 45.311,62.187 C45.2089995,62.5530018 45.158,62.9519978 45.158,63.384 L45.158,65.328 C45.158,65.7600022 45.2089995,66.1589982 45.311,66.525 C45.4130005,66.8910018 45.5689989,67.2089986 45.779,67.479 C45.989001,67.7490014 46.2559984,67.9589993 46.58,68.109 C46.9040016,68.2590007 47.2939977,68.334 47.75,68.334 Z M47.75,69.216 C47.1139968,69.216 46.5320026,69.1020011 46.004,68.874 C45.4759974,68.6459989 45.0260019,68.3190021 44.654,67.893 C44.2819981,67.4669979 43.994001,66.957003 43.79,66.363 C43.585999,65.768997 43.484,65.1000037 43.484,64.356 C43.484,63.6239963 43.585999,62.958003 43.79,62.358 C43.994001,61.757997 44.2819981,61.2450021 44.654,60.819 C45.0260019,60.3929979 45.4759974,60.0660011 46.004,59.838 C46.5320026,59.6099989 47.1139968,59.496 47.75,59.496 C48.3860032,59.496 48.9679974,59.6099989 49.496,59.838 C50.0240026,60.0660011 50.4739981,60.3929979 50.846,60.819 C51.2180019,61.2450021 51.505999,61.757997 51.71,62.358 C51.914001,62.958003 52.016,63.6239963 52.016,64.356 C52.016,65.1000037 51.914001,65.768997 51.71,66.363 C51.505999,66.957003 51.2180019,67.4669979 50.846,67.893 C50.4739981,68.3190021 50.0240026,68.6459989 49.496,68.874 C48.9679974,69.1020011 48.3860032,69.216 47.75,69.216 Z M53.726,68.172 L55.058,68.172 L55.058,60.882 L53.726,60.648 L53.726,60.036 L56.498,59.496 L56.498,61.116 L56.57,61.116 C56.6420004,60.9359991 56.7529992,60.750001 56.903,60.558 C57.0530007,60.365999 57.2389989,60.1920008 57.461,60.036 C57.6830011,59.8799992 57.9439985,59.7510005 58.244,59.649 C58.5440015,59.5469995 58.8739982,59.496 59.234,59.496 C60.3500056,59.496 61.1509976,59.7869971 61.637,60.369 C62.1230024,60.9510029 62.366,61.8239942 62.366,62.988 L62.366,68.172 L63.698,68.172 L63.698,69 L59.558,69 L59.558,68.172 L60.89,68.172 L60.89,63.114 C60.89,61.3859914 60.1640073,60.522 58.712,60.522 C58.4479987,60.522 58.1870013,60.5579996 57.929,60.63 C57.6709987,60.7020004 57.437001,60.8159992 57.227,60.972 C57.0169989,61.1280008 56.8490006,61.3199989 56.723,61.548 C56.5969994,61.7760011 56.534,62.0459984 56.534,62.358 L56.534,68.172 L57.866,68.172 L57.866,69 L53.726,69 L53.726,68.172 Z M69.35,69.216 C68.6899967,69.216 68.0990026,69.0990012 67.577,68.865 C67.0549974,68.6309988 66.6140018,68.3040021 66.254,67.884 C65.8939982,67.4639979 65.618001,66.954003 65.426,66.354 C65.233999,65.753997 65.138,65.0880037 65.138,64.356 C65.138,63.6359964 65.2429989,62.979003 65.453,62.385 C65.663001,61.790997 65.9509982,61.2780022 66.317,60.846 C66.6830018,60.4139978 67.1179975,60.0810012 67.622,59.847 C68.1260025,59.6129988 68.677997,59.496 69.278,59.496 C69.8900031,59.496 70.4359976,59.6039989 70.916,59.82 C71.3960024,60.0360011 71.8009983,60.3389981 72.131,60.729 C72.4610016,61.1190019 72.7159991,61.5839973 72.896,62.124 C73.0760009,62.6640027 73.166,63.2519968 73.166,63.888 L73.166,64.302 L66.776,64.302 L66.776,64.77 C66.776,65.7900051 67.0309974,66.5939971 67.541,67.182 C68.0510025,67.7700029 68.7319957,68.064 69.584,68.064 C70.3280037,68.064 70.9189978,67.9110015 71.357,67.605 C71.7950022,67.2989985 72.1399987,66.9000025 72.392,66.408 L72.986,66.786 C72.8659994,67.0980016 72.701001,67.4009985 72.491,67.695 C72.2809989,67.9890015 72.0260015,68.2469989 71.726,68.469 C71.4259985,68.6910011 71.078002,68.8709993 70.682,69.009 C70.285998,69.1470007 69.8420025,69.216 69.35,69.216 Z M66.776,63.474 L71.618,63.474 L71.618,63.294 C71.618,62.8739979 71.5730004,62.4840018 71.483,62.124 C71.3929995,61.7639982 71.252001,61.4520013 71.06,61.188 C70.867999,60.9239987 70.6250015,60.7170007 70.331,60.567 C70.0369985,60.4169993 69.686002,60.342 69.278,60.342 C68.869998,60.342 68.5100016,60.4139993 68.198,60.558 C67.8859984,60.7020007 67.625001,60.9059987 67.415,61.17 C67.2049989,61.4340013 67.0460005,61.7429982 66.938,62.097 C66.8299995,62.4510018 66.776,62.8379979 66.776,63.258 L66.776,63.474 Z M78.512,69.216 C77.9479972,69.216 77.4560021,69.0990012 77.036,68.865 C76.6159979,68.6309988 76.3400007,68.3700014 76.208,68.082 L76.136,68.082 L76.136,69 L75.056,69 L75.056,66.21 L76.136,66.21 L76.136,66.588 C76.136,67.1040026 76.2979984,67.5239984 76.622,67.848 C76.9460016,68.1720016 77.4799963,68.334 78.224,68.334 C78.9080034,68.334 79.4389981,68.2110012 79.817,67.965 C80.1950019,67.7189988 80.384,67.3260027 80.384,66.786 C80.384,65.9459958 79.8740051,65.4120011 78.854,65.184 L77.774,64.95 C76.8859956,64.757999 76.2170022,64.4340023 75.767,63.978 C75.3169977,63.5219977 75.092,62.898004 75.092,62.106 C75.092,61.2899959 75.3739972,60.6510023 75.938,60.189 C76.5020028,59.7269977 77.2579953,59.496 78.206,59.496 C78.7820029,59.496 79.2529982,59.5859991 79.619,59.766 C79.9850018,59.9460009 80.2279994,60.1799986 80.348,60.468 L80.42,60.468 L80.42,59.712 L81.5,59.712 L81.5,62.502 L80.42,62.502 L80.42,61.818 C80.42,60.8579952 79.7480067,60.378 78.404,60.378 C77.7919969,60.378 77.3150017,60.4949988 76.973,60.729 C76.6309983,60.9630012 76.46,61.3319975 76.46,61.836 C76.46,62.2560021 76.5979986,62.6069986 76.874,62.889 C77.1500014,63.1710014 77.5279976,63.3659995 78.008,63.474 L79.016,63.69 C79.9400046,63.882001 80.6329977,64.1999978 81.095,64.644 C81.5570023,65.0880022 81.788,65.705996 81.788,66.498 C81.788,66.8820019 81.7130007,67.2389984 81.563,67.569 C81.4129992,67.8990017 81.1970014,68.1869988 80.915,68.433 C80.6329986,68.6790012 80.291002,68.8709993 79.889,69.009 C79.486998,69.1470007 79.0280026,69.216 78.512,69.216 Z M85.73,57.57 C85.4179984,57.57 85.1810008,57.4770009 85.019,57.291 C84.8569992,57.1049991 84.776,56.8800013 84.776,56.616 L84.776,56.526 C84.776,56.2619987 84.8569992,56.0370009 85.019,55.851 C85.1810008,55.6649991 85.4179984,55.572 85.73,55.572 C86.0420016,55.572 86.2819992,55.6649991 86.45,55.851 C86.6180008,56.0370009 86.702,56.2619987 86.702,56.526 L86.702,56.616 C86.702,56.8800013 86.6180008,57.1049991 86.45,57.291 C86.2819992,57.4770009 86.0420016,57.57 85.73,57.57 Z M83.66,68.172 L84.992,68.172 L84.992,60.882 L83.66,60.648 L83.66,60.036 L86.468,59.496 L86.468,68.172 L87.8,68.172 L87.8,69 L83.66,69 L83.66,68.172 Z M92.084,69.216 C91.2199957,69.216 90.5450024,68.9910023 90.059,68.541 C89.5729976,68.0909977 89.33,67.4760039 89.33,66.696 C89.33,66.2519978 89.4019993,65.8590017 89.546,65.517 C89.6900007,65.1749983 89.9269983,64.8900011 90.257,64.662 C90.5870016,64.4339989 91.0159974,64.2600006 91.544,64.14 C92.0720026,64.0199994 92.7139962,63.96 93.47,63.96 L94.802,63.96 L94.802,62.592 C94.802,61.8599963 94.6250018,61.299002 94.271,60.909 C93.9169982,60.518998 93.3860035,60.324 92.678,60.324 C92.3659984,60.324 92.0780013,60.3509997 91.814,60.405 C91.5499987,60.4590003 91.3340008,60.5339995 91.166,60.63 L91.166,60.666 C91.2980007,60.7380004 91.4269994,60.8459993 91.553,60.99 C91.6790006,61.1340007 91.742,61.3379987 91.742,61.602 C91.742,61.9140016 91.6520009,62.1569991 91.472,62.331 C91.2919991,62.5050009 91.0520015,62.592 90.752,62.592 C90.4639986,62.592 90.2270009,62.5050009 90.041,62.331 C89.8549991,62.1569991 89.762,61.8960017 89.762,61.548 C89.762,61.2839987 89.8399992,61.0290012 89.996,60.783 C90.1520008,60.5369988 90.3739986,60.318001 90.662,60.126 C90.9500014,59.933999 91.3069979,59.7810006 91.733,59.667 C92.1590021,59.5529994 92.6419973,59.496 93.182,59.496 C94.1540049,59.496 94.9129973,59.7479975 95.459,60.252 C96.0050027,60.7560025 96.278,61.4639954 96.278,62.376 L96.278,68.226 L97.628,68.226 L97.628,68.856 C97.4959993,68.9520005 97.3190011,69.0359996 97.097,69.108 C96.8749989,69.1800004 96.6260014,69.216 96.35,69.216 C95.8819977,69.216 95.5220013,69.0840013 95.27,68.82 C95.0179987,68.5559987 94.892,68.2020022 94.892,67.758 L94.892,67.632 L94.802,67.632 C94.7179996,67.836001 94.6070007,68.033999 94.469,68.226 C94.3309993,68.418001 94.1540011,68.5859993 93.938,68.73 C93.7219989,68.8740007 93.4610015,68.9909995 93.155,69.081 C92.8489985,69.1710005 92.492002,69.216 92.084,69.216 Z M92.714,68.226 C93.2900029,68.226 93.781998,68.0790015 94.19,67.785 C94.598002,67.4909985 94.802,67.0380031 94.802,66.426 L94.802,64.68 L93.632,64.68 C93.1159974,64.68 92.6840017,64.7189996 92.336,64.797 C91.9879983,64.8750004 91.712001,64.9889993 91.508,65.139 C91.303999,65.2890007 91.1570004,65.4719989 91.067,65.688 C90.9769995,65.9040011 90.932,66.1559986 90.932,66.444 L90.932,66.822 C90.932,67.2780023 91.0879984,67.6259988 91.4,67.866 C91.7120016,68.1060012 92.1499972,68.226 92.714,68.226 Z" id="Indonesia" fill="#222222" fill-rule="nonzero"></path>
        </g>
    </g>
</svg>