<?xml version="1.0" encoding="UTF-8"?>
<svg width="200px" height="200px" viewBox="0 0 200 200" version="1.1" xmlns="http://www.w3.org/2000/svg" xmlns:xlink="http://www.w3.org/1999/xlink">
    <!-- Generator: Sketch 57.1 (83088) - https://sketch.com -->
    <title>peru</title>
    <desc>Created with Sketch.</desc>
    <defs>
        <path d="M73.115681,108.166398 C73.1926404,108.041337 73.2642924,107.984017 73.3279829,107.965779 C73.1634489,106.861068 73.1767178,105.839732 73.8534303,105.459336 C75.1352034,104.740232 77.1600333,101.855999 77.1600333,100.589751 C77.1600333,99.3339243 74.7716363,99.3339243 74.7716363,97.7081237 C74.7716363,96.0875341 77.34049,93.3778665 76.2391736,92.476381 C75.1378572,91.5775009 77.8951289,88.8678333 77.7120184,87.4270197 C77.5262542,85.9809951 76.4275916,79.4882148 77.1626871,78.7717161 C77.8951289,78.0526121 79.5510842,77.513284 78.8159886,75.5279314 C78.234812,73.9568453 75.6181903,69.6057445 74.5327966,66.9481859 C72.4867364,66.6641919 69.9868808,66.7084846 68.5273049,67.2321799 C66.5077825,67.9538895 67.0597676,61.6382797 67.0597676,59.2959805 C67.0597676,56.9510759 65.0402452,58.2121135 64.3051496,59.837914 C63.5674003,61.4585036 60.6323257,60.7367941 57.6919436,60.7367941 C54.7489076,60.7367941 56.2217525,57.1282464 54.3853405,57.3080224 C52.5489286,57.4930094 51.0787375,56.7686944 51.2645017,54.9683287 C51.4449584,53.1627522 49.9747673,51.7219385 48.6903404,49.7365859 C47.4059136,47.7512334 45.9330687,45.7736971 47.0370389,44.5100541 C48.1410091,43.2438056 46.3072509,42.1651494 47.9578987,40.5419544 C49.6112002,38.9187593 51.2671555,39.4580873 50.7151704,37.2955642 C50.1658391,35.133041 52.5489286,33.8720034 52.7346928,31.5244933 C52.9178032,29.1795887 55.6724212,29.8986928 58.2439287,27.9211566 C60.8154362,25.9305931 63.5674003,27.0144601 65.7726869,25.211489 C67.8452848,23.5179468 69.2650542,24.9822094 70.7989358,24.8701751 C69.8754223,23.6091375 67.6170602,22.9786187 67.102228,21.9807315 C66.454707,20.6988503 69.4800099,18.3669729 70.3451404,16.8766558 C71.2102709,15.3993658 66.8846184,13.6954018 65.8045322,13.2681081 C64.7217922,12.8486307 62.7765755,14.1148792 61.6938355,13.481755 C60.6137493,12.8486307 58.8834883,13.2681081 58.0210116,13.9090487 C57.1585349,14.5421729 50.6674024,14.9694667 50.885012,13.0570667 C51.0999677,11.1472721 48.2896205,10.5141479 48.50723,9.23226667 C48.7248395,7.96601818 46.9919248,5.623719 44.6141428,5.41528303 C42.2363608,5.20424161 42.6689261,1.38204707 40.9413189,0.324234538 C39.9567685,-0.282835215 37.5206036,0.0741113781 35.5913095,0.488377862 C37.6665612,2.78898985 38.4069642,3.7477953 37.032309,4.83166232 C35.2065122,6.26726505 37.032309,6.51999366 33.5877097,11.0300269 C30.1404567,15.5504819 24.251731,16.6708252 21.3776932,17.5228073 C18.508963,18.3669729 17.3572249,23.5752666 15.778229,27.2489506 C14.1992332,30.9122127 12.906845,29.6433587 11.3278492,27.5277337 C9.74885336,25.4095032 8.45381141,27.9498165 6.58555416,26.2614852 C4.71995068,24.5757593 5.58242739,24.5757593 6.58555416,23.1610002 C7.12957793,22.4028143 6.52717112,21.1886748 5.3833943,20.0240389 C3.33468039,20.4383053 1.25942873,23.2261364 0.240379315,25.3495778 C-0.863590878,27.6527953 2.16967338,32.1133249 2.5836622,33.7339146 C2.99765103,35.3597151 0.930360686,33.8720034 0.654368138,35.3597151 C0.37837559,36.8422159 5.20028386,39.0073446 7.4029167,40.6279342 C9.61085709,42.2537347 11.5374974,46.8575642 13.6021339,49.0174819 C15.6694243,51.1826105 15.8100743,53.0741669 18.0127072,58.3502023 C20.2179938,63.6236322 24.6259132,72.552508 27.6565237,76.3382262 C30.689788,80.1239445 32.0644432,83.1019734 31.3771156,84.1858404 C30.689788,85.2697074 31.5151118,88.2451308 33.7177447,89.7328426 C35.9230313,91.2153434 37.7116753,93.6540442 43.4995575,96.4965897 C49.2847859,99.3365297 59.8919226,104.742838 61.4098816,107.317022 C62.9251869,109.880784 67.8850914,112.31688 68.8484116,112.861419 C69.1111353,113.009929 69.1934023,113.434617 69.1987098,114 C69.7692713,113.538835 70.2469507,113.184494 70.549481,113.041195 C72.3805854,112.137104 72.5636959,109.073095 73.115681,108.166398 Z" id="path-1"></path>
        <filter x="-8.9%" y="-4.4%" width="117.7%" height="112.3%" filterUnits="objectBoundingBox" id="filter-2">
            <feOffset dx="0" dy="2" in="SourceAlpha" result="shadowOffsetOuter1"></feOffset>
            <feGaussianBlur stdDeviation="2" in="shadowOffsetOuter1" result="shadowBlurOuter1"></feGaussianBlur>
            <feColorMatrix values="0 0 0 0 0   0 0 0 0 0   0 0 0 0 0  0 0 0 0.00993546196 0" type="matrix" in="shadowBlurOuter1"></feColorMatrix>
        </filter>
    </defs>
    <g id="peru" stroke="none" stroke-width="1" fill="none" fill-rule="evenodd">
        <g id="Group-22" transform="translate(61.000000, 43.000000)">
            <g id="peru">
                <use fill="black" fill-opacity="1" filter="url(#filter-2)" xlink:href="#path-1"></use>
                <use fill="#999999" fill-rule="evenodd" xlink:href="#path-1"></use>
            </g>
            <path d="M19.99,89.056 L21.34,89.056 L21.34,78.148 L19.99,78.148 L19.99,77.32 L25.858,77.32 C26.9980057,77.32 27.870997,77.6049971 28.477,78.175 C29.083003,78.7450028 29.386,79.5819945 29.386,80.686 C29.386,81.7780055 29.0740031,82.623997 28.45,83.224 C27.8259969,83.824003 26.9500056,84.124 25.822,84.124 L22.888,84.124 L22.888,89.056 L24.598,89.056 L24.598,89.884 L19.99,89.884 L19.99,89.056 Z M22.888,83.242 L25.732,83.242 C26.3800032,83.242 26.8749983,83.038002 27.217,82.63 C27.5590017,82.221998 27.73,81.7240029 27.73,81.136 L27.73,80.308 C27.73,79.7199971 27.5590017,79.222002 27.217,78.814 C26.8749983,78.405998 26.3800032,78.202 25.732,78.202 L22.888,78.202 L22.888,83.242 Z M35.272,90.1 C34.6119967,90.1 34.0210026,89.9830012 33.499,89.749 C32.9769974,89.5149988 32.5360018,89.1880021 32.176,88.768 C31.8159982,88.3479979 31.540001,87.838003 31.348,87.238 C31.155999,86.637997 31.06,85.9720037 31.06,85.24 C31.06,84.5199964 31.164999,83.863003 31.375,83.269 C31.5850011,82.674997 31.8729982,82.1620022 32.239,81.73 C32.6050018,81.2979978 33.0399975,80.9650012 33.544,80.731 C34.0480025,80.4969988 34.599997,80.38 35.2,80.38 C35.8120031,80.38 36.3579976,80.4879989 36.838,80.704 C37.3180024,80.9200011 37.7229984,81.222998 38.053,81.613 C38.3830016,82.0030019 38.6379991,82.4679973 38.818,83.008 C38.9980009,83.5480027 39.088,84.1359968 39.088,84.772 L39.088,85.186 L32.698,85.186 L32.698,85.654 C32.698,86.6740051 32.9529974,87.4779971 33.463,88.066 C33.9730026,88.6540029 34.6539957,88.948 35.506,88.948 C36.2500037,88.948 36.8409978,88.7950015 37.279,88.489 C37.7170022,88.1829985 38.0619987,87.7840025 38.314,87.292 L38.908,87.67 C38.7879994,87.9820016 38.623001,88.2849985 38.413,88.579 C38.202999,88.8730015 37.9480015,89.1309989 37.648,89.353 C37.3479985,89.5750011 37.000002,89.7549993 36.604,89.893 C36.207998,90.0310007 35.7640025,90.1 35.272,90.1 Z M32.698,84.358 L37.54,84.358 L37.54,84.178 C37.54,83.7579979 37.4950005,83.3680018 37.405,83.008 C37.3149996,82.6479982 37.174001,82.3360013 36.982,82.072 C36.789999,81.8079987 36.5470015,81.6010007 36.253,81.451 C35.9589985,81.3009992 35.608002,81.226 35.2,81.226 C34.791998,81.226 34.4320016,81.2979993 34.12,81.442 C33.8079984,81.5860007 33.5470011,81.7899987 33.337,82.054 C33.126999,82.3180013 32.9680005,82.6269982 32.86,82.981 C32.7519995,83.3350018 32.698,83.7219979 32.698,84.142 L32.698,84.358 Z M40.798,89.056 L42.13,89.056 L42.13,81.766 L40.798,81.532 L40.798,80.92 L43.57,80.38 L43.57,82 L43.66,82 C43.7440004,81.807999 43.8489994,81.616001 43.975,81.424 C44.1010006,81.231999 44.2569991,81.0580008 44.443,80.902 C44.6290009,80.7459992 44.8449988,80.6200005 45.091,80.524 C45.3370012,80.4279995 45.6219984,80.38 45.946,80.38 C46.4740026,80.38 46.8969984,80.5059987 47.215,80.758 C47.5330016,81.0100013 47.692,81.3759976 47.692,81.856 C47.692,82.2160018 47.6020009,82.497999 47.422,82.702 C47.2419991,82.906001 47.0080014,83.008 46.72,83.008 C46.3959984,83.008 46.138001,82.9210009 45.946,82.747 C45.753999,82.5729991 45.658,82.3480014 45.658,82.072 C45.658,81.8319988 45.7089995,81.6370007 45.811,81.487 C45.9130005,81.3369992 46.0299993,81.2500001 46.162,81.226 L46.162,81.19 C46.1139998,81.1779999 46.0540004,81.169 45.982,81.163 C45.9099996,81.157 45.8200005,81.154 45.712,81.154 C45.4599987,81.154 45.2080013,81.2169994 44.956,81.343 C44.7039987,81.4690006 44.479001,81.630999 44.281,81.829 C44.082999,82.027001 43.9210006,82.2519987 43.795,82.504 C43.6689994,82.7560013 43.606,83.0079987 43.606,83.26 L43.606,89.056 L45.298,89.056 L45.298,89.884 L40.798,89.884 L40.798,89.056 Z M52.876,90.1 C51.7599944,90.1 50.9590024,89.8090029 50.473,89.227 C49.9869976,88.6449971 49.744,87.7660059 49.744,86.59 L49.744,81.766 L48.412,81.532 L48.412,80.92 L51.22,80.38 L51.22,86.464 C51.22,88.2040087 51.9459927,89.074 53.398,89.074 C53.6620013,89.074 53.9229987,89.0380004 54.181,88.966 C54.4390013,88.8939996 54.672999,88.7800008 54.883,88.624 C55.093001,88.4679992 55.2609994,88.2760011 55.387,88.048 C55.5130006,87.8199989 55.576,87.5500016 55.576,87.238 L55.576,81.766 L54.244,81.532 L54.244,80.92 L57.052,80.38 L57.052,88.714 L58.384,88.948 L58.384,89.56 L55.612,90.1 L55.612,88.48 L55.54,88.48 C55.4679996,88.6600009 55.3570007,88.845999 55.207,89.038 C55.0569993,89.230001 54.8710011,89.4039992 54.649,89.56 C54.4269989,89.7160008 54.1660015,89.8449995 53.866,89.947 C53.5659985,90.0490005 53.2360018,90.1 52.876,90.1 Z" id="Peru" fill="#222222" fill-rule="nonzero"></path>
        </g>
    </g>
</svg>