<?xml version="1.0" encoding="UTF-8"?>
<svg width="200px" height="200px" viewBox="0 0 200 200" version="1.1" xmlns="http://www.w3.org/2000/svg" xmlns:xlink="http://www.w3.org/1999/xlink">
    <!-- Generator: Sketch 57.1 (83088) - https://sketch.com -->
    <title>Tanzania</title>
    <desc>Created with Sketch.</desc>
    <defs>
        <path d="M89.9621774,75.353746 C89.7101449,70.1839464 86.6747967,70.1839464 86.8026393,66.6463315 C86.9341346,63.1269331 87.1825144,59.9682183 85.9186992,59.585675 C84.6512313,59.2031317 85.4109815,56.1792179 87.4308943,53.1553041 C89.4617651,50.1350335 83.7745964,49.7452037 82.883351,45.9671331 C82.5107812,44.3531646 84.3188406,38.9283361 86.6492282,33.0043797 C79.5667491,28.1296849 72.3016378,22.8360141 72.3016378,22.8360141 L72.7363026,17.5933491 L40.4286556,0.495484671 C40.2131495,4.42657261 38.602333,7.46505949 36.2975138,8.52525096 C33.8283257,9.65102128 39.7163898,13.2469284 36.8673265,13.8189217 C34.0292212,14.376342 27.5786497,11.1666214 23.0238011,13.0501919 C19.9701897,14.3326228 20.6020973,6.6963296 22.9799694,0 L15.8463532,0.575636603 C15.8463532,0.575636603 13.9141039,1.06019147 11.8174856,1.64675788 L13.2201013,5.37017945 C13.2201013,5.37017945 14.973371,8.86043177 14.5350536,11.0500368 C14.3341581,12.0410062 12.7635207,12.4854851 11.1198303,12.6785783 C11.7006009,15.2470834 11.4668316,17.1634433 11.4668316,17.1634433 L13.6547661,18.4713771 C13.6547661,18.4713771 8.84423236,27.6342002 6.65629787,28.5049417 C6.07187463,28.7381109 4.69117474,29.5724197 3,30.658114 C4.28938376,37.1067013 5.8673265,44.7612108 8.2342406,46.9107399 C12.595499,50.8819038 11.8394014,55.4214178 12.7781313,58.0700748 C13.7314717,60.7150886 17.52657,63.7462889 14.871097,64.8720592 C13.1580064,65.6079997 11.6312007,63.7790783 10.1080476,61.2907252 C9.95098386,61.7388473 9.7683516,62.1869695 9.56015082,62.6023022 C9.48344527,62.748033 9.3482974,62.8500446 9.23506539,62.9739157 C11.5581478,64.6826092 14.2647579,66.4823844 15.4080358,66.4823844 C17.5959703,66.4823844 21.0952044,69.098252 23.2831389,69.5390876 C25.4710734,69.9653502 33.2767762,73.083989 34.2228114,74.3336305 C34.390833,74.5631565 34.5807706,74.8509748 34.7743608,75.178869 C36.6372099,75.0877873 39.0881348,75.0112786 40.5345823,75.1970854 C40.8487098,74.9165536 41.2285849,74.7016007 41.7874396,74.7016007 C44.676682,74.7016007 48.0919053,85.6314096 47.9421468,91.9852719 C49.6661954,92.2147979 52.0258042,92.4880431 52.789207,92.4880431 C54.0603276,92.4880431 55.5761753,90.7283439 57.8517733,91.4825007 C60.1273713,92.2366575 58.6042182,94 60.6277837,94 C62.6550018,94 66.69848,92.7394287 67.9622953,92.987171 C69.2334158,93.2385566 72.7691764,94 73.0212089,92.4880431 C73.2695888,90.9797295 74.0402969,88.7063292 75.8081772,89.216387 C77.5724049,89.7191582 78.8325675,91.2274718 80.8561329,89.460486 C82.8870037,87.6935003 86.1707317,89.460486 86.9304819,87.9448859 C87.321315,87.1579396 91.8213739,84.9829076 96,83.0920507 C95.7662307,78.2465021 90.2105573,80.4106042 89.9621774,75.353746 Z" id="path-1"></path>
        <filter x="-7.5%" y="-5.3%" width="115.1%" height="114.9%" filterUnits="objectBoundingBox" id="filter-2">
            <feOffset dx="0" dy="2" in="SourceAlpha" result="shadowOffsetOuter1"></feOffset>
            <feGaussianBlur stdDeviation="2" in="shadowOffsetOuter1" result="shadowBlurOuter1"></feGaussianBlur>
            <feColorMatrix values="0 0 0 0 0   0 0 0 0 0   0 0 0 0 0  0 0 0 0.00993546196 0" type="matrix" in="shadowBlurOuter1"></feColorMatrix>
        </filter>
    </defs>
    <g id="Tanzania" stroke="none" stroke-width="1" fill="none" fill-rule="evenodd">
        <g id="Group-23" transform="translate(51.000000, 53.000000)">
            <g id="tanzania">
                <use fill="black" fill-opacity="1" filter="url(#filter-2)" xlink:href="#path-1"></use>
                <use fill="#999999" fill-rule="evenodd" xlink:href="#path-1"></use>
            </g>
            <path d="M3.384,79.92 L5.094,79.92 L5.094,69.066 L1.926,69.066 L1.926,71.208 L0.63,71.208 L0.63,68.184 L11.106,68.184 L11.106,71.208 L9.81,71.208 L9.81,69.066 L6.642,69.066 L6.642,79.92 L8.352,79.92 L8.352,80.748 L3.384,80.748 L3.384,79.92 Z M15.39,80.964 C14.5259957,80.964 13.8510024,80.7390022 13.365,80.289 C12.8789976,79.8389977 12.636,79.2240039 12.636,78.444 C12.636,77.9999978 12.7079993,77.6070017 12.852,77.265 C12.9960007,76.9229983 13.2329984,76.6380011 13.563,76.41 C13.8930016,76.1819989 14.3219974,76.0080006 14.85,75.888 C15.3780026,75.7679994 16.0199962,75.708 16.776,75.708 L18.108,75.708 L18.108,74.34 C18.108,73.6079963 17.9310018,73.0470019 17.577,72.657 C17.2229982,72.266998 16.6920035,72.072 15.984,72.072 C15.6719984,72.072 15.3840013,72.0989997 15.12,72.153 C14.8559987,72.2070003 14.6400008,72.2819995 14.472,72.378 L14.472,72.414 C14.6040007,72.4860004 14.7329994,72.5939993 14.859,72.738 C14.9850006,72.8820007 15.048,73.0859987 15.048,73.35 C15.048,73.6620016 14.9580009,73.9049991 14.778,74.079 C14.5979991,74.2530009 14.3580015,74.34 14.058,74.34 C13.7699986,74.34 13.5330009,74.2530009 13.347,74.079 C13.1609991,73.9049991 13.068,73.6440017 13.068,73.296 C13.068,73.0319987 13.1459992,72.7770012 13.302,72.531 C13.4580008,72.2849988 13.6799986,72.066001 13.968,71.874 C14.2560014,71.681999 14.6129979,71.5290006 15.039,71.415 C15.4650021,71.3009994 15.9479973,71.244 16.488,71.244 C17.4600049,71.244 18.2189973,71.4959975 18.765,72 C19.3110027,72.5040025 19.584,73.2119954 19.584,74.124 L19.584,79.974 L20.934,79.974 L20.934,80.604 C20.8019993,80.7000005 20.6250011,80.7839996 20.403,80.856 C20.1809989,80.9280004 19.9320014,80.964 19.656,80.964 C19.1879977,80.964 18.8280013,80.8320013 18.576,80.568 C18.3239987,80.3039987 18.198,79.9500022 18.198,79.506 L18.198,79.38 L18.108,79.38 C18.0239996,79.584001 17.9130007,79.781999 17.775,79.974 C17.6369993,80.166001 17.4600011,80.3339993 17.244,80.478 C17.0279989,80.6220007 16.7670015,80.7389995 16.461,80.829 C16.1549985,80.9190004 15.798002,80.964 15.39,80.964 Z M16.02,79.974 C16.5960029,79.974 17.087998,79.8270015 17.496,79.533 C17.904002,79.2389985 18.108,78.7860031 18.108,78.174 L18.108,76.428 L16.938,76.428 C16.4219974,76.428 15.9900017,76.4669996 15.642,76.545 C15.2939983,76.6230004 15.018001,76.7369992 14.814,76.887 C14.609999,77.0370007 14.4630004,77.2199989 14.373,77.436 C14.2829995,77.6520011 14.238,77.9039986 14.238,78.192 L14.238,78.57 C14.238,79.0260023 14.3939984,79.3739988 14.706,79.614 C15.0180016,79.8540012 15.4559972,79.974 16.02,79.974 Z M22.464,79.92 L23.796,79.92 L23.796,72.63 L22.464,72.396 L22.464,71.784 L25.236,71.244 L25.236,72.864 L25.308,72.864 C25.3800004,72.6839991 25.4909993,72.498001 25.641,72.306 C25.7910008,72.113999 25.9769989,71.9400008 26.199,71.784 C26.4210011,71.6279992 26.6819985,71.4990005 26.982,71.397 C27.2820015,71.2949995 27.6119982,71.244 27.972,71.244 C29.0880056,71.244 29.8889976,71.5349971 30.375,72.117 C30.8610024,72.6990029 31.104,73.5719942 31.104,74.736 L31.104,79.92 L32.436,79.92 L32.436,80.748 L28.296,80.748 L28.296,79.92 L29.628,79.92 L29.628,74.862 C29.628,73.1339914 28.9020073,72.27 27.45,72.27 C27.1859987,72.27 26.9250013,72.3059996 26.667,72.378 C26.4089987,72.4500004 26.175001,72.5639992 25.965,72.72 C25.754999,72.8760008 25.5870006,73.0679989 25.461,73.296 C25.3349994,73.5240011 25.272,73.7939984 25.272,74.106 L25.272,79.92 L26.604,79.92 L26.604,80.748 L22.464,80.748 L22.464,79.92 Z M33.966,80.118 L39.276,72.306 L35.19,72.306 L35.19,74.25 L34.11,74.25 L34.11,71.46 L41.166,71.46 L41.166,72.09 L35.856,79.902 L40.23,79.902 L40.23,77.958 L41.31,77.958 L41.31,80.748 L33.966,80.748 L33.966,80.118 Z M45.864,80.964 C44.9999957,80.964 44.3250024,80.7390022 43.839,80.289 C43.3529976,79.8389977 43.11,79.2240039 43.11,78.444 C43.11,77.9999978 43.1819993,77.6070017 43.326,77.265 C43.4700007,76.9229983 43.7069984,76.6380011 44.037,76.41 C44.3670017,76.1819989 44.7959974,76.0080006 45.324,75.888 C45.8520026,75.7679994 46.4939962,75.708 47.25,75.708 L48.582,75.708 L48.582,74.34 C48.582,73.6079963 48.4050018,73.0470019 48.051,72.657 C47.6969982,72.266998 47.1660035,72.072 46.458,72.072 C46.1459984,72.072 45.8580013,72.0989997 45.594,72.153 C45.3299987,72.2070003 45.1140008,72.2819995 44.946,72.378 L44.946,72.414 C45.0780007,72.4860004 45.2069994,72.5939993 45.333,72.738 C45.4590006,72.8820007 45.522,73.0859987 45.522,73.35 C45.522,73.6620016 45.4320009,73.9049991 45.252,74.079 C45.0719991,74.2530009 44.8320015,74.34 44.532,74.34 C44.2439986,74.34 44.0070009,74.2530009 43.821,74.079 C43.6349991,73.9049991 43.542,73.6440017 43.542,73.296 C43.542,73.0319987 43.6199992,72.7770012 43.776,72.531 C43.9320008,72.2849988 44.1539986,72.066001 44.442,71.874 C44.7300014,71.681999 45.0869979,71.5290006 45.513,71.415 C45.9390021,71.3009994 46.4219973,71.244 46.962,71.244 C47.9340049,71.244 48.6929973,71.4959975 49.239,72 C49.7850027,72.5040025 50.058,73.2119954 50.058,74.124 L50.058,79.974 L51.408,79.974 L51.408,80.604 C51.2759993,80.7000005 51.0990011,80.7839996 50.877,80.856 C50.6549989,80.9280004 50.4060014,80.964 50.13,80.964 C49.6619977,80.964 49.3020013,80.8320013 49.05,80.568 C48.7979987,80.3039987 48.672,79.9500022 48.672,79.506 L48.672,79.38 L48.582,79.38 C48.4979996,79.584001 48.3870007,79.781999 48.249,79.974 C48.1109993,80.166001 47.9340011,80.3339993 47.718,80.478 C47.5019989,80.6220007 47.2410015,80.7389995 46.935,80.829 C46.6289985,80.9190004 46.272002,80.964 45.864,80.964 Z M46.494,79.974 C47.0700029,79.974 47.561998,79.8270015 47.97,79.533 C48.378002,79.2389985 48.582,78.7860031 48.582,78.174 L48.582,76.428 L47.412,76.428 C46.8959974,76.428 46.4640017,76.4669996 46.116,76.545 C45.7679983,76.6230004 45.492001,76.7369992 45.288,76.887 C45.083999,77.0370007 44.9370005,77.2199989 44.847,77.436 C44.7569996,77.6520011 44.712,77.9039986 44.712,78.192 L44.712,78.57 C44.712,79.0260023 44.8679984,79.3739988 45.18,79.614 C45.4920016,79.8540012 45.9299972,79.974 46.494,79.974 Z M52.938,79.92 L54.27,79.92 L54.27,72.63 L52.938,72.396 L52.938,71.784 L55.71,71.244 L55.71,72.864 L55.782,72.864 C55.8540004,72.6839991 55.9649993,72.498001 56.115,72.306 C56.2650008,72.113999 56.4509989,71.9400008 56.673,71.784 C56.8950011,71.6279992 57.1559985,71.4990005 57.456,71.397 C57.7560015,71.2949995 58.0859982,71.244 58.446,71.244 C59.5620056,71.244 60.3629976,71.5349971 60.849,72.117 C61.3350024,72.6990029 61.578,73.5719942 61.578,74.736 L61.578,79.92 L62.91,79.92 L62.91,80.748 L58.77,80.748 L58.77,79.92 L60.102,79.92 L60.102,74.862 C60.102,73.1339914 59.3760073,72.27 57.924,72.27 C57.6599987,72.27 57.3990013,72.3059996 57.141,72.378 C56.8829987,72.4500004 56.6490011,72.5639992 56.439,72.72 C56.228999,72.8760008 56.0610006,73.0679989 55.935,73.296 C55.8089994,73.5240011 55.746,73.7939984 55.746,74.106 L55.746,79.92 L57.078,79.92 L57.078,80.748 L52.938,80.748 L52.938,79.92 Z M66.51,69.318 C66.1979984,69.318 65.9610008,69.2250009 65.799,69.039 C65.6369992,68.8529991 65.556,68.6280013 65.556,68.364 L65.556,68.274 C65.556,68.0099987 65.6369992,67.7850009 65.799,67.599 C65.9610008,67.4129991 66.1979984,67.32 66.51,67.32 C66.8220016,67.32 67.0619992,67.4129991 67.23,67.599 C67.3980008,67.7850009 67.482,68.0099987 67.482,68.274 L67.482,68.364 C67.482,68.6280013 67.3980008,68.8529991 67.23,69.039 C67.0619992,69.2250009 66.8220016,69.318 66.51,69.318 Z M64.44,79.92 L65.772,79.92 L65.772,72.63 L64.44,72.396 L64.44,71.784 L67.248,71.244 L67.248,79.92 L68.58,79.92 L68.58,80.748 L64.44,80.748 L64.44,79.92 Z M72.864,80.964 C71.9999957,80.964 71.3250024,80.7390022 70.839,80.289 C70.3529976,79.8389977 70.11,79.2240039 70.11,78.444 C70.11,77.9999978 70.1819993,77.6070017 70.326,77.265 C70.4700007,76.9229983 70.7069984,76.6380011 71.037,76.41 C71.3670017,76.1819989 71.7959974,76.0080006 72.324,75.888 C72.8520026,75.7679994 73.4939962,75.708 74.25,75.708 L75.582,75.708 L75.582,74.34 C75.582,73.6079963 75.4050018,73.0470019 75.051,72.657 C74.6969982,72.266998 74.1660035,72.072 73.458,72.072 C73.1459984,72.072 72.8580013,72.0989997 72.594,72.153 C72.3299987,72.2070003 72.1140008,72.2819995 71.946,72.378 L71.946,72.414 C72.0780007,72.4860004 72.2069994,72.5939993 72.333,72.738 C72.4590006,72.8820007 72.522,73.0859987 72.522,73.35 C72.522,73.6620016 72.4320009,73.9049991 72.252,74.079 C72.0719991,74.2530009 71.8320015,74.34 71.532,74.34 C71.2439986,74.34 71.0070009,74.2530009 70.821,74.079 C70.6349991,73.9049991 70.542,73.6440017 70.542,73.296 C70.542,73.0319987 70.6199992,72.7770012 70.776,72.531 C70.9320008,72.2849988 71.1539986,72.066001 71.442,71.874 C71.7300014,71.681999 72.0869979,71.5290006 72.513,71.415 C72.9390021,71.3009994 73.4219973,71.244 73.962,71.244 C74.9340049,71.244 75.6929973,71.4959975 76.239,72 C76.7850027,72.5040025 77.058,73.2119954 77.058,74.124 L77.058,79.974 L78.408,79.974 L78.408,80.604 C78.2759993,80.7000005 78.0990011,80.7839996 77.877,80.856 C77.6549989,80.9280004 77.4060014,80.964 77.13,80.964 C76.6619977,80.964 76.3020013,80.8320013 76.05,80.568 C75.7979987,80.3039987 75.672,79.9500022 75.672,79.506 L75.672,79.38 L75.582,79.38 C75.4979996,79.584001 75.3870007,79.781999 75.249,79.974 C75.1109993,80.166001 74.9340011,80.3339993 74.718,80.478 C74.5019989,80.6220007 74.2410015,80.7389995 73.935,80.829 C73.6289985,80.9190004 73.272002,80.964 72.864,80.964 Z M73.494,79.974 C74.0700029,79.974 74.561998,79.8270015 74.97,79.533 C75.378002,79.2389985 75.582,78.7860031 75.582,78.174 L75.582,76.428 L74.412,76.428 C73.8959974,76.428 73.4640017,76.4669996 73.116,76.545 C72.7679983,76.6230004 72.492001,76.7369992 72.288,76.887 C72.083999,77.0370007 71.9370005,77.2199989 71.847,77.436 C71.7569996,77.6520011 71.712,77.9039986 71.712,78.192 L71.712,78.57 C71.712,79.0260023 71.8679984,79.3739988 72.18,79.614 C72.4920016,79.8540012 72.9299972,79.974 73.494,79.974 Z" id="Tanzania" fill="#222222" fill-rule="nonzero"></path>
        </g>
    </g>
</svg>