<?xml version="1.0" encoding="UTF-8"?>
<svg width="223px" height="174px" viewBox="0 0 223 174" version="1.1" xmlns="http://www.w3.org/2000/svg" xmlns:xlink="http://www.w3.org/1999/xlink">
    <!-- Generator: sketchtool 57.1 (101010) - https://sketch.com -->
    <title>D359BB9C-F771-4DBC-82CE-3FF750213745</title>
    <desc>Created with sketchtool.</desc>
    <defs>
        <path d="M410.436652,275.849821 C409.745372,275.09555 407.935121,275.257179 407.668455,274.557821 C407.402815,273.859498 405.751537,271.333518 404.846924,271.384287 C403.941286,271.439199 402.771033,271.49204 401.705395,270.685964 C400.640782,269.877816 399.949502,269.826012 399.203863,270.309865 C398.458224,270.794753 400.00181,270.900434 399.949502,271.439199 C399.896169,271.975892 400.42745,272.300187 401.067448,272.192434 C401.705395,272.085717 402.077701,273.430558 402.7177,273.483399 C403.356672,273.538311 403.568979,274.557821 404.314618,274.557821 C405.060257,274.557821 405.219231,275.419845 405.592563,275.903697 C405.965896,276.389622 406.817175,275.957574 406.817175,276.442462 C406.817175,276.875547 407.668455,277.267188 407.883839,277.811133 C409.341271,277.986232 410.590498,278.125067 411.676649,277.821494 C411.687931,277.48373 411.773059,277.109702 411.928956,276.817526 C412.300237,276.119203 411.128958,276.603056 410.436652,275.849821 Z M408.408733,191.076945 C410.314383,191.513657 410.520345,195 411.795876,195 C412.644192,195 412.007955,193.910321 413.384428,193.910321 C414.760901,193.910321 414.442783,193.147125 415.713217,193.256303 C416.98467,193.365481 418.043025,192.92877 418.043025,191.403429 C418.043025,189.877038 418.99636,189.332199 420.265774,189.004665 C421.536208,188.679231 420.370794,187.043662 422.171425,186.606951 C423.971036,186.171289 428.947751,183.991931 429.793007,183.337913 C430.640303,182.683896 428.734652,181.812572 426.829002,180.612666 C424.923351,179.413809 423.441858,179.086275 421.959346,180.067826 C420.476833,181.049377 421.641228,178.978147 420.476833,179.522986 C419.312439,180.067826 416.136355,178.650613 415.713217,178.105774 C415.290079,177.559884 409.573127,179.304631 408.196654,179.304631 C406.820181,179.304631 408.302694,180.831021 409.256029,181.593167 C410.208344,182.357412 406.92724,184.754076 407.562457,185.299966 C408.197674,185.844805 406.92724,187.260968 405.444728,189.004665 C403.962215,190.750461 406.504102,190.641283 408.408733,191.076945 Z M462.56293,199.430861 C463.207841,198.696726 465.8898,200.900142 465.997285,199.326707 C466.10477,197.751249 462.992871,197.016103 461.705117,196.176803 C460.418397,195.33548 459.882005,195.756141 457.841856,194.285849 C455.80274,192.816567 458.378248,192.081421 456.875524,190.926625 C455.373834,189.771828 454.837442,186.621924 455.909192,185.573304 C456.981975,184.521651 458.163278,182.948215 456.231647,182.213069 C454.300016,181.478934 451.188117,182.844061 451.510573,183.2627 C451.831994,183.683362 454.513953,185.152643 454.513953,185.783635 C454.513953,186.412605 452.045931,183.998858 451.187084,184.522662 C450.32927,185.048489 449.363972,183.474042 448.611576,184.522662 C447.861248,185.574315 449.577908,189.248024 450.220752,190.296644 C450.865662,191.347286 449.577908,191.347286 448.719062,191.556606 C447.861248,191.767948 447.753763,188.617032 446.894916,187.463247 C446.036069,186.30845 442.602748,184.942312 442.387778,185.783635 C442.172808,186.622935 444.533345,186.622935 444.211924,187.777732 C443.890502,188.933539 442.602748,187.042585 441.421446,187.988062 C440.241178,188.933539 440.456148,188.303558 440.670084,187.358081 C440.885054,186.412605 438.953424,185.363985 436.807857,185.573304 C434.661256,185.783635 435.841525,187.252916 435.198681,187.777732 C434.554805,188.303558 431.33542,187.463247 433.373502,187.042585 C435.412618,186.621924 434.554805,185.468139 433.803443,184.313342 C433.052081,183.158546 431.013999,184.522662 427.687129,185.677458 C424.361294,186.833266 422.85857,188.092217 423.287477,188.197382 C423.717417,188.302547 423.823868,188.826352 422.536115,189.876994 C421.248361,190.926625 422.536115,191.872102 423.717417,191.872102 C424.897686,191.872102 423.857974,192.797355 424.682715,193.026898 C425.434077,193.237229 429.297338,191.556606 430.370122,192.291752 C431.443939,193.026898 424.039872,193.446548 424.039872,194.70651 C424.039872,195.966472 428.11707,196.701618 431.122517,196.176803 C434.126931,195.650976 439.384398,196.596453 439.384398,197.331599 C439.384398,198.066745 435.843592,197.856414 433.161633,197.751249 C430.479674,197.647095 425.865051,198.486395 426.078988,199.326707 C426.318762,200.266117 426.615379,200.272184 429.404823,201.530123 C432.195301,202.791096 435.091196,200.899131 434.984745,202.685931 C434.87726,204.471719 436.487469,204.891369 440.242211,204.995524 C443.997987,205.100689 445.714647,203.316923 447.539826,203.422088 C449.363972,203.526242 450.221785,203.211758 451.080632,201.952807 C451.938446,200.691834 452.690841,201.42698 452.904778,202.056961 C453.119748,202.686942 455.480285,202.580765 456.016677,203.105581 C457.385044,204.445428 461.91802,204.052069 463.63468,203.210746 C465.351341,202.371446 462.883318,200.060842 462.024472,201.110473 C461.166658,202.161115 460.41633,201.530123 460.20136,201.006319 C459.988456,200.480492 461.920087,200.167019 462.56293,199.430861 Z M421.134674,173.979222 C423.121441,174.221524 425.106084,172.286604 424.99559,171.197411 C424.886159,170.110548 420.149789,173.860401 421.134674,173.979222 Z M413.1434,170.184837 C413.894512,170.505887 413.1434,172.001029 414.000928,171.573992 C414.859489,171.145927 415.074387,171.039939 415.71805,171.252943 C416.877263,171.63882 417.111791,170.611874 417.649038,170.077821 C418.185251,169.542739 417.971386,172 419.365127,172 C420.545003,172 420.331137,169.435723 421.403564,170.183808 C422.477024,170.931894 422.798339,169.863788 423.013237,169.115702 C423.228136,168.367617 423.228136,167.086507 424.408012,166.872474 C425.587887,166.658441 424.62291,168.047596 425.159123,169.009715 C425.939164,170.410189 427.303977,169.116731 427.412459,168.474633 C427.519908,167.834593 429.450896,168.261629 429.342414,167.513543 C429.234964,166.765458 429.87966,166.551425 429.342414,165.696323 C428.807234,164.84225 430.202008,165.055253 430.844637,164.414184 C431.489333,163.773115 429.987109,164.307168 428.91365,163.346078 C427.841223,162.38396 427.412459,163.666098 427.412459,164.307168 C427.412459,164.948237 425.372989,164.414184 424.194146,163.986119 C423.01427,163.559082 421.512047,165.375274 419.795957,166.230376 C418.079868,167.085478 417.973452,168.58062 416.363779,168.473604 C414.75204,168.368646 412.393321,169.864817 413.1434,170.184837 Z M429.631182,169.671966 C428.112202,169.778358 428.219879,171.265806 429.958395,171.265806 C431.693774,171.265806 432.237387,171.796745 429.74095,171.690353 C427.244512,171.583961 426.158332,173.70874 427.894757,173.284193 C429.631182,172.858624 431.693774,172.858624 430.391194,173.284193 C429.087569,173.70874 425.540495,174.001319 426.04961,174.664226 C426.375777,175.088773 427.786034,174.983403 429.197337,175.514343 C430.607594,176.046305 431.476329,176.363436 432.562509,175.195165 C433.646598,174.026895 435.058946,172.859647 434.516379,174.452464 C433.972766,176.046305 436.252804,174.878034 439.183086,174.770619 C442.114413,174.664226 438.640518,176.470852 435.601514,176.682613 C432.562509,176.895398 433.105076,178.381823 435.492791,178.912762 C437.880506,179.443702 442.983148,177.425314 444.17596,176.257044 C445.369817,175.088773 446.454952,176.894375 447.648809,176.045282 C448.843712,175.194142 451.123749,176.151674 453.185296,175.726104 C455.247889,175.301558 455.573011,171.477568 454.054031,170.840236 C452.535052,170.202905 452.535052,171.583961 451.341195,171.796745 C450.147337,172.00953 449.495002,170.522082 448.519635,169.566596 C447.542178,168.610087 448.192422,166.804485 446.782165,167.01727 C445.382362,167.228009 442.331858,169.460204 444.177005,169.671966 C446.022153,169.884751 445.370863,170.841259 444.39445,171.265806 C443.418038,171.690353 446.674488,172.433054 446.239598,173.071409 C445.805753,173.709763 440.812879,173.177801 440.596479,172.115923 C440.379034,171.053021 436.47234,169.141027 434.844637,169.566596 C433.21589,169.991143 433.86718,168.291933 432.239478,168.185541 C430.608639,168.079148 431.151207,169.566596 429.631182,169.671966 Z M434.955666,162.222904 C435.445289,160.610921 431.711325,160.877429 432.017929,161.416913 C432.703778,162.626547 434.4651,163.834887 434.955666,162.222904 Z M443.296865,161.987978 C444.633105,161.780888 444.016455,160.746436 441.857684,161.058066 C439.699902,161.367705 436,161.365714 436,162.918884 C436,164.15943 436.71959,164.779703 439.082262,164.986792 C441.445924,165.192886 443.501755,162.918884 442.371394,162.918884 C441.241033,162.918884 441.960624,162.195067 443.296865,161.987978 Z M439.10691,159.680686 C440.168249,160.145346 441.228568,158.637436 441.970178,159.333309 C442.712809,160.029181 446,160.608888 446,158.752484 C446,156.897197 441.863941,156.664868 440.803623,157.36074 C439.742283,158.056612 434.864615,158.288942 436.243642,159.448356 C437.089445,160.1621 438.046591,159.218261 439.10691,159.680686 Z M456.1499,156.733204 C457.450231,155.916431 459.834866,157.243318 459.400726,158.161327 C458.966587,159.08032 455.216918,157.976546 455.499735,158.774644 C455.60827,159.08032 456.042409,160.305971 458.642026,159.591417 C461.242687,158.876864 463.410253,159.386978 465.142635,160.713866 C466.877105,162.040753 468.501996,162.550867 469.693792,161.22398 C470.885587,159.897093 468.176392,159.693637 468.718022,158.673408 C469.260696,157.653179 466.984596,157.039862 465.7928,157.039862 C464.601005,157.039862 464.167909,154.999404 463.192139,155.407299 C462.217413,155.816177 461.567248,156.529748 461.567248,155.20286 C461.567248,153.876956 455.932831,153.773753 454.523965,154.284851 C453.116144,154.793982 454.84957,157.548994 456.1499,156.733204 Z M457.879718,165.673677 C458.790259,164.485196 454.239742,160.686406 454.011833,162.467411 C453.783924,164.249559 456.912199,166.936509 457.879718,165.673677 Z M470.936893,151.57487 C471.580742,150.353474 467.059627,149.397302 468.179057,150.456236 C468.82202,151.066934 470.293044,152.793329 470.936893,151.57487 Z M459.826067,175.616629 C460.720942,174.825449 457.909535,173.145023 457.142675,174.528399 C456.374585,175.912726 458.915191,176.421138 459.826067,175.616629 Z M470.767621,168.172379 C470.662736,169.299546 468.254425,167.946511 466.369529,167.15706 C464.484632,166.368695 465.637354,168.735963 467.103721,170.087911 C468.569079,171.440946 466.369529,170.765515 464.380756,169.299546 C462.390975,167.833577 462.599735,170.314865 463.542688,171.10323 C464.48564,171.892682 463.333927,173.018763 462.076321,171.215078 C460.819723,169.41248 460.192433,167.494776 458.202652,167.382928 C456.213879,167.269994 457.119517,169.464603 457.889006,170.539647 C458.935835,172.00453 459.983672,172.343331 461.6588,173.357564 C463.334936,174.372883 466.056892,172.905829 467.312481,173.244631 C468.568071,173.583432 465.94999,175.274183 466.789067,176.40135 C467.627135,177.528517 469.930561,176.739065 471.709565,176.626132 C473.490586,176.513198 472.652518,175.386031 473.699346,174.596579 C474.747183,173.807128 472.652518,173.921148 473.490586,172.003444 C474.327645,170.087911 470.871497,167.044126 470.767621,168.172379 Z M476.225993,162 C477.834479,162 479.119823,161.798841 480.513569,161.29691 C481.907315,160.794979 479.763011,160.794979 480.727277,159.590925 C481.692575,158.385904 478.369265,158.284357 478.154525,158.686676 C477.939785,159.088994 473.760611,156.276634 473.116391,157.179916 C472.475267,158.083198 474.618539,162 476.225993,162 Z M483.993614,162.200335 C483.785262,161.576321 475.90094,162.526867 477.130017,163.449367 C479.209531,165.008903 484.202968,162.82435 483.993614,162.200335 Z M483.012745,177.991872 C484.844399,177.87303 483.928082,175.26193 481.893564,173.482726 C479.858066,171.703522 475.286281,175.361346 476.094796,176.092683 C477.008173,176.923435 481.18011,178.109571 483.012745,177.991872 Z M469.615553,192.52568 C471.921265,194.090526 471.187354,191.2734 473.808032,191.376919 C476.42871,191.482449 476.532689,187.203995 476.952643,185.639148 C477.371588,184.073297 474.855899,184.177821 475.485831,185.325576 C476.113744,186.473331 475.380842,187.621087 475.169856,186.264283 C474.959878,184.908485 472.969132,186.160764 472.235221,185.117533 C471.501311,184.073297 474.540933,183.969778 475.275854,182.612974 C476.009765,181.257176 472.864144,181.465219 473.599064,180.420983 C474.332975,179.377752 468.986631,180.525507 470.558432,181.151647 C472.131242,181.778791 470.66342,182.612974 469.195599,181.568738 C467.728786,180.525507 463.664515,182.271261 465.108108,183.448162 C466.260964,184.385864 469.719532,182.821018 467.728786,185.534624 C465.737031,188.248231 464.898131,184.803961 463.012374,185.117533 C461.125607,185.431105 461.964507,187.725611 464.794152,188.560798 C467.623798,189.394981 467.309841,190.960833 469.615553,192.52568 Z M487.199698,176.12613 C487.958851,178.334741 488.827648,176.788607 490.01911,177.671201 C491.211617,178.554857 493.054677,179.106744 494.03103,178.223087 C495.006337,177.340494 495.440736,176.678017 495.76549,177.450021 C496.294913,178.705855 498.693502,178.885564 503.896884,178.996154 C509.100266,179.106744 507.800203,176.788607 509.317465,177.671201 C510.834726,178.554857 514.305736,178.554857 515.821953,178.223087 C517.340259,177.892381 518.098367,175.463654 517.989768,174.24929 C517.881168,173.033863 506.280853,172.04068 504.220594,173.255043 C502.160335,174.469407 498.907568,172.702093 497.281707,173.58575 C495.654802,174.469407 496.1978,172.481977 493.269788,172.370323 C490.342821,172.260797 493.486987,170.714663 494.028941,170.052186 C494.571939,169.390773 489.583668,167.624523 487.524453,168.065819 C485.465238,168.507116 484.271686,167.403343 482.320027,166.519686 C480.368367,165.636029 475.071005,165.846576 476.141337,167.403343 C476.90049,168.507116 483.187779,170.825253 483.838332,169.722543 C484.488886,168.617706 486.115791,171.046433 487.091099,172.260797 C488.067451,173.476223 486.440545,173.91752 487.199698,176.12613 Z M492.275011,163.227919 C490.238549,162.362742 487.684527,164.192105 489.786365,164.861114 C491.59728,165.436664 494.311473,164.09217 492.275011,163.227919 Z M477.00536,150.995048 C478.603188,151.767623 477.655554,152.773886 479.389057,153.505164 C481.123603,154.237449 486.108075,152.563367 486.54119,153.714676 C486.974304,154.864978 481.448178,154.969734 482.206912,155.702019 C482.965645,156.434304 486.108075,157.584606 485.673917,158.212135 C485.240802,158.839664 490.874424,160.616488 491.416078,159.780454 C491.958776,158.943413 493.4752,159.151918 494.883083,159.675698 C496.292011,160.198471 496.40055,156.433297 497.376363,157.060826 C498.352176,157.689362 498.242592,155.701012 499.868599,155.073483 C501.493562,154.445954 503.835512,154.438903 503.986841,153.713669 C504.095381,153.190896 503.552683,152.457603 501.602101,152.668123 C499.652563,152.876627 498.353219,152.144342 499.219449,151.099804 C500.086722,150.05325 497.051788,149.738982 498.135096,148.902948 C499.219449,148.065907 496.077019,147.229873 496.40055,148.483924 C496.726169,149.738982 494.451012,148.58868 494.125393,147.438378 C493.800818,146.288076 489.358001,145.869052 486.43265,143.359943 C483.507299,140.849827 480.473409,142.522902 482.206912,142.836162 C483.941458,143.150431 483.831874,143.987472 482.423991,143.882716 C481.015063,143.77796 478.522827,143.987472 480.799028,144.823506 C483.073141,145.660547 480.581949,145.973808 478.739907,145.973808 C476.896821,145.973808 476.789325,148.275419 479.173021,148.58868 C481.557761,148.902948 479.823215,150.261755 477.872634,149.738982 C475.922052,149.217216 475.271858,150.159014 477.00536,150.995048 Z M489.726296,140.122465 C491.237604,139.150212 492.424614,139.799074 491.130544,140.446896 C489.834395,141.093679 490.265752,141.526254 492.101357,141.41811 C493.935922,141.311006 491.345703,141.958829 491.345703,143.038186 C491.345703,144.118584 493.503526,143.470761 493.611625,144.550119 C493.718685,145.629476 498.358629,146.062051 499.762877,144.766406 C501.165046,143.470761 500.62559,145.089797 500.518531,145.953907 C500.410432,146.816977 507.101139,147.572944 507.425436,146.494626 C507.749733,145.414229 508.720546,145.846804 510.015656,146.170195 C511.310765,146.494626 517.678215,144.982694 517.785275,143.687049 C517.893374,142.391404 519.836038,144.334871 517.785275,145.73866 C515.734511,147.142448 511.634023,146.927201 509.799458,147.46688 C507.964892,148.006558 510.986468,149.302203 512.821034,150.705992 C514.655599,152.109781 510.447012,151.353815 508.720546,149.517451 C506.994079,147.683167 503.10875,147.683167 501.057987,147.790271 C499.008262,147.898415 499.655817,151.677206 501.166086,151.677206 C502.677393,151.677206 504.188701,152.216885 505.69897,154.590847 C507.210278,156.96689 510.448052,156.426171 510.448052,157.505529 C510.448052,158.584886 506.238425,156.642458 503.864404,156.209884 C501.491422,155.777309 497.714192,157.289241 497.606093,159.017461 C497.497994,160.744641 501.059026,160.529393 503.433047,159.125605 C505.808108,157.722856 504.081642,159.55818 502.893592,160.637537 C501.705541,161.717934 505.69897,162.581004 505.69897,163.876649 C505.69897,165.172294 502.785492,164.73972 502.461195,163.552218 C502.136898,162.364717 501.057987,161.177216 498.252608,161.392463 C495.446191,161.608751 496.201845,163.552218 497.929351,163.768506 C499.655817,163.983753 499.763916,165.279398 497.820212,165.279398 C495.877548,165.279398 491.495378,166.499135 492.857011,167.763584 C494.367279,169.167373 499.870976,167.763584 500.842828,168.627694 C501.81364,169.491804 504.511959,169.815196 505.158474,168.843982 C505.807069,167.871728 507.964892,168.304303 510.122715,168.304303 C512.280539,168.304303 512.821034,168.627694 513.791846,169.491804 C514.762659,170.355914 516.490165,170.031483 517.677176,169.167373 C518.864186,168.304303 518.864186,168.304303 520.374455,168.304303 C521.884723,168.304303 522.20902,167.332049 521.454406,166.145588 C520.698752,164.957047 518.756087,167.008658 518.539889,166.145588 C518.27276,165.076629 516.490165,164.740759 513.467549,165.172294 C510.447012,165.604869 511.741083,163.228827 513.575648,163.769546 C515.410214,164.309224 517.892334,164.093977 519.943098,163.553258 C521.993862,163.013579 520.374455,162.041326 520.374455,161.178256 C520.374455,160.314146 522.964674,160.853824 524.907339,160.853824 C526.848964,160.853824 529.655382,157.723896 529.763481,155.888572 C529.87158,154.052208 525.446795,154.484783 523.288971,154.484783 C521.130109,154.484783 524.691141,152.863667 528.792668,153.080995 C532.894195,153.297282 531.05859,151.461958 531.814244,150.813096 C532.569898,150.165273 534.512563,151.569062 536.562287,151.137527 C538.613051,150.704952 537.209842,148.977772 538.613051,148.977772 C539.60777,148.977772 541.850825,147.46688 546.27561,144.983733 C550.699356,142.501627 554.153328,142.932122 554.368487,141.529373 C554.584685,140.125585 548.217235,141.529373 547.137284,141.096799 C546.058373,140.665264 551.562069,139.477762 552.858219,139.802193 C554.152289,140.125585 555.879795,139.802193 560.30458,137.641399 C564.729365,135.482684 562.7867,134.943005 560.953174,135.267436 C559.117569,135.590827 557.066806,134.941965 557.175944,133.755504 C557.283004,132.566963 554.476586,133.64736 554.368487,132.999537 C554.260388,132.350675 551.670169,132.675106 548.86479,133.755504 C546.058373,134.834861 548.648592,132.675106 549.836642,132.243571 C551.023653,131.812036 542.713539,132.243571 541.311369,131.272357 C539.908161,130.300104 538.288754,132.891394 536.994683,131.595749 C535.699574,130.300104 532.35474,131.380501 532.786096,132.351715 C533.218493,133.323969 532.246641,133.323969 530.951531,132.243571 C529.656421,131.164214 527.174301,132.351715 524.908378,132.027284 C522.642456,131.702853 523.612229,133.862608 521.131148,132.78325 C518.650067,131.702853 515.952788,132.242531 516.707402,132.566963 C517.463056,132.891394 516.491204,133.539216 515.412293,133.215825 C514.332342,132.891394 513.361529,133.323969 513.900985,134.402286 C514.44148,135.482684 509.907557,134.078895 509.907557,135.267436 C509.907557,136.453897 508.289189,137.10172 506.994079,136.022362 C505.69897,134.941965 501.598482,134.618574 502.785492,135.589788 C503.972503,136.562041 499.115322,136.022362 500.410432,136.993576 C501.705541,137.96479 498.792064,138.720756 498.792064,138.181077 C498.792064,137.641399 496.093746,136.669145 495.014834,137.640359 C493.935922,138.612613 493.612665,139.801154 493.072169,139.152291 C492.532714,138.505509 490.158692,138.720756 487.89173,139.583826 C485.625808,140.446896 488.214988,141.092639 489.726296,140.122465 Z M516.882334,232.991798 C517.544286,232.874381 518.868191,229.884867 517.166418,230.003435 C515.464644,230.124305 515.853439,233.178282 516.882334,232.991798 Z M507.484701,230.77281 C509.379945,231.809074 512.223381,229.011461 511.986048,228.183647 C511.749856,227.355832 505.194661,229.52311 507.484701,230.77281 Z M514.991352,224.650418 C515.200411,223.533923 511.5479,223.085389 511.755955,221.85918 C511.965014,220.628668 508.312503,219.625113 507.164686,218.955001 C506.016869,218.283813 504.242879,217.949294 504.242879,216.610145 C504.242879,215.270996 501.738185,216.273476 501.633655,218.283813 C501.529126,220.296301 500.485838,219.847767 501.007482,221.745164 C501.529126,223.644712 498.710843,224.092171 499.024432,225.097877 C499.338021,226.102508 500.693893,224.984937 501.94624,224.984937 C503.199591,224.984937 501.607523,226.854367 503.199591,226.994198 C504.451938,227.107139 506.643043,225.54426 507.164686,224.650418 C507.68633,223.755501 508.730623,223.420983 510.191024,224.537478 C511.651425,225.655049 514.782292,225.767989 514.991352,224.650418 Z M549.973553,215.320203 C551.257256,215.426657 551.47155,217.022449 553.503221,218.721625 C555.534892,220.4208 555.749186,219.253897 556.069597,218.084946 C556.391038,216.913948 558.635973,217.871013 558.529856,216.702063 C558.422709,215.533112 560.349294,214.152276 561.631967,213.621028 C562.91567,213.088756 560.562558,211.813351 558.851297,211.918781 C557.139006,212.026259 556.818595,210.856285 556.818595,210.112128 C556.818595,209.368994 553.609338,207.562341 552.539929,207.881704 C551.47052,208.200044 549.652112,206.499845 548.261262,206.39339 C546.870412,206.287959 544.837711,205.224439 545.052004,203.736126 C545.266298,202.248835 547.832674,204.161943 548.367379,202.991969 C548.902083,201.824041 545.692826,202.461744 545.585679,201.610109 C545.478532,200.760521 546.335708,201.078861 546.976529,200.547613 C547.61838,200.016364 546.441824,198.952844 545.692826,198.529074 C544.943827,198.10428 544.729533,199.378662 543.980535,199.378662 C543.232567,199.378662 543.873388,198.209711 544.409123,197.465554 C544.943827,196.722421 541.948864,195.871809 540.665161,196.296603 C539.381458,196.722421 538.95287,195.978264 538.95287,195.127652 C538.95287,194.277041 536.706905,195.127652 535.850759,195.765355 C534.994614,196.404081 533.925205,195.127652 534.994614,195.021198 C536.064023,194.914744 537.347726,194.065156 537.027315,193.10809 C536.705874,192.152048 533.925205,192.045594 533.3905,193.214544 C532.855795,194.384519 530.60983,191.938116 530.60983,190.983097 C530.60983,190.026032 527.186279,190.876643 527.614867,189.282898 C528.043454,187.68813 523.657641,187.263336 522.481085,187.263336 C521.303498,187.263336 519.593268,188.219378 519.806532,189.282898 C520.019795,190.345395 518.522829,189.919577 518.308535,188.75165 C518.094241,187.582699 515.206424,190.027055 514.351309,190.027055 C513.496194,190.027055 514.886014,186.944997 514.458456,185.987931 C514.030898,185.031889 513.389047,184.712526 512.747195,183.119805 C512.105344,181.525036 508.896086,182.162739 508.040971,183.119805 C507.185856,184.075847 504.404156,183.651053 502.907189,185.138343 C501.409192,186.626657 503.013306,188.113947 503.656188,188.645196 C504.298039,189.17542 501.410222,190.027055 502.372485,190.876643 C503.334747,191.726231 504.832744,191.301437 504.939891,192.683296 C505.047038,194.065156 501.410222,192.257479 500.875518,191.088528 C500.340813,189.918554 501.088782,188.857081 500.340813,188.006469 C499.591815,187.156882 500.233666,186.094385 501.624516,184.606071 C503.015366,183.118781 504.084776,183.330666 504.084776,182.480055 C504.084776,181.630467 498.094848,181.630467 494.56518,184.817956 C491.034482,188.006469 492.104921,192.258502 492.319215,193.10809 C492.533509,193.957678 495.635619,193.532884 497.452997,194.065156 C499.272435,194.596404 498.309142,195.340561 496.918292,195.127652 C495.527442,194.914744 493.17433,194.48995 493.281477,195.447015 C493.388624,196.404081 496.276441,198.209711 497.988732,197.784917 C499.699992,197.360123 499.699992,197.360123 500.448991,198.316165 C501.197989,199.273231 503.22966,198.953868 505.262362,199.061346 C507.295063,199.166777 509.648175,199.90991 510.610438,200.016364 C511.5727,200.122819 512.749256,199.485116 513.070697,198.952844 C513.391107,198.421596 517.349363,199.804479 518.524889,199.697001 C519.702476,199.59157 518.953477,198.529074 518.204479,198.209711 C517.45548,197.890348 517.775891,196.509512 518.739183,197.04076 C519.702476,197.572008 521.305559,197.890348 521.627,198.847413 C521.900019,199.660152 522.802526,199.272207 522.911733,200.016364 C523.01888,200.761545 526.440371,201.610109 526.547518,202.461744 C526.654665,203.311332 523.232144,203.736126 524.195436,204.480282 C525.157698,205.224439 526.654665,203.522193 527.939398,203.417786 C529.223101,203.311332 529.223101,206.179458 530.185363,205.756711 C531.496883,205.17633 532.539506,206.287959 533.821148,208.093589 C535.104851,209.901266 533.715032,211.601465 533.821148,212.238144 C533.928295,212.875847 536.388554,212.662938 537.779404,211.918781 C539.170254,211.174624 540.453957,212.769393 541.522336,213.725435 C542.592776,214.683524 537.56408,216.276245 537.992668,215.426657 C538.420226,214.576046 534.997704,212.027283 531.895594,213.194186 C528.793483,214.364161 530.932301,216.171838 531.254773,217.234334 C531.574153,218.296831 528.473073,219.358304 525.584226,218.403285 C522.696409,217.445196 523.551524,219.038941 522.375998,219.038941 C521.199442,219.038941 519.915739,220.845594 520.985148,222.016592 C522.053527,223.183496 524.40767,222.123046 526.333224,222.228477 C528.258779,222.334932 528.473073,222.86618 528.686336,221.803683 C528.90063,220.740163 530.932301,221.271411 532.322121,221.590775 C533.714001,221.90809 533.392561,223.821198 535.102791,224.035131 C536.815082,224.245992 535.425262,225.948238 536.494671,227.118213 C537.56305,228.28614 540.986601,227.648437 542.269274,228.924866 C543.552977,230.198224 548.994807,232.740846 549.758229,231.792992 C550.613344,230.73152 545.052004,225.84076 543.446861,225.41699 C541.842747,224.992196 545.052004,224.461972 547.083676,226.055716 C549.116377,227.649461 552.110311,228.394642 553.608308,226.48051 C555.106305,224.567402 552.325635,225.099674 552.325635,223.717815 C552.325635,222.335955 551.361312,220.422847 549.864345,220.422847 C548.367379,220.422847 544.5173,217.447243 545.90712,216.811588 C547.29797,216.172862 545.478532,215.321227 546.550001,214.153299 C547.620441,212.982301 548.68882,215.213749 549.973553,215.320203 Z M528.10638,210.246207 C529.361596,210.018373 529.128888,207.914195 528.41968,206.834175 C527.895834,206.037851 526.536857,205.922839 525.38641,206.037851 C524.235963,206.150673 522.249378,208.083976 523.294048,210.017278 C524.340733,211.951676 526.851164,210.472946 528.10638,210.246207 Z M514.124642,182.494871 C513.484854,183.841273 515.511019,183.841273 515.616794,185.396273 C515.723597,186.950275 517.749761,187.468275 519.242941,186.535076 C520.735093,185.602874 525,186.81254 525,185.602874 C525,184.463073 520.521488,182.390073 518.922534,182.700474 C517.323579,183.012871 514.764429,181.14747 514.124642,182.494871 Z M554.00376,273.187507 C554.229669,274.133483 560.770163,276.961189 560.994985,275.666577 C561.219808,274.368557 553.809348,272.378942 554.00376,273.187507 Z M581.743387,280.180791 C581.3137,280.988827 580.667094,279.593322 581.601196,278.859516 C582.53426,278.12677 581.455891,277.834095 580.594441,278.274167 C579.731954,278.711058 579.946797,276.291193 580.738708,275.851121 C581.529581,275.409989 578.798889,274.528785 578.798889,275.33576 C578.798889,276.146977 576.858033,275.629495 576.643189,274.895688 C576.428346,274.162942 575.064556,273.944497 575.565858,273.429136 C576.068197,272.916956 573.913535,272.621101 573.697653,273.501244 C573.48281,274.381388 572.836204,272.914835 573.913535,271.739897 C574.991904,270.564958 574.631756,269.540598 575.637472,268.949948 C576.643189,268.362479 575.565858,267.703962 574.488527,268.142973 C573.40912,268.584105 570.537274,272.621101 570.537274,273.722871 C570.537274,274.82358 570.463584,276.145916 569.458905,276.069567 C568.452151,275.998519 567.303205,276.951831 568.09304,277.5393 C568.882876,278.12677 566.006879,279.79374 567.374819,280.549815 C568.308922,281.061995 569.818016,280.329249 571.111228,280.475586 C572.403403,280.622984 573.48281,280.695092 574.559103,279.889177 C575.636434,279.080082 575.636434,280.620863 576.786418,280.475586 C577.936402,280.329249 576.139812,281.429959 576.211426,282.235873 C576.284079,283.044969 577.433024,281.795802 578.295512,281.35573 C579.156962,280.916719 580.234293,281.35573 579.803568,282.090597 C579.372843,282.822282 582.17515,283.55821 582.821756,282.383271 C583.4694,281.209393 582.176188,279.375937 581.743387,280.180791 Z M388.433836,260.382636 C386.633619,261.458421 390.960303,266.58734 391.863783,265.944466 C392.482156,265.500732 390.794633,263.352409 390.794633,262.0277 C390.794633,260.699744 390.233089,259.309016 388.433836,260.382636 Z M564.70381,285.010775 C563.952666,285.119618 564.543663,283.934793 564.64905,283.343935 C564.757537,282.752041 563.04034,283.612413 562.98868,284.312112 C562.934953,285.011812 561.755025,285.281326 561.755025,285.711512 C561.755025,286.967861 561.592811,286.303406 560.735246,286.733592 C559.876647,287.162741 556.55074,286.733592 556.445352,285.978953 C556.337898,285.226387 553.923283,284.85114 553.816862,283.825951 C553.709408,282.805944 552.528448,282.482527 553.493467,281.352642 C554.460553,280.220683 553.333319,279.682692 552.422027,280.5441 C551.509701,281.405508 550.973465,280.061048 552.207119,279.57696 C553.441807,279.091834 555.747934,278.607746 554.568007,276.454744 C553.38808,274.304852 545.986154,277.100541 544.108809,278.175487 C542.231464,279.252506 539.870576,282.697102 538.851829,282.697102 C537.833083,282.697102 540.62172,280.86648 541.050503,280.167817 C541.480319,279.467081 540.943049,278.767381 541.533013,279.037932 C542.12401,279.306409 543.785413,276.724258 544.912647,275.861813 C546.037814,275.002479 547.272502,275.81102 547.432649,275.109248 C547.594864,274.409548 548.130067,273.925459 549.202541,272.957282 C550.275014,271.987032 563.094067,272.149777 564.327721,272.202643 C565.561376,272.256546 567.975991,270.588669 568.672375,269.51165 C569.370826,268.435667 570.282119,268.435667 571.998283,268.543473 C573.714447,268.650242 574.519318,267.092244 575.376884,266.498277 C576.234449,265.906383 575.91312,265.636869 575.163009,265.477233 C574.410831,265.314489 573.714447,264.8304 574.464558,264.776497 C575.216736,264.723631 575.590758,264.291372 575.912087,263.324232 C576.233416,262.353981 575.644485,262.785204 574.624706,261.439707 C573.606993,260.096284 573.069723,261.871966 572.050976,261.763124 C571.031197,261.656355 572.747361,260.365798 571.888762,259.82677 C571.031197,259.287742 569.421453,259.666098 568.134072,260.742081 C566.847724,261.818063 566.954145,260.687141 565.827944,261.763124 C564.701744,262.839107 564.701744,261.226169 565.239014,260.795983 C565.776284,260.365798 566.15134,260.84885 566.633849,260.204089 C567.117392,259.557256 567.599902,260.204089 568.832523,259.395547 C570.066177,258.591152 571.138651,258.966398 571.51474,258.374504 C571.888762,257.78261 570.92271,256.975105 569.743815,257.244619 C568.563888,257.515169 567.76005,255.629608 567.008905,256.1676 C566.256727,256.706628 566.418941,255.361131 565.560343,255.899122 C564.701744,256.437114 564.220268,255.73845 563.844179,254.713261 C563.46809,253.693254 561.161962,252.023304 559.76816,251.593119 C558.373324,251.16086 559.28565,250.40933 560.035762,250.946285 C560.787939,251.485313 561.645505,250.408294 561.967867,249.869266 C562.289195,249.330238 561.43163,248.848223 561.001814,248.79432 C560.573031,248.738344 560.573031,248.037608 560.679452,247.500653 C560.787939,246.961625 559.178196,246.260889 559.123436,245.724971 C559.069709,245.184906 558.158417,244.80966 558.213177,244.324535 C558.266904,243.840446 557.301884,243.141783 557.301884,242.497023 C557.301884,241.850189 555.692141,240.558595 555.638414,239.80603 C555.58572,239.05139 554.727122,238.514436 554.40476,237.599125 C554.082398,236.683814 553.653615,237.115036 553.331253,238.404557 C553.009924,239.697187 551.883724,239.644321 552.205053,240.07347 C552.865275,240.95872 552.366234,240.987745 551.883724,241.526772 C551.401214,242.0658 552.205053,242.872269 551.401214,242.872269 C550.596343,242.872269 550.971398,244.540146 550.542616,243.78758 C550.113833,243.033977 549.095087,243.247515 549.095087,244.002154 C549.095087,244.75472 547.378922,245.45442 546.681505,245.401554 C545.984087,245.346614 545.984087,243.894349 545.394123,244.323498 C544.80416,244.753684 544.911614,243.086844 543.999288,243.140746 C543.087996,243.193613 542.444305,243.086844 542.711907,242.279338 C542.980542,241.47287 541.15589,241.096587 541.746887,240.611462 C542.335818,240.127373 541.585706,239.268038 541.478252,237.868639 C541.370798,236.469239 542.283124,236.36247 542.283124,235.824479 C542.283124,235.287524 541.6384,235.287524 540.995743,235.71771 C540.352052,236.145823 540.352052,235.124779 539.654634,235.177646 C538.95825,235.230512 536.865997,235.124779 536.758543,234.154529 C536.651089,233.186352 535.953671,233.671477 535.632343,232.756166 C535.309981,231.842929 534.452415,232.540555 534.452415,231.895795 C534.452415,231.248962 534.076326,230.980484 533.432636,230.925545 C532.788945,230.871642 532.57507,230.174015 531.716472,230.065173 C530.858906,229.957368 529.7854,230.658104 529.30289,230.871642 C528.82038,231.087253 527.585693,230.119076 527.104216,230.495359 C526.621706,230.871642 526.514252,230.226882 525.173144,229.849562 C523.832036,229.472243 522.061111,229.364437 521.954691,229.849562 C521.847237,230.333651 520.77373,230.495359 520.934911,231.624208 C521.096092,232.754093 522.223326,232.538482 522.490927,233.293121 C522.759562,234.045687 521.954691,233.77721 521.900964,234.476909 C521.847237,235.176609 521.149819,235.123743 521.149819,235.606795 C521.149819,236.092957 521.633362,235.984114 521.900964,236.953328 C522.169599,237.920468 522.705835,237.867602 522.867016,239.158159 C523.028197,240.449753 522.4372,240.180239 521.900964,240.342984 C521.364727,240.503656 521.954691,241.148416 521.203546,242.009824 C520.452401,242.872269 519.808711,243.786543 520.398674,244.323498 C520.989671,244.863562 523.187312,245.7768 524.046944,247.231139 C524.905542,248.684441 524.851815,250.945248 524.584214,252.560259 C524.315579,254.17527 522.491961,254.550516 521.150852,255.949915 C519.810777,257.350351 518.415942,257.13474 517.772251,257.187606 C517.128561,257.242546 517.503616,258.534139 518.415942,259.555183 C519.328267,260.578299 518.578156,260.899643 519.060666,261.976662 C519.543175,263.052644 519.060666,263.913016 519.75705,264.88223 C520.454468,265.85248 520.024652,266.228763 519.220813,266.928462 C518.415942,267.629199 519.543175,267.252916 519.595869,268.166153 C519.649596,269.081464 519.220813,268.542436 518.523396,268.058348 C517.827011,267.574259 517.182287,268.971586 517.182287,269.564516 C517.182287,270.15641 515.51985,268.758048 515.143761,268.809877 C514.768706,268.864817 515.251215,267.894566 514.285163,267.142 C513.31911,266.389435 512.567966,266.227726 512.567966,265.476197 C512.567966,264.722594 510.905529,264.183567 510.905529,263.323195 C510.905529,262.461787 511.120436,260.255919 510.745381,259.609085 C510.370325,258.964325 510.691654,258.264625 511.014016,257.672731 C511.335344,257.079801 510.63896,256.165526 509.672907,256.165526 C508.706855,256.165526 507.367813,255.84211 506.025671,255.949915 C504.684563,256.057721 503.933418,255.84211 503.504636,255.46479 C503.075853,255.089544 501.842199,254.282039 500.178728,253.850816 C498.516291,253.42063 497.765147,252.560259 497.603966,252.07617 C497.442785,251.591045 495.780348,251.214762 495.405292,250.729637 C495.030236,250.244512 493.420493,249.977071 492.777835,250.08384 C492.133111,250.191646 490.524401,248.737307 489.560415,248.793283 C488.593329,248.846149 486.341962,249.815363 485.965873,249.868229 C485.589784,249.923169 486.0196,249.062797 486.287202,248.684441 C486.555837,248.307122 485.48233,246.693148 485.214728,245.616128 C484.946093,244.540146 484.571038,243.356358 483.444837,243.517029 C482.318637,243.677701 481.084982,243.086844 480.763654,242.872269 C480.441292,242.655621 480.388598,239.589382 480.6562,238.298825 C480.923802,237.006194 482.318637,235.067767 482.318637,234.262335 C482.318637,233.455866 483.230962,233.07751 484.035834,232.863972 C484.839673,232.648361 484.195982,231.087253 485.000854,230.980484 C485.805725,230.871642 485.858419,230.549262 486.020633,229.904502 C486.181814,229.256631 487.147867,229.68889 486.610597,229.150899 C486.07436,228.612908 486.503143,228.450163 487.736797,228.450163 C488.970452,228.450163 490.79407,228.01894 490.526468,226.782286 C490.257833,225.546668 487.03938,226.459906 487.03938,225.436789 C487.03938,224.413673 482.963361,224.360807 483.230962,223.769949 C483.499597,223.178055 487.308014,224.200135 488.701817,224.73709 C490.096652,225.277154 490.472741,225.222215 491.597908,225.168312 C492.725142,225.114409 491.973997,223.662144 492.187872,223.07025 C492.40278,222.478356 494.547726,223.983487 495.781381,223.662144 C497.015035,223.33769 498.195996,220.809442 499.214742,220.111816 C500.234522,219.411079 499.322196,218.765283 497.337397,218.926991 C495.353631,219.087663 494.227431,218.335097 493.154957,217.526555 C492.081451,216.720086 492.188905,216.074289 493.315105,216.182095 C494.441306,216.287827 497.123522,218.496805 498.142269,218.548635 C499.161015,218.603574 500.930906,216.558378 501.788472,215.911544 C502.648103,215.265748 500.985666,214.996234 500.394669,214.513182 C499.804706,214.029093 501.412383,213.705676 502.272014,213.705676 C503.12958,213.705676 503.504636,214.459279 503.826998,214.834525 C504.148326,215.211845 505.650616,214.567084 506.40176,214.567084 C507.152905,214.567084 506.294306,213.328357 505.060652,212.844268 C503.828031,212.36018 505.114379,211.445906 505.490468,212.199508 C505.865524,212.953111 506.723089,212.790366 507.152905,213.65281 C507.776965,214.907087 508.171651,214.081959 509.244125,213.705676 C510.317631,213.329393 510.853868,212.68256 511.443832,212.038836 C512.033795,211.393039 512.141249,212.144569 512.837634,211.123525 C513.535051,210.099372 512.516305,209.132232 511.657706,208.485398 C510.799108,207.840638 511.711433,207.194841 510.852835,206.765692 C509.995269,206.333433 509.834088,205.525928 510.906562,205.741539 C511.979035,205.95715 512.837634,205.633734 513.320143,204.881168 C513.802653,204.127565 511.7104,203.965857 512.676453,203.426829 C513.641472,202.888838 512.836601,202.352919 511.871581,202.352919 C510.905529,202.352919 510.100657,201.868831 510.04693,201.060289 C509.994236,200.252784 508.330766,200.791812 507.312019,200.30565 C506.293273,199.822598 504.039839,199.929367 503.503602,199.98327 C502.966332,200.037173 502.913639,202.244077 503.717477,202.29798 C504.522349,202.351883 505.166039,203.212254 504.468622,203.482805 C503.772237,203.751282 504.577109,204.610617 504.039839,204.556714 C503.503602,204.504885 502.646037,204.234334 502.484856,205.632697 C502.323675,207.033133 502.216221,207.571124 501.303895,208.055213 C500.392603,208.541374 501.090021,206.496178 500.232455,206.549044 C499.372823,206.602947 499.266403,208.27186 499.910093,208.431496 C500.553784,208.593204 500.661238,209.131195 500.821386,209.938701 C500.982567,210.745169 499.641458,210.154312 499.105222,211.123525 C498.568985,212.090666 498.515258,210.692303 497.764113,210.046506 C497.014002,209.399673 496.101676,208.322653 496.155403,207.517221 C496.202931,206.810266 496.585219,206.549044 497.17415,206.440202 C497.764113,206.332397 497.17415,205.794405 497.121456,204.825192 C497.067729,203.857015 496.370311,204.179395 495.511713,203.157315 C494.654147,202.135235 493.741822,202.135235 493.259312,202.619324 C492.776802,203.103412 493.099164,204.018723 492.348019,204.341103 C491.595842,204.66452 491.918204,206.170688 491.274513,206.277457 C490.629789,206.385263 491.005878,203.641403 490.470674,203.372926 C489.934438,203.102376 489.987131,202.457615 490.792003,202.350846 C491.596875,202.243041 492.079384,201.381633 491.381967,201.381633 C490.685582,201.381633 489.450895,200.62803 488.968385,200.412419 C488.485875,200.196808 487.682037,201.32773 487.1458,200.896508 C486.60853,200.466322 487.198494,199.390339 487.252221,198.798445 C487.305948,198.207588 488.11082,199.068996 488.64809,198.314357 C489.184326,197.560754 487.1458,197.560754 487.1458,196.753249 C487.1458,195.945744 485.536057,195.731169 484.998787,195.461655 C484.46255,195.192141 485.373843,193.847681 485.106241,193.308653 C484.838639,192.770662 482.85384,190.996016 481.996275,191.156688 C481.137676,191.31736 480.922768,190.025766 481.405278,190.079669 C481.887788,190.133571 482.263877,189.811191 483.176202,188.788075 C484.086461,187.765995 484.193915,187.442578 483.550225,187.228004 C482.907567,187.012393 482.585205,186.366596 483.711406,186.420498 C484.837606,186.475438 486.822405,187.228004 487.465063,186.743915 C488.109786,186.259827 490.147279,183.084745 490.952151,181.95486 C491.755989,180.824974 490.36322,180.717169 488.432148,180.87784 C486.501076,181.039549 486.07126,180.124238 484.46255,180.016432 C482.85384,179.909663 479.850295,180.339849 479.420479,180.823938 C478.991696,181.308026 480.225351,181.738212 480.065203,182.276203 C479.904022,182.814194 478.939003,181.89992 478.51022,182.114495 C478.080404,182.330106 478.670368,183.029806 478.51022,184.912257 C478.349039,186.795745 478.885276,186.90355 479.421512,187.60325 C479.957749,188.30295 479.851328,189.218261 479.851328,190.401012 C479.851328,191.585837 478.725128,191.531934 478.350072,191.801448 C477.975016,192.069926 479.316125,192.500111 479.101217,193.253714 C478.886309,194.008353 477.760108,192.823528 477.116418,193.038103 C476.472727,193.253714 475.93649,195.083299 476.633908,195.675193 C477.331326,196.268124 477.599961,196.160318 477.063724,196.860018 C476.527487,197.559717 475.937524,198.581797 477.224905,199.603877 C478.512286,200.626994 480.871108,200.519188 482.105795,201.326693 C483.33945,202.133162 481.569559,201.649073 482.051035,202.563348 C482.534578,203.479695 481.247197,203.801039 481.29989,204.501775 C481.353617,205.199401 481.83716,204.824155 482.480851,203.63933 C483.124542,202.455542 483.607051,203.962747 483.553324,204.985863 C483.500631,206.007943 482.588305,205.416049 481.890887,206.438129 C481.194503,207.460209 480.549779,207.619844 479.531033,207.406306 C478.512286,207.191731 479.10225,208.859608 479.531033,209.774919 C479.959815,210.689193 479.423579,211.010537 478.243651,210.689193 C477.063724,210.366813 476.366306,209.612174 476.955237,208.698936 C477.5452,207.782589 477.975016,206.706606 477.277599,206.814412 C476.580181,206.923254 474.971471,206.762582 474.487928,206.007943 C474.005418,205.253304 474.811323,205.576721 476.257819,205.738429 C477.705348,205.900138 476.472727,204.770252 477.5452,204.770252 C478.618707,204.770252 479.422545,205.362146 480.334871,204.554641 C481.246163,203.749209 479.744907,202.187065 478.993763,202.457615 C478.242618,202.727129 477.062691,203.048473 477.062691,202.296943 C477.062691,201.542304 478.350072,202.081332 479.046456,201.918587 C479.743874,201.757916 478.671401,200.790775 477.598927,201.058216 C476.525421,201.32773 475.774276,201.381633 474.916711,200.465285 C474.059145,199.549974 472.503129,199.01302 472.128073,201.111082 C471.751984,203.210181 470.250728,202.080296 469.660765,202.779995 C469.070801,203.480732 470.358182,203.963784 471.806745,204.017686 C473.254274,204.071589 474.326747,205.417086 473.631396,205.417086 C472.933978,205.417086 473.255307,206.439166 472.504162,206.062883 C471.753018,205.6866 471.001873,206.062883 471.53811,206.707643 C472.075379,207.355513 471.324235,207.620881 471.376929,208.269787 C471.430656,208.915584 470.250728,208.321617 469.124528,208.214848 C467.998327,208.107042 465.906075,208.483325 464.404818,208.806742 C462.901496,209.130159 461.240092,208.592167 460.596401,207.891431 C459.951677,207.193805 459.094112,207.300574 458.021639,207.300574 C456.948132,207.300574 457.270494,206.277457 455.875659,206.224591 C454.480823,206.170688 454.802152,204.9869 454.642004,204.2872 C454.480823,203.587501 451.692186,203.803112 450.67344,204.447872 C449.654693,205.094706 447.669894,204.825192 447.132624,206.00898 C446.596388,207.193805 447.615134,207.03106 448.206131,207.03106 C449.026501,207.03106 448.957275,206.062883 450.459565,206.276421 C451.960821,206.493068 453.033294,204.716349 453.676985,205.362146 C454.320676,206.007943 451.102222,207.243561 449.70842,207.460209 C448.313585,207.67582 448.635947,208.804669 449.976022,210.796999 C451.31713,212.787256 449.386058,211.65737 449.386058,212.626584 C449.386058,213.593724 446.863989,212.303167 447.884802,211.979751 C448.903549,211.656334 448.420006,210.634254 447.615134,209.989494 C446.811296,209.343697 446.275059,209.989494 446.382513,209.290831 C446.489967,208.591131 445.523914,209.343697 444.77277,208.752839 C444.021625,208.159909 443.645536,207.67582 442.627823,208.213811 C441.608043,208.752839 440.428116,208.591131 438.175715,208.967414 C435.922281,209.344733 431.793569,209.235891 431.042424,208.483325 C430.291279,207.730759 432.973496,206.385263 433.777334,206.601911 C434.557409,206.809229 434.099696,205.739466 432.866042,204.771289 C431.631354,203.803112 428.895411,203.211218 428.950171,203.803112 C429.003898,204.395006 427.394155,203.857015 425.410389,203.480732 C423.42559,203.102376 423.156955,202.401639 421.869573,202.350846 C420.625587,202.296943 418.652153,201.918587 417.149864,200.735836 C415.647575,199.549974 412.107793,199.873391 411.67901,200.95041 C411.250227,202.02743 410.069267,201.97249 408.889339,201.97249 C407.709412,201.97249 409.422476,200.642542 408.996793,200.412419 C408.431627,200.108697 409.05052,198.636737 408.191922,198.529968 C407.334356,198.421126 406.529485,202.081332 404.919741,201.97249 C403.311031,201.866758 402.613614,198.099782 401.272505,197.130568 C399.93243,196.162391 398.697742,196.107452 399.823943,197.561791 C400.950143,199.015093 398.858923,197.991976 398.966377,198.96119 C399.073831,199.929367 397.143793,201.060289 397.196486,200.522298 C397.250213,199.98327 396.12298,199.391376 394.836632,200.897544 C393.550284,202.403712 392.636925,202.189138 392.530504,201.652183 C392.42305,201.113155 388.615666,203.050546 388.775814,203.697379 C388.936995,204.343176 388.18585,204.827265 387.167104,204.773362 C386.148357,204.719459 386.952196,203.859088 387.756034,203.426829 C388.661127,202.944814 391.135669,200.952483 392.42305,200.737909 C393.710431,200.522298 396.178773,199.500218 396.231467,198.908324 C396.286227,198.315393 394.998846,198.799482 394.140247,198.637773 C393.282682,198.476065 391.780392,199.445279 390.33183,200.091075 C388.884301,200.737909 387.220831,200.522298 387.650647,201.382669 C388.079429,202.244077 386.309538,201.273827 385.933449,201.867794 C385.558394,202.458652 384.860976,201.812855 385.397213,201.489438 C385.933449,201.167058 384.109831,200.576201 384.109831,200.951447 C384.109831,201.328766 383.787469,201.812855 382.500088,201.812855 C381.21374,201.812855 379.925325,202.728166 380.783924,203.373963 C381.642523,204.018723 382.178759,204.34214 381.748943,204.772325 C381.320161,205.202511 379.980086,203.64244 378.101707,203.804148 C376.224362,203.96482 372.469672,201.706086 372.469672,201.168095 C372.469672,200.731689 369.829817,201.00224 368,200.805287 L368,237.998213 C368,237.998213 368.928857,238.69273 369.286348,238.261507 C369.644872,237.831322 370.288563,238.405594 371.50362,237.831322 C372.718676,237.257049 373.147459,238.478155 373.147459,239.049317 C373.147459,239.624626 374.863623,240.558595 375.578605,241.489455 C376.294621,242.421351 376.652112,243.211235 377.438386,242.708487 C378.22466,242.207813 379.655657,241.919641 379.655657,240.984635 C379.655657,240.054812 382.945402,239.910725 382.945402,241.130794 C382.945402,242.349827 386.306439,243.785507 388.166219,247.083943 C390.026,250.386525 389.738767,251.10281 392.457146,252.178793 C395.174492,253.256849 395.104233,253.830084 394.745709,254.764054 C394.388218,255.69284 396.390582,256.198697 395.246817,256.986507 C394.807702,257.289192 394.191908,257.729744 393.596778,258.15682 C393.649472,258.630542 394.075155,258.935301 394.62069,259.390365 C395.264381,259.929392 393.43973,259.929392 393.977,260.412444 C394.513237,260.896533 393.869546,261.651172 394.405783,262.243066 C394.942019,262.833924 395.908072,262.619349 396.497002,262.13526 C397.086966,261.651172 397.516782,262.728191 397.033239,263.533623 C396.551763,264.342165 397.570509,264.935096 398.053019,264.342165 C398.534495,263.748198 399.554275,265.310342 400.036784,265.57882 C400.520327,265.848333 401.002837,266.654802 400.197965,266.654802 C399.393094,266.654802 399.501581,268.055238 400.090511,268.107068 C400.681508,268.162007 400.626748,268.914573 400.626748,269.398661 C400.626748,269.881713 402.504093,270.583486 403.202544,270.368912 C403.899962,270.153301 404.542619,270.798061 404.864981,271.390992 C405.187343,271.980812 406.473691,272.412035 406.957234,272.035752 C407.439744,271.659469 407.761072,272.734415 407.868526,273.486981 C407.97598,274.24162 409.048454,273.810398 409.692144,273.758568 C410.335835,273.702592 410.710891,274.617903 411.140707,274.457231 C412.085062,274.10168 412.370228,275.757118 412.995321,276.727368 L479.660184,276.366634 C479.660184,276.366634 479.704612,274.706013 480.491919,275.280285 C481.279226,275.854557 480.563211,276.786454 481.493101,277.147188 C482.422991,277.504812 483.066682,278.079084 483.567789,277.862436 C484.067864,277.648898 484.926462,276.93054 485.785061,277.937071 C486.64366,278.939455 487.28735,278.079084 487.787425,278.724881 C488.288532,279.368605 489.217389,279.872388 489.86108,279.084578 C490.382851,278.443964 492.361451,279.219335 493.320271,279.571777 C494.495033,278.626405 495.425956,276.610233 496.476732,276.610233 C497.871567,276.610233 501.410316,276.931576 501.626257,278.761162 C501.841165,280.59282 503.986112,278.870004 504.20102,280.59282 C504.382865,282.053378 505.800431,283.207105 505.562793,283.982476 C505.971944,284.237478 506.482351,284.578517 506.941097,284.943397 C507.621983,284.713274 509.436302,285.005593 510.637927,285.435778 C512.140216,285.97377 514.391584,284.791018 515.142728,286.62164 C515.893873,288.451225 517.637934,289.829892 516.001327,289.957393 C514.607525,290.065199 512.783907,288.126771 512.890328,289.203791 C512.997782,290.278737 512.140216,289.742819 512.140216,291.353683 C512.140216,292.970766 511.066709,295.229501 510.423019,295.121695 C510.400288,295.116512 510.38169,295.104073 510.361026,295.096817 C510.251506,295.70737 510.24324,296.501399 510.752613,297 C511.569883,296.404996 512.741545,295.37877 513.747893,295.446148 C515.357636,295.553954 515.786419,296.522131 516.858892,295.770602 C517.931366,295.015963 518.146274,294.694619 518.361182,295.230537 C518.389078,295.298952 518.367381,295.383953 518.323986,295.4731 C518.733138,295.254379 519.02037,295.041877 519.041035,294.869803 C519.069965,294.599253 518.99764,294.237482 518.903618,293.906809 C517.828045,294.065408 517.477786,294.146262 517.180221,293.399916 C516.751438,292.32497 520.397641,291.248987 522.114838,291.464598 C523.742146,291.666734 524.885911,290.522336 525.456244,291.224109 C526.488422,290.295322 528.246948,288.773605 528.693295,288.773605 C529.336986,288.773605 536.989982,288.70208 536.989982,288.70208 C536.989982,288.70208 539.635003,287.051825 539.993528,285.545657 C540.349986,284.039489 542.067183,280.448734 543.068365,281.24069 C544.069547,282.029537 546.215526,281.456301 546.285785,282.173623 C546.35191,282.837042 545.573902,285.27407 548.325344,288.921838 C549.29243,288.307138 550.293612,287.827196 550.862911,287.860367 C551.827931,287.91427 553.276493,286.623713 553.706309,285.814134 C554.135091,285.007666 554.725055,286.568773 553.865423,286.837251 C553.007858,287.107801 554.563874,287.750488 556.06513,287.698659 C557.566386,287.644756 555.367713,288.235614 554.241512,288.181711 C553.114279,288.127808 552.631769,288.289516 551.130513,289.797758 C549.629257,291.304963 550.005346,291.734112 550.861878,292.486678 C551.720477,293.242354 552.846677,292.918937 554.026604,291.89582 C555.206532,290.872704 555.153838,289.850624 556.332732,289.905563 C557.511626,289.959466 560.569932,288.828544 561.910007,288.399395 C563.251115,287.968173 562.392517,287.751525 562.392517,287.159631 C562.392517,286.56981 564.752371,286.56981 565.61097,285.975843 C566.473701,285.387058 565.454955,284.900897 564.70381,285.010775 Z M424.544549,214.859479 C423.152745,216.528089 422.68881,216.773647 421.254087,216.528089 C419.820386,216.286476 418.935436,216.977786 419.650753,217.466929 C420.370159,217.955087 420.412056,218.362377 418.935436,218.687815 C417.457793,219.013254 416.488027,220.11284 415.897379,219.990554 C415.30673,219.868268 418.428582,217.709529 417.626404,217.140505 C416.825248,216.571481 414.842796,218.118792 414.800899,218.810101 C414.759001,219.500425 413.450992,219.54283 412.650857,219.500425 C411.847658,219.459991 410.794097,218.726276 411.594231,218.646396 C412.396409,218.56553 411.847658,217.709529 412.94516,217.30421 C414.040618,216.895933 412.732608,216.287462 413.071873,215.839738 C413.410116,215.391028 415.644974,216.287462 415.686871,215.473867 C415.728768,214.658299 413.450992,213.966004 412.691733,214.456133 C411.932474,214.943304 410.16053,216.083324 408.051364,215.18689 C407.38714,214.905829 413.366175,214.2944 414.379883,213.398952 C415.391547,212.502518 419.946077,211.483798 420.284321,212.297393 C420.621542,213.111975 417.837934,213.642538 419.186819,214.375267 C420.535704,215.107996 422.730708,214.619838 423.235518,213.84569 C423.74135,213.070555 425.936353,213.191855 424.544549,214.859479 Z M438.338058,232.824348 C436.71373,234.238909 436.838833,233.863844 435.423348,234.112879 C434.006853,234.362923 435.130767,235.778492 433.42371,235.901497 C431.716652,236.028536 427.593281,236.195903 427.011146,235.237067 C426.81542,234.917455 429.259983,235.152375 429.426451,234.447615 C429.593928,233.737814 430.259802,232.614634 431.299977,232.614634 C432.340152,232.614634 432.257422,231.244436 430.549356,230.408605 C428.843307,229.576806 433.007034,229.034373 433.96448,230.367267 C434.921925,231.699152 436.631,232.657989 437.587437,231.699152 C438.544882,230.741324 444,228.078561 444,229.326763 C444.001009,230.575972 439.961376,231.409787 438.338058,232.824348 Z M475.298944,270.996302 C474.205068,271.123597 475.399088,267.930026 473.398142,266.766043 C471.047656,265.400426 470,262.854531 470,261.480766 C470,260.107002 471.99902,259.471546 472.799206,260.52962 C473.598429,261.586675 474.798226,265.921825 475.498268,267.295589 C476.197348,268.670373 476.197348,270.890393 475.298944,270.996302 Z" id="path-1"></path>
        <filter x="-3.3%" y="-3.0%" width="106.5%" height="108.4%" filterUnits="objectBoundingBox" id="filter-2">
            <feOffset dx="0" dy="2" in="SourceAlpha" result="shadowOffsetOuter1"></feOffset>
            <feGaussianBlur stdDeviation="2" in="shadowOffsetOuter1" result="shadowBlurOuter1"></feGaussianBlur>
            <feColorMatrix values="0 0 0 0 0   0 0 0 0 0   0 0 0 0 0  0 0 0 0.00993546196 0" type="matrix" in="shadowBlurOuter1"></feColorMatrix>
        </filter>
    </defs>
    <g id="design" stroke="none" stroke-width="1" fill="none" fill-rule="evenodd">
        <g id="choose-country1" transform="translate(-364.000000, -129.000000)">
            <g id="canada">
                <use fill="black" fill-opacity="1" filter="url(#filter-2)" xlink:href="#path-1"></use>
                <use fill="#999999" fill-rule="evenodd" xlink:href="#path-1"></use>
            </g>
        </g>
    </g>
</svg>