<?xml version="1.0" encoding="UTF-8"?>
<svg width="306px" height="114px" viewBox="0 0 306 114" version="1.1" xmlns="http://www.w3.org/2000/svg" xmlns:xlink="http://www.w3.org/1999/xlink">
    <!-- Generator: sketchtool 57.1 (101010) - https://sketch.com -->
    <title>90344D80-BD19-491F-BC31-408F9E206C31</title>
    <desc>Created with sketchtool.</desc>
    <defs>
        <path d="M720.039845,205.946453 C719.705879,206.948546 721.547531,210.983137 722.716411,209.777129 C723.892551,208.562382 721.097403,202.753738 720.039845,205.946453 Z M783,217.032063 C783,215.080669 777.699177,216.028221 779.301889,218.767679 C780.946154,221.572808 783,218.977203 783,217.032063 Z M710.050368,189.420451 C709.628804,191.289202 711.920306,196.703719 714.425601,194.467699 C716.930897,192.223577 710.453865,187.584106 710.050368,189.420451 Z M855.331032,222.38757 C858.246821,222.577774 857.859172,226.837783 857.274891,229.352391 C856.6878,231.869797 855.51081,237.847235 858.052996,236.899013 C861.1598,235.738209 863.106469,231.869797 861.356434,230.515992 C859.603589,229.162187 859.803032,220.639372 860.578328,218.516361 C861.356434,216.379363 866.609348,217.931763 864.856504,221.22397 C863.106469,224.518973 868.159941,224.118986 868.159941,227.808383 C868.159941,231.480997 871.07573,229.550987 874.188152,228.583184 C877.303384,227.615382 876.721911,225.864387 874.581419,223.545577 C872.440926,221.22397 876.13763,217.931763 873.22465,215.993361 C870.306052,214.063351 868.359384,211.157146 871.078539,210.575346 C873.806122,209.993546 881.966399,205.344737 880.997278,203.41193 C880.025349,201.470731 868.553208,203.797932 867.578469,207.280342 C866.612157,210.762753 858.446263,206.888746 859.418192,200.894525 C860.392931,194.891912 876.525278,193.924109 881.191102,196.052715 C885.859736,198.186915 890.913208,192.567508 892.660434,189.278098 C894.413279,185.980298 888.972158,189.859899 885.663102,191.988505 C882.359665,194.122705 873.612298,191.792706 869.137489,190.245901 C864.665489,188.701892 864.862122,192.956307 861.165419,193.53531 C857.471524,194.122705 858.24963,202.251126 856.499594,203.218929 C854.74675,204.192325 854.74675,210.189344 851.252298,215.805954 C847.746609,221.414174 852.412433,222.191772 855.331032,222.38757 Z M768.069485,227.05274 C767.873899,224.349314 769.033445,221.643096 769.033445,220.285797 C769.033445,218.93967 770.000198,218.358768 771.738119,218.741381 C773.481628,219.126787 773.294425,215.066063 771.933705,214.680657 C770.581368,214.300837 769.8102,209.463716 766.515974,209.463716 C763.232923,209.463716 763.811299,212.167141 765.750394,212.36543 C767.686695,212.55534 768.837859,214.105341 768.262277,215.457054 C767.681107,216.808767 766.912734,214.105341 764.202471,214.300837 C761.489414,214.487954 763.232923,211.005339 760.139871,210.815428 C757.046819,210.622726 757.630782,205.014793 754.333762,205.014793 C751.045123,205.014793 750.85792,202.311367 752.984219,200.381545 C755.107723,198.443346 749.69558,196.703434 749.69558,194.388207 C749.69558,192.061808 746.216944,193.4219 746.216944,191.4837 C746.216944,189.556671 744.671815,190.522978 742.925512,188.199373 C741.190385,185.881352 740.413629,188.00667 738.865706,186.272344 C737.323371,184.52964 735.194278,183.563332 733.839146,184.141441 C732.486809,184.727928 729.388168,181.627925 728.228623,178.536301 C727.309369,176.070263 718.368296,171.962061 717.203162,168.677734 C716.046411,165.393407 712.950565,164.036108 707.731213,164.231604 C702.511862,164.418721 700.449827,159.120788 699.214841,161.718088 C697.672506,165.010794 704.828159,172.35026 708.116797,174.285667 C711.402641,176.212695 713.140562,183.172341 717.010371,183.563332 C720.885767,183.948738 721.262968,196.125325 724.166023,196.703434 C727.069078,197.289921 733.266359,206.76029 734.230318,211.781736 C735.197072,216.81156 741.573174,219.325076 743.707856,222.997601 C745.83136,226.667334 754.33935,231.699951 755.50169,233.241574 C756.658441,234.78599 757.823574,238.265813 758.795916,236.523109 C759.76267,234.78599 763.819681,236.523109 765.755983,236.721397 C767.683901,236.919686 768.259483,229.761751 768.069485,227.05274 Z M914.207093,196.735229 C918.518738,197.128108 916.552719,194.596847 916.552719,191.880373 C916.552719,189.163898 912.637677,191.493106 912.637677,190.134869 C912.637677,188.773825 911.266562,183.338069 908.127729,187.606415 C904.988897,191.880373 909.136235,202.440388 911.651834,201.985771 C913.818988,201.592893 909.889782,196.345157 914.207093,196.735229 Z M899.053812,220.607521 C899.814094,223.63784 905.322707,225.331977 906.846016,222.692402 C908.361091,220.039165 898.175508,217.10175 899.053812,220.607521 Z M883.425451,253.103079 C878.155514,252.328886 874.640343,256.233755 869.364765,254.272844 C864.094829,252.328886 856.206851,254.312401 857.064486,256.033143 C857.848769,257.601307 862.531903,257.796267 867.80466,257.991228 C873.077418,258.180538 877.763373,255.244823 881.278544,255.055513 C884.790894,254.860552 888.701029,253.885748 883.425451,253.103079 Z M924.678338,217.642078 C919.705194,216.143077 911.220458,217.423305 912.057604,219.883826 C912.820153,222.128275 916.834585,221.193763 920.860069,221.193763 C924.874501,221.193763 926.974273,224 929.082333,224 C931.184868,224 929.657008,219.132975 924.678338,217.642078 Z M823.562462,250.922132 C823.372675,248.55892 815.828661,250.725908 812.164106,249.153278 C808.496761,247.572116 816.219398,246.201396 818.731278,244.61739 C821.240368,243.041916 817.185076,242.45609 811.00585,244.429698 C804.81546,246.394776 797.676138,240.098566 797.480769,242.848536 C797.290983,245.607038 786.2722,241.668352 783.573324,239.703275 C780.868866,237.738198 770.436189,235.170232 768.306672,238.912694 C766.185529,242.660844 764.349065,239.305141 765.222641,242.85138 C765.800374,245.214592 768.306672,243.838185 770.048243,243.838185 C771.787022,243.838185 771.013921,247.1882 773.52022,247.57496 C776.034891,247.975938 784.346425,250.336305 785.116735,248.561764 C785.887045,246.795754 793.618055,248.561764 797.480769,251.712713 C801.343483,254.857974 810.227167,255.057041 813.707517,254.468371 C817.182285,253.879701 821.04779,256.828739 822.398624,254.860818 C823.755039,252.898584 826.261338,258.011766 830.129634,255.057041 C833.992348,252.108003 823.75783,253.282499 823.562462,250.922132 Z M974.705548,208.79627 C971.82535,208.994886 971.43651,214.030233 968.939598,214.030233 C966.442686,214.030233 962.979227,219.255804 958.365911,220.811167 C953.749818,222.358137 953.558176,207.453511 951.441772,204.546997 C949.328146,201.640483 937.799023,199.318628 936.646388,202.605591 C935.490976,205.903743 931.483141,204.158156 931.063748,206.868851 C930.68324,209.386525 932.027517,208.611641 934.524429,208.611641 C937.018564,208.611641 937.018564,210.541857 938.176753,213.062328 C939.332165,215.582798 946.253528,213.840009 948.558797,213.646987 C950.864066,213.453966 951.247352,216.740928 947.981091,215.582798 C944.71483,214.424669 944.71483,217.126971 942.406783,216.550704 C940.101514,215.966044 937.018564,216.159066 938.557262,217.51861 C940.101514,218.872558 942.590094,220.226507 942.590094,223.326043 C942.590094,226.422781 947.020099,225.843716 947.020099,223.326043 C947.020099,220.813964 949.325368,224.098129 953.747041,225.256259 C958.171491,226.422781 955.096873,228.162773 959.515769,228.36139 C963.934664,228.557209 973.930644,231.849766 977.774611,234.74509 C981.629688,237.651604 978.927246,239.587415 981.429712,242.303705 C983.926624,245.008805 984.693196,248.111138 981.232515,248.111138 C977.774611,248.111138 974.125064,251.591123 975.083279,253.333912 C976.04427,255.076701 987.39286,252.559028 990.07586,252.559028 C991.842308,252.559028 993.61431,255.714512 997,258 L997,216.67379 C988.684367,213.851199 977.077475,208.639615 974.705548,208.79627 Z M891.865329,258 C891.248388,258.389795 890.530073,258.687556 889.664039,258.871626 C889.394671,259.570009 889.128199,260.346893 888.66477,260.68255 C888.102862,261.094001 887.135453,260.268392 886.448999,259.540233 C882.573571,261.045276 880.534482,265.376336 883.225268,266.718964 C885.811783,268.007455 889.580043,264.583211 891.734989,262.171352 C892.085458,261.776143 892.395376,261.413416 892.647366,261.099415 C892.795084,260.915344 893.035488,260.723154 893.325131,260.528256 C893.522089,260.38479 893.74801,260.246737 894,260.111392 C893.37437,259.293904 892.572058,258.489951 891.865329,258 Z M838.125428,208.109714 C841.562345,205.993316 842.324264,201.949386 841.940544,198.110985 C841.562345,194.261474 850.346497,194.075387 851.688137,192.531139 C853.027016,190.995223 849.772297,188.495541 847.29054,187.340132 C844.806021,186.190278 846.904059,183.690596 845.186981,182.15468 C843.467142,180.621542 840.604425,176.574834 843.088943,176.391524 C845.56794,176.194327 841.363583,172.733656 843.467142,171.583802 C843.751481,171.425489 844.07999,171.261621 844.425062,171.092198 C843.169,170.4645 842.073051,170.042331 841.366344,170.042331 C838.315908,170.042331 831.052833,169.275762 831.428271,174.266794 C831.817512,179.268936 827.229435,177.341403 827.607634,180.038283 C827.991354,182.732385 825.313595,182.732385 825.697316,186.190278 C826.086557,189.653727 823.795279,188.112256 819.96636,190.039789 C816.145723,191.956212 817.675082,188.881603 813.854445,188.881603 C810.033808,188.881603 809.650088,190.806358 807.35605,191.572927 C805.059251,192.336719 800.479455,191.189643 798.950096,192.336719 C797.423498,193.492128 795.129459,189.653727 793.6001,189.653727 C792.821618,189.653727 792.145277,187.548439 791.664937,185.48759 C791.39164,185.437596 791.143188,185.404267 790.925103,185.420932 C788.446105,185.618129 784.330087,192.21729 786.720746,194.458672 C789.588984,197.149996 788.827065,201.374459 790.157662,203.493634 C791.499302,205.610032 795.711941,205.987761 795.711941,210.031692 C795.711941,214.06729 799.333816,220.40815 801.821095,218.680592 C804.302853,216.953034 806.213171,219.452716 806.977851,221.174719 C807.74253,222.907832 813.663966,219.830446 815.579805,220.21373 C817.487363,220.60257 823.406038,221.757978 823.798039,224.060463 C824.176238,226.368503 829.526234,223.863266 833.156391,222.524548 C836.783788,221.174719 834.680229,210.215002 838.125428,208.109714 Z M852.087403,261.813464 C853.23925,263.649552 856.50328,263.649552 857.85219,264.875576 C859.198324,266.095705 864,268.74816 864,265.285233 C864,261.813464 850.807882,259.771074 852.087403,261.813464 Z M842.331828,252.582511 C841.573924,254.264903 838.312726,254.63697 836.398605,253.326646 C834.484483,252.029802 832.111194,255.09801 833.336564,256.686037 C833.911906,257.435564 837.931008,260.420191 842.716312,258.182395 C847.507147,255.947294 850.757281,257.993665 851.907967,255.569835 C853.055886,253.143308 843.100795,250.905511 842.331828,252.582511 Z" id="path-1"></path>
        <filter x="-2.3%" y="-4.7%" width="104.7%" height="113.2%" filterUnits="objectBoundingBox" id="filter-2">
            <feOffset dx="0" dy="2" in="SourceAlpha" result="shadowOffsetOuter1"></feOffset>
            <feGaussianBlur stdDeviation="2" in="shadowOffsetOuter1" result="shadowBlurOuter1"></feGaussianBlur>
            <feColorMatrix values="0 0 0 0 0   0 0 0 0 0   0 0 0 0 0  0 0 0 0.00993546196 0" type="matrix" in="shadowBlurOuter1"></feColorMatrix>
        </filter>
    </defs>
    <g id="design" stroke="none" stroke-width="1" fill="none" fill-rule="evenodd">
        <g id="choose-country1" transform="translate(-695.000000, -159.000000)">
            <g id="indonesia">
                <use fill="black" fill-opacity="1" filter="url(#filter-2)" xlink:href="#path-1"></use>
                <use fill="#999999" fill-rule="evenodd" xlink:href="#path-1"></use>
            </g>
        </g>
    </g>
</svg>