<?xml version="1.0" encoding="UTF-8"?>
<svg width="141px" height="201px" viewBox="0 0 141 201" version="1.1" xmlns="http://www.w3.org/2000/svg" xmlns:xlink="http://www.w3.org/1999/xlink">
    <!-- Generator: sketchtool 57.1 (101010) - https://sketch.com -->
    <title>9F07FDB5-AC70-4027-9DF0-DD413243AA5B</title>
    <desc>Created with sketchtool.</desc>
    <defs>
        <path d="M739.093488,570.5551 C739.223053,570.342875 739.343682,570.245604 739.450908,570.214655 C739.173908,568.339994 739.196246,566.606818 740.335522,565.961298 C742.493444,564.741 745.902335,559.846545 745.902335,557.697759 C745.902335,555.566659 741.881362,555.566659 741.881362,552.807725 C741.881362,550.057634 746.206141,545.45941 744.352026,543.929616 C742.497911,542.404244 747.1399,537.80602 746.831626,535.361003 C746.518884,532.907143 744.669236,521.889092 745.906802,520.673215 C747.1399,519.452917 749.927775,518.537694 748.690209,515.168611 C747.711772,512.502525 743.306574,505.118839 741.479265,500.609043 C738.034632,500.127114 733.826015,500.202277 731.368754,501.090972 C727.968798,502.315691 728.89809,491.598293 728.89809,487.623482 C728.89809,483.64425 725.498134,485.784193 724.260568,488.543127 C723.018535,491.293218 718.077207,490.068499 713.126943,490.068499 C708.172212,490.068499 710.651811,483.944903 707.56013,484.249977 C704.468449,484.563895 701.993318,483.334754 702.30606,480.279588 C702.609867,477.215579 700.134735,474.770562 697.972345,471.401479 C695.809956,468.032396 693.330356,464.676577 695.188939,462.532213 C697.047522,460.383428 693.960309,458.552981 696.739247,455.798468 C699.522653,453.043955 702.310528,453.959178 701.381236,450.289442 C700.456413,446.619706 704.468449,444.479763 704.781192,440.49611 C705.089466,436.516878 709.726988,437.737176 714.056234,434.381357 C718.385481,431.003431 723.018535,432.84272 726.731232,429.783133 C730.220543,426.909243 732.610787,429.394052 735.193145,429.203933 C733.638369,427.063991 729.836317,425.99402 728.969574,424.300635 C727.879443,422.125322 732.972675,418.168196 734.42916,415.639173 C735.885646,413.132257 728.603218,410.240682 726.784845,409.515577 C724.962005,408.803737 721.687146,410.952522 719.864305,409.87813 C718.045932,408.803737 715.132961,409.515577 713.680944,410.603234 C712.228926,411.677627 701.300817,412.402731 701.667172,409.157446 C702.02906,405.916583 697.297716,404.84219 697.664071,402.666877 C698.030426,400.518091 695.112987,396.543281 691.109886,396.189571 C687.106785,395.83144 687.835027,389.345292 684.926524,387.550216 C683.26899,386.520037 679.167598,387.125765 675.919546,387.828762 C679.413324,391.732831 680.659826,393.359895 678.345533,395.199185 C675.271723,397.635359 678.345533,398.064232 672.546397,405.717621 C666.742794,413.388697 656.828864,415.289885 651.990294,416.735673 C647.160659,418.168196 645.221657,427.006513 642.563348,433.240643 C639.905038,439.457088 637.729245,437.303881 635.070936,433.71373 C632.412627,430.119157 630.232366,434.429992 627.087072,431.564945 C623.946246,428.704319 625.398264,428.704319 627.087072,426.303515 C628.00296,425.016897 626.988782,422.956539 625.063183,420.980187 C621.614082,421.683185 618.120304,426.41405 616.404689,430.017465 C614.546106,433.925956 619.652741,441.495339 620.34971,444.245431 C621.046678,447.004365 617.566303,444.479763 617.101658,447.004365 C616.637012,449.520124 624.754908,453.194282 628.463138,455.944373 C632.180304,458.703307 635.423888,466.515866 638.899795,470.181181 C642.38017,473.855339 642.616961,477.065253 646.325191,486.018525 C650.037888,494.967376 657.458816,510.119407 662.560983,516.543657 C667.667618,522.967906 669.981911,528.021531 668.824764,529.86082 C667.667618,531.70011 669.057087,536.749313 672.765317,539.273915 C676.478015,541.789674 679.489276,545.928075 689.233432,550.751789 C698.973121,555.571081 716.830705,564.745421 719.386256,569.113734 C721.93734,573.464361 730.287559,577.598341 731.909351,578.522407 C732.351658,578.774425 732.490158,579.495108 732.499094,580.454545 C733.459659,579.671963 734.263854,579.070657 734.773177,578.827482 C737.855922,577.293267 738.164197,572.093737 739.093488,570.5551 Z" id="path-1"></path>
        <filter x="-5.3%" y="-2.6%" width="110.5%" height="107.2%" filterUnits="objectBoundingBox" id="filter-2">
            <feOffset dx="0" dy="2" in="SourceAlpha" result="shadowOffsetOuter1"></feOffset>
            <feGaussianBlur stdDeviation="2" in="shadowOffsetOuter1" result="shadowBlurOuter1"></feGaussianBlur>
            <feColorMatrix values="0 0 0 0 0   0 0 0 0 0   0 0 0 0 0  0 0 0 0.00993546196 0" type="matrix" in="shadowBlurOuter1"></feColorMatrix>
        </filter>
    </defs>
    <g id="design" stroke="none" stroke-width="1" fill="none" fill-rule="evenodd">
        <g id="choose-country1" transform="translate(-612.000000, -385.000000)">
            <g id="peru">
                <use fill="black" fill-opacity="1" filter="url(#filter-2)" xlink:href="#path-1"></use>
                <use fill="#999999" fill-rule="evenodd" xlink:href="#path-1"></use>
            </g>
        </g>
    </g>
</svg>