<?xml version="1.0" encoding="UTF-8"?>
<svg width="132px" height="228px" viewBox="0 0 132 228" version="1.1" xmlns="http://www.w3.org/2000/svg" xmlns:xlink="http://www.w3.org/1999/xlink">
    <!-- Generator: sketchtool 57.1 (101010) - https://sketch.com -->
    <title>AE5C249D-BB8C-4E75-8F69-41B87AC36406</title>
    <desc>Created with sketchtool.</desc>
    <g id="design" stroke="none" stroke-width="1" fill="none" fill-rule="evenodd">
        <g id="choose-country1" transform="translate(-285.000000, -370.000000)" fill="#999999">
            <path d="M415.532818,423.372672 C414.028533,421.882258 411.042416,417.891358 413.530099,417.891358 C416.031253,417.891358 417.023632,410.412351 414.028533,408.912958 C411.042416,407.413565 414.028533,400.917692 411.527379,399.427278 C409.026225,397.927885 410.53051,392.931405 411.042416,389.438807 C411.527379,385.937231 401.540724,382.951913 396.044471,380.455917 C390.557199,377.955433 388.065026,373.964534 383.570133,371.468539 C379.079731,368.972543 377.575446,375.454948 377.575446,379.459315 C377.575446,383.450214 373.583478,383.948515 370.583889,381.448031 C367.5843,378.947546 364.095258,381.448031 359.600365,379.459315 C355.105472,377.457132 357.108191,383.948515 357.108191,386.942812 C357.108191,389.932619 352.105883,389.932619 349.115275,389.932619 C346.115686,389.932619 341.131339,392.433104 341.131339,395.925702 C341.131339,399.41381 336.636446,401.415993 338.12726,403.418177 C339.627054,405.411382 337.633316,407.413565 335.630596,408.912958 C333.636857,410.403372 331.643119,415.390874 330.138834,416.894756 C328.639039,418.38966 331.135703,420.885655 328.145095,422.883349 C325.154487,424.872065 321.651973,423.372672 320.161159,424.872065 C318.661365,426.371458 320.161159,429.873034 319.667215,434.371213 C319.1598,438.851435 315.661776,443.847914 312.666678,447.838813 C309.68056,451.838691 313.668037,452.839783 315.172322,453.329105 C316.663136,453.836385 316.663136,456.33238 315.172322,459.322188 C313.668037,462.329952 310.174504,460.323279 308.176275,459.833957 C306.182536,459.322188 300.686284,461.822672 297.691185,466.819152 C294.691596,471.811143 295.688466,474.805439 296.680845,477.301435 C297.682205,479.79743 294.188671,482.796216 296.680845,487.788207 C299.181999,492.780197 295.683975,493.7768 296.191391,497.772188 C296.680845,501.763087 302.680023,501.264786 303.182948,505.255685 C303.681382,509.246584 301.184718,510.745977 299.181999,510.745977 C297.18826,510.745977 297.691185,514.736876 299.689414,515.737967 C301.678663,516.743548 301.180228,523.724255 300.183359,525.730927 C299.177509,527.724132 292.693367,525.730927 293.187312,528.217944 C293.685746,530.718429 291.687517,534.709328 291.687517,536.711511 C291.687517,538.704716 291.189083,545.1961 289.190853,543.692217 C288.405033,543.108621 287.14772,543.063729 285.908369,543.22983 C285.91735,543.544074 285.91735,543.853829 285.908369,544.217454 C285.755695,548.096123 287.156701,551.98826 290.569407,554.776053 C293.991094,557.581803 291.346247,561.765738 294.296441,565.653385 C297.251126,569.545522 296.317122,572.337804 299.581645,575.139065 C302.846167,577.931348 303.160496,579.4891 301.755,583.058015 C300.358484,586.635907 304.557011,585.697664 304.705194,587.870437 C304.871339,590.056678 303.784662,594.554856 304.871339,596.732119 C305.953526,598.904892 308.135862,596.732119 313.102247,596.579486 C318.073122,596.426853 316.838262,593.311348 316.986445,590.357454 C317.134628,587.412539 319.631292,588.804191 320.250968,586.945662 C320.870643,585.078155 325.379007,584.611278 328.953368,586.155563 C332.523238,587.722294 334.382264,585.078155 335.015411,581.347629 C335.630596,577.621593 337.646787,582.124261 338.742445,582.896403 C339.824632,583.677524 343.098135,577.154716 344.638343,572.961803 C346.196513,568.755423 344.49016,569.545522 340.911309,573.572334 C337.341439,577.617104 339.362121,569.545522 340.763126,566.277384 C342.155151,563.013735 342.006968,553.528055 342.469479,551.364261 C342.940971,549.186999 343.870485,545.92335 348.374358,544.994086 C352.878232,544.060332 358.787602,538.466788 357.858088,536.145872 C356.919594,533.806998 364.072806,529.932819 364.072806,527.598435 C364.072806,525.26405 356.609757,518.117244 354.126564,516.56398 C351.634391,515.015206 346.201004,516.254225 346.668005,514.548329 C347.130517,512.837944 346.039349,506.158014 345.424164,502.737243 C344.799998,499.311984 349.303872,495.747559 349.303872,492.479421 C349.303872,489.215772 349.151198,485.489736 352.096902,484.40335 C355.051587,483.321452 353.19256,480.52917 357.081249,479.590927 C360.951976,478.661662 360.184117,473.068119 364.382643,471.357734 C368.58117,469.651838 368.877536,468.242229 374.324394,465.616046 C379.766762,462.967418 388.931674,456.754365 390.494334,453.490717 C392.043523,450.231557 384.890312,446.806297 389.403166,443.390016 C393.91153,439.973735 390.180006,436.086087 393.440038,434.847068 C396.70456,433.59907 397.948402,431.897663 400.283411,429.415136 C402.60944,426.928119 405.712308,429.262503 411.307349,428.328749 C413.350483,427.98757 415.227471,428.15367 416.996689,428.584633 C416.763188,426.093127 416.210869,424.068498 415.532818,423.372672 Z M361.876028,559.498971 C356.531527,559.666782 354.020059,571.72583 355.391801,573.706926 C356.531527,575.31511 367.2246,559.335822 361.876028,559.498971 Z" id="Mask"></path>
        </g>
    </g>
</svg>