<?xml version="1.0" encoding="UTF-8"?>
<svg width="141px" height="143px" viewBox="0 0 141 143" version="1.1" xmlns="http://www.w3.org/2000/svg" xmlns:xlink="http://www.w3.org/1999/xlink">
    <!-- Generator: sketchtool 57.1 (101010) - https://sketch.com -->
    <title>661EBE1F-ED58-4B01-BF05-9F8DFD4C1546</title>
    <desc>Created with sketchtool.</desc>
    <defs>
        <path d="M1071.36526,525.020396 C1071.00483,517.609434 1066.66396,517.609434 1066.84679,512.538225 C1067.03484,507.49313 1067.39005,502.965079 1065.58266,502.416699 C1063.77004,501.868319 1064.85656,497.533506 1067.74526,493.198694 C1070.64962,488.869104 1062.51636,488.310279 1061.24178,482.894374 C1060.70897,480.580733 1063.29469,472.804184 1066.62739,464.312129 C1056.49868,457.324203 1046.10879,449.735669 1046.10879,449.735669 L1046.73041,442.220253 L1000.527,417.710283 C1000.21881,423.345539 997.915164,427.701242 994.619025,429.221038 C991.087821,430.834842 999.508385,435.989613 995.433919,436.809571 C991.375123,437.608639 982.150112,433.007471 975.636189,435.707589 C971.269196,437.545967 972.172892,426.59926 975.573505,417 L965.371666,417.825181 C965.371666,417.825181 962.608342,418.519796 959.609952,419.360645 L961.615844,424.698209 C961.615844,424.698209 964.123208,429.701523 963.496367,432.840345 C963.209065,434.26091 960.962884,434.898076 958.61223,435.174877 C959.442795,438.856856 959.10848,441.603979 959.10848,441.603979 L962.237461,443.478916 C962.237461,443.478916 955.357881,456.61392 952.228899,457.862137 C951.393111,458.196388 949.418562,459.392378 947,460.948733 C948.843957,470.192851 951.100585,481.165672 954.485527,484.247045 C960.722595,489.93975 959.641295,496.447192 960.983779,500.24407 C962.347158,504.035725 967.774557,508.380983 963.976945,509.994787 C961.527041,511.049766 959.343545,508.427987 957.165272,504.860907 C956.940654,505.503294 956.679471,506.145682 956.381721,506.741066 C956.272024,506.949973 956.078748,507.096208 955.916814,507.273778 C959.239072,509.723208 963.109815,512.303205 964.744825,512.303205 C967.873807,512.303205 972.878088,516.053079 976.00707,516.685022 C979.136051,517.296074 990.299046,521.766676 991.651978,523.55805 C991.892267,523.887078 992.163898,524.299669 992.440753,524.769709 C995.104827,524.639142 998.609913,524.529466 1000.67849,524.795822 C1001.12772,524.393677 1001.67099,524.085539 1002.47021,524.085539 C1006.60214,524.085539 1011.48627,539.753537 1011.2721,548.861866 C1013.73768,549.190894 1017.11217,549.582594 1018.20392,549.582594 C1020.02176,549.582594 1022.18958,547.060046 1025.44393,548.141138 C1028.69828,549.22223 1026.52001,551.75 1029.41393,551.75 C1032.31307,551.75 1038.09568,549.942958 1039.90307,550.298099 C1041.72091,550.658463 1046.77742,551.75 1047.13786,549.582594 C1047.49307,547.42041 1048.59526,544.161467 1051.12352,544.89264 C1053.64656,545.613368 1055.44873,547.775551 1058.34264,545.242558 C1061.24701,542.709566 1065.94309,545.242558 1067.02961,543.069929 C1067.58855,541.941834 1074.02412,538.823902 1080,536.113339 C1079.66568,529.167193 1071.72047,532.269457 1071.36526,525.020396 Z" id="path-1"></path>
        <filter x="-5.3%" y="-3.7%" width="110.5%" height="110.4%" filterUnits="objectBoundingBox" id="filter-2">
            <feOffset dx="0" dy="2" in="SourceAlpha" result="shadowOffsetOuter1"></feOffset>
            <feGaussianBlur stdDeviation="2" in="shadowOffsetOuter1" result="shadowBlurOuter1"></feGaussianBlur>
            <feColorMatrix values="0 0 0 0 0   0 0 0 0 0   0 0 0 0 0  0 0 0 0.00993546196 0" type="matrix" in="shadowBlurOuter1"></feColorMatrix>
        </filter>
    </defs>
    <g id="design" stroke="none" stroke-width="1" fill="none" fill-rule="evenodd">
        <g id="choose-country1" transform="translate(-943.000000, -415.000000)">
            <g id="tanzania">
                <use fill="black" fill-opacity="1" filter="url(#filter-2)" xlink:href="#path-1"></use>
                <use fill="#999999" fill-rule="evenodd" xlink:href="#path-1"></use>
            </g>
        </g>
    </g>
</svg>