<?xml version="1.0" encoding="UTF-8"?>
<svg width="80px" height="19px" viewBox="0 0 80 19" version="1.1" xmlns="http://www.w3.org/2000/svg" xmlns:xlink="http://www.w3.org/1999/xlink">
    <title>8C05307D-E748-41BB-9026-3D867AD835A6</title>
    <g id="visuals" stroke="none" stroke-width="1" fill="none" fill-rule="evenodd">
        <g id="map-distribution-dropdown-v3" transform="translate(-1262.000000, -804.000000)" fill="#FFFFFF" fill-rule="nonzero">
            <g id="Vizz10-White@1x" transform="translate(1262.000000, 804.000000)">
                <path d="M10.1179102,4.21357413 L6.41796794,14.6031746 L3.71234275,14.6031746 L0.012400381,4.21357413 L2.62332862,4.21357413 L5.01104279,11.9313698 L5.11926781,11.9313698 L7.51374603,4.21357413 L10.1179102,4.21357413 Z M10.8565554,14.6031746 L10.8565554,4.21357413 L13.3051462,4.21357413 L13.3051462,14.6031746 L10.8565554,14.6031746 Z M12.0876149,2.73900843 C11.3029837,2.73900843 10.6671617,2.1437709 10.6671617,1.41325211 C10.6671617,0.67596927 11.3029837,0.080731746 12.0876149,0.080731746 C12.8654821,0.080731746 13.501304,0.67596927 13.501304,1.41325211 C13.501304,2.1437709 12.8654821,2.73900843 12.0876149,2.73900843 Z M14.73372,14.6031746 L14.73372,13.0474402 L20.0908578,6.33072578 L20.0908578,6.24279297 L14.9095857,6.24279297 L14.9095857,4.21357413 L23.0873376,4.21357413 L23.0873376,5.88429763 L17.9872343,12.486023 L17.9872343,12.5739557 L23.2632033,12.5739557 L23.2632033,14.6031746 L14.73372,14.6031746 Z M24.4820967,14.6031746 L24.4820967,13.0474402 L29.8392344,6.33072578 L29.8392344,6.24279297 L24.6579624,6.24279297 L24.6579624,4.21357413 L32.8357143,4.21357413 L32.8357143,5.88429763 L27.735611,12.486023 L27.735611,12.5739557 L33.0115798,12.5739557 L33.0115798,14.6031746 L24.4820967,14.6031746 Z M40.9877721,10.23359 L40.9877721,4.21357413 L43.4363629,4.21357413 L43.4363629,14.6031746 L41.0621768,14.6031746 L41.0621768,12.7565854 L40.9539517,12.7565854 C40.4804673,13.9200043 39.3846892,14.7384559 37.8289548,14.7384559 C35.7862078,14.7384559 34.3657546,13.3247667 34.3657546,10.8288276 L34.3657546,4.21357413 L36.8143452,4.21357413 L36.8143452,10.45004 C36.8143452,11.7690322 37.5989767,12.6010121 38.7759235,12.6010121 C39.8581737,12.6010121 40.9877721,11.8163808 40.9877721,10.23359 Z M47.98994,14.8128605 C46.0080697,14.8128605 44.5132117,13.7306105 44.5132117,11.6878635 C44.5132117,9.34749779 46.4409697,8.74549621 48.4566603,8.52904619 C50.2897214,8.33288838 51.0270043,8.29906806 51.0270043,7.59560552 L51.0270043,7.55502116 C51.0270043,6.53364767 50.4047105,5.95193827 49.2683479,5.95193827 C48.0711087,5.95193827 47.3811744,6.56070392 47.1376681,7.27093051 L44.8514149,6.94625549 C45.3925398,5.0523179 47.0700275,4.07829287 49.2548198,4.07829287 C51.2366902,4.07829287 53.4755949,4.90350852 53.4755949,7.64971803 L53.4755949,14.6031746 L51.1217011,14.6031746 L51.1217011,13.1759573 L51.0405324,13.1759573 C50.5941043,14.0485214 49.6200792,14.8128605 47.98994,14.8128605 Z M48.6257619,13.0136198 C50.1003276,13.0136198 51.0337683,12.0328308 51.0337683,10.876176 L51.0337683,9.65188062 C50.7158573,9.90891508 49.4306854,10.0712525 48.7880995,10.1591854 C47.6923213,10.3147587 46.8738697,10.7070744 46.8738697,11.6472792 C46.8738697,12.5468995 47.6043884,13.0136198 48.6257619,13.0136198 Z M57.4406981,0.750373968 L57.4406981,14.6031746 L54.9921075,14.6031746 L54.9921075,0.750373968 L57.4406981,0.750373968 Z M59.0045533,14.6031746 L59.0045533,4.21357413 L61.453144,4.21357413 L61.453144,14.6031746 L59.0045533,14.6031746 Z M60.2356127,2.73900843 C59.4509814,2.73900843 58.8151595,2.1437709 58.8151595,1.41325211 C58.8151595,0.67596927 59.4509814,0.080731746 60.2356127,0.080731746 C61.01348,0.080731746 61.6493019,0.67596927 61.6493019,1.41325211 C61.6493019,2.1437709 61.01348,2.73900843 60.2356127,2.73900843 Z M68.2050354,4.21357413 L68.2050354,6.10751171 L66.1555243,6.10751171 L66.1555243,11.4781776 C66.1555243,12.4657308 66.649301,12.6821808 67.2648306,12.6821808 C67.5692135,12.6821808 67.84654,12.6213041 67.9818213,12.5874838 L68.394429,14.5017137 C68.1306306,14.5896465 67.6503822,14.7249278 66.9536837,14.74522 C65.1138586,14.7993324 63.6934054,13.8388356 63.7069335,11.8840214 L63.7069335,6.10751171 L62.2323679,6.10751171 L62.2323679,4.21357413 L63.7069335,4.21357413 L63.7069335,1.724399 L66.1555243,1.724399 L66.1555243,4.21357413 L68.2050354,4.21357413 Z M70.8240865,18.4789825 C70.1544443,18.4789825 69.5592067,18.3572295 69.2277676,18.2151841 L69.7959489,16.3144825 C70.8646708,16.6188654 71.5681333,16.5309325 72.0348537,15.3810419 L72.2445397,14.8196246 L68.4769567,4.21357413 L71.0743568,4.21357413 L73.4688351,12.059887 L73.57706,12.059887 L75.9783024,4.21357413 L78.5959946,4.22710225 L74.4225679,15.8612903 C73.8340944,17.4914294 72.7315522,18.4789825 70.8240865,18.4789825 Z M78.4476435,14.751984 C77.6224278,14.751984 76.9527856,14.0891059 76.9595497,13.2638902 C76.9527856,12.4522027 77.6224278,11.7893244 78.4476435,11.7893244 C79.2458029,11.7893244 79.9289732,12.4522027 79.9357373,13.2638902 C79.9289732,14.0891059 79.2458029,14.751984 78.4476435,14.751984 Z" id="vizzuality."></path>
            </g>
        </g>
    </g>
</svg>