<!-- Generated by IcoMoon.io -->
<svg version="1.1" xmlns="http://www.w3.org/2000/svg" width="32" height="32" viewBox="0 0 32 32">
<title>ce-logo</title>
<path d="M26.352 12.608l-2.992-6.432c-1.296-2.112-3.696-2.976-5.392-1.936l-0.288 0.176 7.456 7.472 1.216 0.72z"></path>
<path d="M27.888 13.52l-2.752-1.632 1.248 1.248c0.128 0.096 0.24 0.192 0.352 0.304 1.040 0.96 1.584 2.224 1.568 3.392 0 0.688-0.224 1.36-0.64 1.904l-4.992 6.304c-0.784 0.976-2.096 1.344-3.44 1.104 0.352 0.384 0.752 0.688 1.152 0.88l0.656 0.208 0.64 0.208c2.256 1.008 4.736 0.352 5.536-1.456l2.608-5.856 0.672-1.488c0.816-1.824-0.352-4.112-2.608-5.12z"></path>
<path d="M9.504 19.84l0.688 0.224-2.688-3.424c-0.448 1.088 0.432 2.512 2 3.2z"></path>
<path d="M26.736 13.44c-0.112-0.096-0.224-0.208-0.352-0.304l-1.248-1.248-7.456-7.472-3.104-3.088c-1.936-1.536-4.496-1.52-5.728 0.032l-7.392 9.328c-1.232 1.552-0.656 4.048 1.28 5.584l0.672 0.416 2.16-4.848c0.048-0.272 0.144-0.528 0.32-0.752l0.048-0.048 4.352-5.504c0.736-0.928 2.432-0.8 3.776 0.272l0.528 0.512 7.888 7.616c0.272 0.208 0.496 0.448 0.704 0.688 0.816 0.992 1.024 2.192 0.432 2.928l-2.976 3.76c-0.736 0.928-2.432 0.8-3.776-0.272l-2.88-1.856 2.176 2.864 2.592 3.424c0.144 0.24 0.32 0.464 0.496 0.672 1.344 0.256 2.656-0.112 3.44-1.104l4.992-6.304c0.432-0.544 0.64-1.2 0.64-1.904 0-1.152-0.544-2.416-1.584-3.392z"></path>
<path d="M22.48 13.936l-8.416-8.128c-1.36-1.072-3.040-1.2-3.776-0.272l-4.352 5.504-0.352 0.8-2.16 4.848-0.288 0.624c-0.8 1.808 0.368 4.096 2.624 5.104l8.352 2.624-2.64-3.376-1.264-1.6-0.688-0.224c-1.568-0.704-2.448-2.128-2-3.2 0-0.016 0-0.016 0.016-0.032l0.544-1.232 2.32-5.232c0.48-1.072 2.144-1.376 3.728-0.672l9.040 5.152c-0.192-0.24-0.432-0.48-0.688-0.688z"></path>
<path d="M30.4 21.344l-0.576-1.232-2.608 5.856c-0.8 1.808-3.28 2.464-5.536 1.456l-0.64-0.208c-0.224-0.032-0.448-0.112-0.656-0.208-0.4-0.192-0.8-0.48-1.152-0.88-0.176-0.192-0.352-0.416-0.496-0.672l-2.592-3.424-2.176-2.864-2.304-3.040c-0.912-1.472-0.816-3.168 0.176-3.792l3.552-2.176-1.264-0.72c-1.584-0.688-3.248-0.384-3.728 0.704l-2.336 5.248-0.544 1.232c0 0.016-0.016 0.016-0.016 0.032l2.688 3.424 1.264 1.6 2.64 3.376 3.344 4.256c1.296 2.112 3.696 2.976 5.392 1.936l6.864-4.208c1.68-1.040 2-3.584 0.704-5.696z"></path>
</svg>
