<!-- Generated by IcoMoon.io -->
<svg version="1.1" xmlns="http://www.w3.org/2000/svg" width="28" height="28" viewBox="0 0 28 28">
<title>slideshare</title>
<path d="M13.641 11.562c0 1.734-1.516 3.156-3.375 3.156s-3.375-1.422-3.375-3.156c0-1.75 1.516-3.156 3.375-3.156s3.375 1.406 3.375 3.156zM21.484 11.562c0 1.734-1.5 3.156-3.375 3.156-1.859 0-3.375-1.422-3.375-3.156 0-1.75 1.516-3.156 3.375-3.156 1.875 0 3.375 1.406 3.375 3.156zM25 14.375v-10.422c0-1.797-0.578-2.5-2.234-2.5h-17.375c-1.734 0-2.219 0.594-2.219 2.5v10.516c3.703 1.937 6.875 1.594 8.609 1.531 0.734-0.016 1.203 0.125 1.484 0.422 0.047 0.047 0.094 0.094 0.156 0.141 0.328 0.313 0.641 0.562 0.953 0.797 0.063-0.859 0.547-1.406 1.844-1.359 1.766 0.078 5.016 0.422 8.781-1.625zM27.547 14.297c-1 1.234-2.906 2.75-5.812 3.938 3.078 10.484-7.516 12.156-7.344 6.781 0 0.094-0.016-2.891-0.016-5.109-0.234-0.047-0.469-0.109-0.75-0.172 0 2.234-0.016 5.375-0.016 5.281 0.172 5.375-10.422 3.703-7.344-6.781-2.906-1.188-4.813-2.703-5.812-3.938-0.5-0.75 0.047-1.547 0.875-0.969 0.109 0.078 0.234 0.156 0.344 0.234v-10.844c0-1.5 1.125-2.719 2.516-2.719h19.641c1.391 0 2.516 1.219 2.516 2.719v10.844l0.328-0.234c0.828-0.578 1.375 0.219 0.875 0.969z"></path>
</svg>
