<svg aria-hidden="true" style="position: absolute; width: 0; height: 0; overflow: hidden;" version="1.1" xmlns="http://www.w3.org/2000/svg" xmlns:xlink="http://www.w3.org/1999/xlink">
<defs>
<symbol id="icon-pause" viewBox="0 0 15 20">
<title>pause</title>
<path d="M0 0h4.615v20h-4.615z"></path>
<path d="M10.385 0h4.615v20h-4.615z"></path>
</symbol>
<symbol id="icon-info" viewBox="0 0 20 20">
<title>info</title>
<path d="M10 0c5.512 0 10 4.489 10 10s-4.489 10-10 10c-5.512 0-10-4.489-10-10s4.489-10 10-10zM10 2.393c-4.189 0-7.607 3.418-7.607 7.607s3.417 7.607 7.607 7.607c4.189 0 7.607-3.418 7.607-7.607s-3.417-7.607-7.607-7.607z"></path>
<path d="M8.75 8.125v7.5h2.5v-7.5z"></path>
<path d="M8.75 4.375v2.5h2.5v-2.5z"></path>
</symbol>
<symbol id="icon-search" viewBox="0 0 20 20">
<title>search</title>
<path d="M16.178 14.304c1.146-1.519 1.784-3.291 1.784-5.316 0-4.936-3.949-8.988-8.916-8.988s-9.044 4.050-9.044 8.988c0 4.936 4.076 8.987 9.044 8.987 2.037 0 3.949-0.633 5.35-1.772l3.821 3.797c0 0 1.784-1.773 1.784-1.773l-3.822-3.924zM9.045 15.316c-3.566 0-6.496-2.785-6.496-6.329s2.93-6.456 6.496-6.456c3.566 0 6.496 2.911 6.496 6.456s-2.93 6.329-6.496 6.329z"></path>
</symbol>
<symbol id="icon-bucket" viewBox="0 0 18 20">
<title>bucket</title>
<path d="M13.9 13.39l1.779-0.198c0.573-0.064 1.058-0.45 1.249-0.994s0.053-1.148-0.354-1.556l-6.981-6.982c-0.779-0.779-2.042-0.779-2.821-0l-5.607 5.608c-0.746 0.745-1.165 1.757-1.165 2.812s0.419 2.067 1.166 2.812l2.803 2.803c0.745 0.746 1.757 1.166 2.813 1.166s2.067-0.42 2.813-1.166l4.306-4.306zM8.183 5.089l6.223 6.224-1.078 0.12c-0.227 0.025-0.438 0.127-0.599 0.288l-4.555 4.555c-0.37 0.37-0.87 0.578-1.393 0.578s-1.023-0.208-1.392-0.577l-2.803-2.804c-0.37-0.369-0.577-0.87-0.577-1.392s0.208-1.023 0.577-1.392l5.598-5.599z"></path>
<path d="M15.694 14.862l-0.998 1.996c-0.302 0.604-0.183 1.333 0.294 1.81 0.293 0.294 0.693 0.46 1.109 0.46s0.815-0.166 1.109-0.46c0.477-0.477 0.595-1.206 0.293-1.81l-0.998-1.996c-0.167-0.334-0.643-0.334-0.81 0z"></path>
<path d="M4.363 8.492v-4.49c0-0.776 0.629-1.405 1.405-1.405s1.405 0.629 1.405 1.405c0 0.554 0.449 1.004 1.004 1.004s1.004-0.449 1.004-1.004c0-1.885-1.528-3.413-3.413-3.413s-3.413 1.528-3.413 3.413v4.49c0 0.554 0.449 1.004 1.004 1.004s1.004-0.449 1.004-1.004z"></path>
</symbol>
<symbol id="icon-opacity" viewBox="0 0 18 20">
<title>opacity</title>
<path d="M14.866 5.174l-5.273-4.776c-0.611-0.554-1.631-0.524-2.214 0.059l-4.776 4.748c-1.66 1.66-2.592 3.902-2.534 6.263 0.029 2.359 0.99 4.572 2.709 6.204 1.603 1.515 3.729 2.33 5.971 2.33s4.369-0.845 5.971-2.359c1.719-1.631 2.68-3.845 2.709-6.204 0.059-2.33-0.845-4.572-2.564-6.262v-0.001zM13.322 16.184c-1.224 1.165-2.855 1.776-4.572 1.776s-3.35-0.641-4.572-1.776c-1.311-1.253-2.067-2.941-2.098-4.748s0.67-3.524 1.951-4.806l4.456-4.456 4.951 4.456c1.281 1.281 1.981 3 1.951 4.806 0 1.806-0.729 3.495-2.067 4.748v0z"></path>
<path d="M12.624 7.475l-3.67-3.32c-0.146-0.145-0.379-0.029-0.379 0.175v12.321c0 0.116 0.116 0.232 0.232 0.232 0.554 0 1.106-0.087 1.631-0.291 4.165-1.544 4.894-6.407 2.185-9.116v-0.001z"></path>
</symbol>
<symbol id="icon-arrow-left" viewBox="0 0 13 20">
<title>arrow-left</title>
<path d="M0.625 10l9.063-10 2.188 2.014-7.234 7.986 7.234 7.986-2.188 2.014-8.149-8.992z"></path>
</symbol>
<symbol id="icon-expand" viewBox="0 0 32 20">
<title>expand</title>
<path d="M16 19l16-14.5-3.222-3.5-12.778 11.574-12.778-11.574-3.222 3.5 14.388 13.038z"></path>
</symbol>
<symbol id="icon-zoomin" viewBox="0 0 32 32">
<title>zoomin</title>
<path d="M18.5 0v13.5h13.5v5h-13.5v13.5h-5v-13.502l-13.5 0.002v-5l13.5-0.002v-13.498z"></path>
</symbol>
<symbol id="icon-zoomout" viewBox="0 0 128 32">
<title>zoomout</title>
<path d="M128 4h-128v24h128z"></path>
</symbol>
<symbol id="icon-stack" viewBox="0 0 20 20">
<title>stack</title>
<path d="M20 6.25l-10-5-10 5 10 5 10-5zM10 2.91l6.681 3.34-6.681 3.34-6.681-3.34 6.681-3.34zM17.997 8.998l2.003 1.002-10 5-10-5 2.003-1.002 7.997 3.998zM17.997 12.748l2.003 1.002-10 5-10-5 2.003-1.002 7.997 3.998z"></path>
</symbol>
<symbol id="icon-collapsed" viewBox="0 0 16 20">
<title>collapsed</title>
<path d="M8 0l0.806 0.731 7.194 6.519-1.611 1.75-6.389-5.787-6.389 5.787-1.611-1.75 7.194-6.519z"></path>
<path d="M8 6.5l0.806 0.731 7.194 6.519-1.611 1.75-6.389-5.787-6.389 5.787-1.611-1.75 7.194-6.519z"></path>
<path d="M6.75 7.609v12.391h2.5v-12.391z"></path>
</symbol>
<symbol id="icon-about" viewBox="0 0 5 20">
<title>about</title>
<path d="M5 2.5c0 1.381-1.119 2.5-2.5 2.5s-2.5-1.119-2.5-2.5c0-1.381 1.119-2.5 2.5-2.5s2.5 1.119 2.5 2.5z"></path>
<path d="M5 10c0 1.381-1.119 2.5-2.5 2.5s-2.5-1.119-2.5-2.5c0-1.381 1.119-2.5 2.5-2.5s2.5 1.119 2.5 2.5z"></path>
<path d="M5 17.5c0 1.381-1.119 2.5-2.5 2.5s-2.5-1.119-2.5-2.5c0-1.381 1.119-2.5 2.5-2.5s2.5 1.119 2.5 2.5z"></path>
</symbol>
<symbol id="icon-close" viewBox="0 0 20 20">
<title>close</title>
<path d="M17.391 0l2.609 2.609-7.393 7.391 7.393 7.391-2.609 2.609-7.391-7.393-7.391 7.393-2.609-2.609 7.391-7.391-7.391-7.391 2.609-2.609 7.391 7.391z"></path>
</symbol>
<symbol id="icon-download" viewBox="0 0 20 20">
<title>download</title>
<path d="M11.563 0.046v10.188l6.424-5.72 2.014 2.151-10 8.914-10-8.914 2.014-2.151 6.424 5.722v-10.19z"></path>
<path d="M0 19.954h20v-3.125h-20z"></path>
</symbol>
<symbol id="icon-dropdown" viewBox="0 0 20 20">
<title>dropdown</title>
<path d="M10 16.667l-10-13.333h20z"></path>
</symbol>
<symbol id="icon-menu" viewBox="0 0 20 20">
<title>menu</title>
<path d="M0 15v5h20v-5z"></path>
<path d="M0 0v5h20v-5z"></path>
</symbol>
<symbol id="icon-info" viewBox="0 0 32 32">
<title>info</title>
<path d="M16 0c8.813 0 16 7.187 16 16s-7.187 16-16 16c-8.813 0-16-7.187-16-16s7.187-16 16-16zM16 2c-7.709 0-14 6.291-14 14s6.291 14 14 14c7.709 0 14-6.291 14-14s-6.291-14-14-14zM16 2c7.714 0 14 6.286 14 14s-6.287 14-14 14c-7.714 0-14-6.286-14-14s6.287-14 14-14zM16 4c-6.609 0-12 5.391-12 12s5.39 12 12 12c6.609 0 12-5.391 12-12s-5.39-12-12-12z"></path>
<path d="M13.984 13.588h4.032v12.158h-4.032v-12.158zM15.984 23.746h0.032v-8.158h-0.032v8.158z"></path>
<path stroke-linejoin="miter" stroke-linecap="butt" stroke-miterlimit="4" stroke-width="2" d="M14.984 7.762h2.032v2.032h-2.032v-2.032z"></path>
</symbol>
</defs>
</svg>
