<?xml version="1.0" encoding="UTF-8"?>
<svg width="200px" height="200px" viewBox="0 0 200 200" version="1.1" xmlns="http://www.w3.org/2000/svg" xmlns:xlink="http://www.w3.org/1999/xlink">
    <!-- Generator: Sketch 57.1 (83088) - https://sketch.com -->
    <title>Sweden</title>
    <desc>Created with Sketch.</desc>
    <defs>
        <path d="M74.162542,30.58716 C73.301964,29.734517 71.5936524,27.4513856 73.0168172,27.4513856 C74.4476887,27.4513856 75.0154133,23.1727614 73.301964,22.314982 C71.5936524,21.4572026 73.301964,17.7410146 71.8710925,16.8883716 C70.440221,16.0305922 71.300799,13.1721836 71.5936524,11.1741226 C71.8710925,9.17092515 66.157882,7.46307095 63.0135612,6.03515075 C59.8743781,4.60466234 58.4486444,2.32153094 55.8771859,0.893610737 C53.3082963,-0.534309466 52.4477183,3.17417394 52.4477183,5.46500995 C52.4477183,7.74814135 50.1639755,8.03321175 48.4479572,6.60272335 C46.731939,5.17223494 44.7359118,6.60272335 42.1644533,5.46500995 C39.5929948,4.31959194 40.7387196,8.03321175 40.7387196,9.74620236 C40.7387196,11.4566248 37.8769766,11.4566248 36.1660961,11.4566248 C34.4500779,11.4566248 31.5986105,12.8871132 31.5986105,14.8851742 C31.5986105,16.880667 29.027152,18.026085 29.8800233,19.171503 C30.7380324,20.3117846 29.5974455,21.4572026 28.4517207,22.314982 C27.3111337,23.167625 26.1705468,26.0208972 25.3099687,26.8812448 C24.4519596,27.736456 25.8802622,29.1643762 24.1693818,30.307226 C22.4585013,31.4449394 20.4547674,30.58716 19.6018961,31.4449394 C18.743887,32.3027188 19.6018961,34.3059162 19.3193182,36.8792544 C19.0290337,39.4423198 17.0278687,42.3007284 15.3144194,44.5838598 C13.6061078,46.8721276 15.8872817,47.4448366 16.7478598,47.7247706 C17.6007311,48.0149774 17.6007311,49.4428976 16.7478598,51.15332 C15.8872817,52.8740153 13.8886856,51.726029 12.7455298,51.446095 C11.6049428,51.15332 8.46062195,52.5838084 6.7471726,55.4422171 C5.03115436,58.2980575 5.60144784,60.0110481 6.16917244,61.4389683 C6.74203482,62.8668885 4.74343872,64.5824473 6.16917244,67.4382877 C7.60004394,70.2941281 5.59887895,70.8642689 5.88916348,73.1499685 C6.16917244,75.4330999 9.60120893,75.1480295 9.88892456,77.4311609 C10.1740713,79.7142923 8.7457687,80.5720717 7.60004394,80.5720717 C6.45945697,80.5720717 6.7471726,82.8552031 7.89032847,83.4279121 C9.02834655,84.0031893 8.74319981,87.9967431 8.17290632,89.1447293 C7.59747505,90.2850109 3.88799849,89.1447293 4.17057635,90.5675131 C4.45572309,91.9980015 3.31256722,94.2811329 3.31256722,95.4265509 C3.31256722,96.5668325 3.02742048,100.280452 1.88426461,99.4201047 C1.43470894,99.0862385 0.715419853,99.0605565 0.00640632705,99.15558 C0.0115441062,99.3353541 0.0115441062,99.51256 0.00640632705,99.7205844 C-0.0809359189,101.939511 0.720557632,104.166142 2.67291372,105.760995 C4.63040758,107.366121 3.11733162,109.759685 4.80509207,111.983748 C6.49542142,114.210379 5.96109239,115.8078 7.82867512,117.410358 C9.69625784,119.00778 9.87608011,119.898946 9.07201767,121.940666 C8.27309301,123.987523 10.6750048,123.450769 10.7597781,124.693779 C10.854827,125.944493 10.2331558,128.517831 10.854827,129.763409 C11.4739294,131.006419 12.7224098,129.763409 15.5636017,129.67609 C18.4073624,129.588771 17.7009178,127.806439 17.7856911,126.116562 C17.8704645,124.431822 19.2987671,125.227965 19.6532739,124.164729 C20.0077806,123.096357 22.5869458,122.829264 24.6317819,123.712726 C26.6740491,124.609028 27.7375694,123.096357 28.0997828,120.962181 C28.4517207,118.830574 29.6051521,121.40648 30.2319612,121.848211 C30.8510636,122.295078 32.7237841,118.563481 33.6049132,116.164781 C34.4963179,113.758375 33.5201399,114.210379 31.4727349,116.514056 C29.4304676,118.828006 30.586468,114.210379 31.3879615,112.340728 C32.1843173,110.473645 32.0995439,105.047035 32.3641395,103.809162 C32.633873,102.563584 33.1656331,100.696501 35.7422294,100.164883 C38.3188256,99.6306973 41.6994843,96.4307178 41.1677242,95.1029575 C40.6308262,93.7649244 44.7230673,91.5485662 44.7230673,90.2131013 C44.7230673,88.8776363 40.4535729,84.7890591 39.0329769,83.9004612 C37.6072432,83.0144316 34.4988868,83.7232553 34.7660513,82.7473386 C35.0306469,81.7688537 34.4064068,77.9473695 34.0544689,75.9903997 C33.6973932,74.0308617 36.2739895,71.9917095 36.2739895,70.1220586 C36.2739895,68.2549759 36.1866473,66.1233684 37.8718388,65.5018635 C39.5621682,64.8829269 38.4986479,63.2855054 40.7233063,62.7487512 C42.9376891,62.2171334 42.498409,59.017154 44.9003207,58.0386691 C47.3022325,57.0627524 47.4717792,56.256337 50.5878423,54.753939 C53.7013364,53.2386999 58.9444401,49.6843086 59.8384137,47.8172259 C60.7246806,45.9527114 56.6324395,43.9931734 59.2141735,42.0387718 C61.7933386,40.0843703 59.6585914,37.8603075 61.5236052,37.1514838 C63.391188,36.4375237 64.1027704,35.4641752 65.438593,34.0439596 C66.7692778,32.6211758 68.5443805,33.9566408 71.7452169,33.4224548 C72.9140617,33.2272714 73.9878575,33.3222949 75,33.5688423 C74.8664177,32.1434903 74.5504443,30.9852313 74.162542,30.58716 Z M43.4663251,108.462903 C40.4088191,108.558905 38.9720473,115.4577 39.7567995,116.591054 C40.4088191,117.511071 46.5261599,108.369568 43.4663251,108.462903 Z" id="path-1"></path>
    </defs>
    <g id="Sweden" stroke="none" stroke-width="1" fill="none" fill-rule="evenodd">
        <g id="Group-25" transform="translate(55.000000, 34.000000)">
            <g id="Bitmap" transform="translate(8.000000, 0.000000)">
                <g transform="translate(0.000000, 0.424581)">
                    <mask id="mask-2" fill="white">
                        <use xlink:href="#path-1"></use>
                    </mask>
                    <use id="Mask" fill="#999999" xlink:href="#path-1"></use>
                </g>
            </g>
            <path d="M4.31,100.216 C3.55399622,100.216 2.93900237,100.099001 2.465,99.865 C1.99099763,99.6309988 1.65800096,99.316002 1.466,98.92 L1.376,98.92 L1.376,100 L0.08,100 L0.08,96.31 L1.376,96.31 L1.376,97.138 C1.376,97.4380015 1.42099955,97.7169987 1.511,97.975 C1.60100045,98.2330013 1.75099895,98.457999 1.961,98.65 C2.17100105,98.842001 2.44699829,98.9919995 2.789,99.1 C3.13100171,99.2080005 3.54799754,99.262 4.04,99.262 C5.08400522,99.262 5.83699769,99.0400022 6.299,98.596 C6.76100231,98.1519978 6.992,97.5580037 6.992,96.814 C6.992,96.1779968 6.81500177,95.6800018 6.461,95.32 C6.10699823,94.9599982 5.55200378,94.678001 4.796,94.474 L3.806,94.222 C2.68999442,93.9339986 1.82600306,93.5020029 1.214,92.926 C0.60199694,92.3499971 0.296,91.558005 0.296,90.55 C0.296,90.0459975 0.39199904,89.5870021 0.584,89.173 C0.77600096,88.7589979 1.04599826,88.4080014 1.394,88.12 C1.74200174,87.8319986 2.15899757,87.6100008 2.645,87.454 C3.13100243,87.2979992 3.66799706,87.22 4.256,87.22 C4.94000342,87.22 5.50099781,87.3249989 5.939,87.535 C6.37700219,87.745001 6.6859991,88.0359981 6.866,88.408 L6.974,88.408 L6.974,87.436 L8.27,87.436 L8.27,90.946 L6.974,90.946 L6.974,90.118 C6.974,89.8179985 6.92900045,89.5480012 6.839,89.308 C6.74899955,89.0679988 6.59600108,88.8640008 6.38,88.696 C6.16399892,88.5279992 5.88200174,88.3990005 5.534,88.309 C5.18599826,88.2189996 4.76000252,88.174 4.256,88.174 C3.4159958,88.174 2.7860021,88.3659981 2.366,88.75 C1.9459979,89.1340019 1.736,89.6379969 1.736,90.262 C1.736,90.9100032 1.92499811,91.4169982 2.303,91.783 C2.68100189,92.1490018 3.27799592,92.4399989 4.094,92.656 L5.012,92.89 C6.10400546,93.1780014 6.94399706,93.6099971 7.532,94.186 C8.12000294,94.7620029 8.414,95.5179953 8.414,96.454 C8.414,96.9940027 8.3240009,97.4949977 8.144,97.957 C7.9639991,98.4190023 7.70000174,98.8179983 7.352,99.154 C7.00399826,99.4900017 6.57500255,99.7509991 6.065,99.937 C5.55499745,100.123001 4.9700033,100.216 4.31,100.216 Z M10.664,91.54 L9.728,91.54 L9.728,90.712 L13.454,90.712 L13.454,91.54 L12.158,91.54 L14.012,98.56 L14.084,98.56 L16.334,90.712 L17.576,90.712 L19.646,98.56 L19.718,98.56 L21.608,91.54 L20.312,91.54 L20.312,90.712 L23.426,90.712 L23.426,91.54 L22.49,91.54 L20.132,100 L18.692,100 L16.694,92.71 L16.622,92.71 L14.444,100 L13.004,100 L10.664,91.54 Z M28.592,100.216 C27.9319967,100.216 27.3410026,100.099001 26.819,99.865 C26.2969974,99.6309988 25.8560018,99.3040021 25.496,98.884 C25.1359982,98.4639979 24.860001,97.954003 24.668,97.354 C24.475999,96.753997 24.38,96.0880037 24.38,95.356 C24.38,94.6359964 24.4849989,93.979003 24.695,93.385 C24.905001,92.790997 25.1929982,92.2780022 25.559,91.846 C25.9250018,91.4139978 26.3599975,91.0810012 26.864,90.847 C27.3680025,90.6129988 27.919997,90.496 28.52,90.496 C29.1320031,90.496 29.6779976,90.6039989 30.158,90.82 C30.6380024,91.0360011 31.0429983,91.3389981 31.373,91.729 C31.7030016,92.1190019 31.9579991,92.5839973 32.138,93.124 C32.3180009,93.6640027 32.408,94.2519968 32.408,94.888 L32.408,95.302 L26.018,95.302 L26.018,95.77 C26.018,96.7900051 26.2729974,97.5939971 26.783,98.182 C27.2930025,98.7700029 27.9739957,99.064 28.826,99.064 C29.5700037,99.064 30.1609978,98.9110015 30.599,98.605 C31.0370022,98.2989985 31.3819987,97.9000025 31.634,97.408 L32.228,97.786 C32.1079994,98.0980016 31.943001,98.4009985 31.733,98.695 C31.5229989,98.9890015 31.2680015,99.2469989 30.968,99.469 C30.6679985,99.6910011 30.320002,99.8709993 29.924,100.009 C29.527998,100.147001 29.0840025,100.216 28.592,100.216 Z M26.018,94.474 L30.86,94.474 L30.86,94.294 C30.86,93.8739979 30.8150004,93.4840018 30.725,93.124 C30.6349995,92.7639982 30.494001,92.4520013 30.302,92.188 C30.109999,91.9239987 29.8670015,91.7170007 29.573,91.567 C29.2789985,91.4169993 28.928002,91.342 28.52,91.342 C28.111998,91.342 27.7520016,91.4139993 27.44,91.558 C27.1279984,91.7020007 26.867001,91.9059987 26.657,92.17 C26.4469989,92.4340013 26.2880005,92.7429982 26.18,93.097 C26.0719995,93.4510018 26.018,93.8379979 26.018,94.258 L26.018,94.474 Z M37.916,100.216 C36.7639942,100.216 35.8430034,99.7990042 35.153,98.965 C34.4629965,98.1309958 34.118,96.9280079 34.118,95.356 C34.118,93.7839921 34.4629965,92.5810042 35.153,91.747 C35.8430034,90.9129958 36.7639942,90.496 37.916,90.496 C38.6360036,90.496 39.2209977,90.6519984 39.671,90.964 C40.1210022,91.2760016 40.447999,91.6539978 40.652,92.098 L40.724,92.098 L40.724,87.706 L39.374,87.472 L39.374,86.842 L42.2,86.32 L42.2,98.83 L43.532,99.064 L43.532,99.676 L40.724,100.216 L40.724,98.596 L40.652,98.596 C40.447999,99.0400022 40.1240022,99.4209984 39.68,99.739 C39.2359978,100.057002 38.6480037,100.216 37.916,100.216 Z M38.348,99.19 C38.6360014,99.19 38.9239986,99.1480004 39.212,99.064 C39.5000014,98.9799996 39.7549989,98.8600008 39.977,98.704 C40.1990011,98.5479992 40.3789993,98.3530012 40.517,98.119 C40.6550007,97.8849988 40.724,97.6240014 40.724,97.336 L40.724,93.376 C40.724,93.0879986 40.6550007,92.8270012 40.517,92.593 C40.3789993,92.3589988 40.1990011,92.1640008 39.977,92.008 C39.7549989,91.8519992 39.5000014,91.7320004 39.212,91.648 C38.9239986,91.5639996 38.6360014,91.522 38.348,91.522 C37.5199959,91.522 36.8750023,91.8009972 36.413,92.359 C35.9509977,92.9170028 35.72,93.6639953 35.72,94.6 L35.72,96.112 C35.72,97.0480047 35.9509977,97.7949972 36.413,98.353 C36.8750023,98.9110028 37.5199959,99.19 38.348,99.19 Z M49.184,100.216 C48.5239967,100.216 47.9330026,100.099001 47.411,99.865 C46.8889974,99.6309988 46.4480018,99.3040021 46.088,98.884 C45.7279982,98.4639979 45.452001,97.954003 45.26,97.354 C45.067999,96.753997 44.972,96.0880037 44.972,95.356 C44.972,94.6359964 45.0769989,93.979003 45.287,93.385 C45.497001,92.790997 45.7849982,92.2780022 46.151,91.846 C46.5170018,91.4139978 46.9519975,91.0810012 47.456,90.847 C47.9600025,90.6129988 48.511997,90.496 49.112,90.496 C49.7240031,90.496 50.2699976,90.6039989 50.75,90.82 C51.2300024,91.0360011 51.6349983,91.3389981 51.965,91.729 C52.2950016,92.1190019 52.5499991,92.5839973 52.73,93.124 C52.9100009,93.6640027 53,94.2519968 53,94.888 L53,95.302 L46.61,95.302 L46.61,95.77 C46.61,96.7900051 46.8649974,97.5939971 47.375,98.182 C47.8850025,98.7700029 48.5659957,99.064 49.418,99.064 C50.1620037,99.064 50.7529978,98.9110015 51.191,98.605 C51.6290022,98.2989985 51.9739987,97.9000025 52.226,97.408 L52.82,97.786 C52.6999994,98.0980016 52.535001,98.4009985 52.325,98.695 C52.1149989,98.9890015 51.8600015,99.2469989 51.56,99.469 C51.2599985,99.6910011 50.912002,99.8709993 50.516,100.009 C50.119998,100.147001 49.6760025,100.216 49.184,100.216 Z M46.61,94.474 L51.452,94.474 L51.452,94.294 C51.452,93.8739979 51.4070004,93.4840018 51.317,93.124 C51.2269995,92.7639982 51.086001,92.4520013 50.894,92.188 C50.701999,91.9239987 50.4590015,91.7170007 50.165,91.567 C49.8709985,91.4169993 49.520002,91.342 49.112,91.342 C48.703998,91.342 48.3440016,91.4139993 48.032,91.558 C47.7199984,91.7020007 47.459001,91.9059987 47.249,92.17 C47.0389989,92.4340013 46.8800005,92.7429982 46.772,93.097 C46.6639995,93.4510018 46.61,93.8379979 46.61,94.258 L46.61,94.474 Z M54.71,99.172 L56.042,99.172 L56.042,91.882 L54.71,91.648 L54.71,91.036 L57.482,90.496 L57.482,92.116 L57.554,92.116 C57.6260004,91.9359991 57.7369992,91.750001 57.887,91.558 C58.0370007,91.365999 58.2229989,91.1920008 58.445,91.036 C58.6670011,90.8799992 58.9279985,90.7510005 59.228,90.649 C59.5280015,90.5469995 59.8579982,90.496 60.218,90.496 C61.3340056,90.496 62.1349976,90.7869971 62.621,91.369 C63.1070024,91.9510029 63.35,92.8239942 63.35,93.988 L63.35,99.172 L64.682,99.172 L64.682,100 L60.542,100 L60.542,99.172 L61.874,99.172 L61.874,94.114 C61.874,92.3859914 61.1480073,91.522 59.696,91.522 C59.4319987,91.522 59.1710013,91.5579996 58.913,91.63 C58.6549987,91.7020004 58.421001,91.8159992 58.211,91.972 C58.0009989,92.1280008 57.8330006,92.3199989 57.707,92.548 C57.5809994,92.7760011 57.518,93.0459984 57.518,93.358 L57.518,99.172 L58.85,99.172 L58.85,100 L54.71,100 L54.71,99.172 Z" id="Sweden" fill="#222222" fill-rule="nonzero"></path>
        </g>
    </g>
</svg>